<?xml version="1.0" standalone="no"?><!DOCTYPE svg PUBLIC "-//W3C//DTD SVG 1.1//EN" "http://www.w3.org/Graphics/SVG/1.1/DTD/svg11.dtd" ><svg xmlns="http://www.w3.org/2000/svg"><metadata></metadata><defs><font id="tyPoland Lukasz Dziedzic:Lato Light:2014" horiz-adv-x="2760"><font-face font-family="Lato Light" font-weight="300" font-stretch="normal" units-per-em="2000" panose-1="2 15 5 2 2 2 4 3 2 3" ascent="1974" descent="-426" x-height="3" bbox="-959 -527 2683 2110" underline-thickness="59" underline-position="-481" unicode-range="U+0000-feff" /><missing-glyph horiz-adv-x="1025" d="M262 1134 q21 20 46.5 38 q25.5 18 55.5 32 q30 14 65.5 22.5 q35.5 8.5 77.5 8.5 q54 0 100.5 -15.5 q46.5 -15.5 81 -45 q34.5 -29.5 54 -71 q19.5 -41.5 19.5 -93.5 q0 -55 -16.5 -94.5 q-16.5 -39.5 -41 -69 q-24.5 -29.5 -53.5 -52 q-29 -22.5 -54.5 -42.5 q-25.5 -20 -44 -39.5 q-18.5 -19.5 -20.5 -44.5 l-10 -114 l-65 0 l-6 122 q-2 31 14 54.5 q16 23.5 40.5 44.5 q24.5 21 54 42 q29.5 21 54.5 47.5 q25 26.5 42 60 q17 33.5 17 80.5 q0 36 -14 64 q-14 28 -37.5 47.5 q-23.5 19.5 -55 30 q-31.5 10.5 -66.5 10.5 q-46 0 -79 -11.5 q-33 -11.5 -56 -26 q-23 -14.5 -36.5 -26 q-13.5 -11.5 -20.5 -11.5 q-14 0 -21 11 l-25 41 ZM410 265 q0 32 22 55 q22 23 55 23 q32 0 54 -23 q22 -23 22 -55 q0 -32 -22 -55 q-22 -23 -54 -23 q-33 0 -55 23 q-22 23 -22 55 ZM47 1415 l931 0 l0 -1415 l-931 0 l0 1415 ZM82 36 l859 0 l0 1343 l-859 0 l0 -1343 Z" /><glyph glyph-name="" unicode="" d="" /><glyph glyph-name="" unicode="  " d="" /><glyph glyph-name="" unicode="a" d="M972 514 l-288 715 q-15 35 -29 84 q-6 -24 -13 -45.5 q-7 -21.5 -15 -39.5 l-288 -714 l633 0 ZM1285 0 l-79 0 q-14 0 -23 7.5 q-9 7.5 -14 19.5 l-166 411 l-695 0 l-166 -411 q-4 -11 -14 -19 q-10 -8 -24 -8 l-78 0 l579 1415 l101 0 l579 -1415 Z" /><glyph glyph-name="" unicode="&#x104;" d="M971 514 l-288 715 q-15 35 -29 84 q-6 -24 -13 -45.5 q-7 -21.5 -15 -39.5 l-288 -714 l633 0 ZM1390 -285 q-28 -24 -70.5 -38.5 q-42.5 -14.5 -88.5 -14.5 q-77 0 -123.5 37.5 q-46.5 37.5 -46.5 103.5 q0 31 11.5 59 q11.5 28 30.5 53 q19 25 44 46.5 q25 21.5 51 38.5 q-22 4 -30 27 l-166 411 l-695 0 l-166 -411 q-4 -11 -14 -19 q-10 -8 -24 -8 l-78 0 l579 1415 l101 0 l579 -1415 l-16 0 q-20 -11 -43.5 -28 q-23.5 -17 -43.5 -39.5 q-20 -22.5 -33 -50 q-13 -27.5 -13 -58.5 q0 -48 32 -74.5 q32 -26.5 82 -26.5 q28 0 47 5.5 q19 5.5 31.5 11.5 q12.5 6 20.5 11.5 q8 5.5 13 5.5 q8 0 13 -8 l16 -34 Z" /><glyph glyph-name="" unicode="æ" d="M944 514 l-105 823 q-8 -26 -18 -49 q-10 -23 -21 -46 l-400 -728 l544 0 ZM1753 85 l-1 -85 l-742 0 l-56 438 l-596 0 l-227 -413 q-13 -25 -42 -25 l-79 0 l782 1415 l960 0 l0 -85 l-815 0 l73 -572 l617 0 l0 -83 l-607 0 l75 -590 l658 0 Z" /><glyph glyph-name="" unicode="b" d="M667 82 q186 0 281.5 80.5 q95.5 80.5 95.5 226.5 q0 67 -25.5 120.5 q-25.5 53.5 -73.5 91 q-48 37.5 -118 57.5 q-70 20 -159 20 l-356 0 l0 -596 l355 0 ZM312 1334 l0 -581 l306 0 q98 0 167.5 25 q69.5 25 114 66 q44.5 41 65.5 93 q21 52 21 107 q0 143 -90.5 216.5 q-90.5 73.5 -279.5 73.5 l-304 0 ZM616 1415 q121 0 210 -24 q89 -24 147 -70.5 q58 -46.5 86 -113.5 q28 -67 28 -152 q0 -56 -19.5 -108 q-19.5 -52 -56 -96 q-36.5 -44 -90 -76.5 q-53.5 -32.5 -122.5 -49.5 q167 -24 256.5 -110.5 q89.5 -86.5 89.5 -227.5 q0 -90 -32 -162 q-32 -72 -93 -122 q-61 -50 -150 -76.5 q-89 -26.5 -202 -26.5 l-459 0 l0 1415 l407 0 Z" /><glyph glyph-name="" unicode="c" d="M1230 238 q10 0 17 -7 l40 -43 q-44 -47 -95.5 -84.5 q-51.5 -37.5 -113 -64 q-61.5 -26.5 -135 -41 q-73.5 -14.5 -161.5 -14.5 q-147 0 -269.5 51.5 q-122.5 51.5 -210.5 146 q-88 94.5 -136.5 228.5 q-48.5 134 -48.5 298 q0 161 50 294 q50 133 140 228.5 q90 95.5 216 148 q126 52.5 278 52.5 q145 0 257 -45 q112 -45 204 -127 l-31 -45 q-8 -12 -25 -12 q-12 0 -39 22 q-27 22 -75 48.5 q-48 26.5 -119.5 48.5 q-71.5 22 -171.5 22 q-128 0 -234.5 -44 q-106.5 -44 -183 -126 q-76.5 -82 -119.5 -200 q-43 -118 -43 -265 q0 -150 43.5 -268 q43.5 -118 119.5 -199.5 q76 -81.5 179.5 -125 q103.5 -43.5 223.5 -43.5 q76 0 135.5 10 q59.5 10 109.5 30 q50 20 93 49 q43 29 85 68 q5 4 10 6.5 q5 2.5 10 2.5 Z" /><glyph glyph-name="" unicode="ç" d="M1287 188 q-42 -45 -91 -81.5 q-49 -36.5 -107.5 -62.5 q-58.5 -26 -127 -41.5 q-68.5 -15.5 -150.5 -18.5 l-24 -78 q91 -15 137.5 -45.5 q46.5 -30.5 46.5 -89.5 q0 -30 -13.5 -54 q-13.5 -24 -38 -40.5 q-24.5 -16.5 -58.5 -25 q-34 -8.5 -74 -8.5 q-41 0 -80 11.5 q-39 11.5 -65 30.5 l10 28 q6 11 16 11 q5 0 13.5 -5.5 q8.5 -5.5 22 -11.5 q13.5 -6 33.5 -11.5 q20 -5.5 49 -5.5 q52 0 80 22 q28 22 28 59 q0 25 -13 42 q-13 17 -36.5 27.5 q-23.5 10.5 -56 17 q-32.5 6.5 -71.5 11.5 l37 115 q-142 5 -259 58.5 q-117 53.5 -201 148 q-84 94.5 -130.5 225.5 q-46.5 131 -46.5 292 q0 161 50 294 q50 133 140 228.5 q90 95.5 216 148 q126 52.5 278 52.5 q145 0 257 -45 q112 -45 204 -127 l-31 -45 q-8 -12 -25 -12 q-12 0 -39 22 q-27 22 -75 48.5 q-48 26.5 -119.5 48.5 q-71.5 22 -171.5 22 q-128 0 -234.5 -44 q-106.5 -44 -183 -126 q-76.5 -82 -119.5 -200 q-43 -118 -43 -265 q0 -150 43.5 -268 q43.5 -118 119.5 -199.5 q76 -81.5 179.5 -125 q103.5 -43.5 223.5 -43.5 q76 0 135.5 10 q59.5 10 109.5 30 q50 20 93 49 q43 29 85 68 q5 4 10 6.5 q5 2.5 10 2.5 q10 0 17 -7 l40 -43 Z" /><glyph glyph-name="" unicode="d" d="M1401 708 q0 -164 -49 -295 q-49 -131 -138 -223 q-89 -92 -213.5 -141 q-124.5 -49 -274.5 -49 l-517 0 l0 1415 l517 0 q150 0 274.5 -49 q124.5 -49 213.5 -141 q89 -92 138 -223 q49 -131 49 -294 ZM1295 708 q0 148 -41 264 q-41 116 -116 196 q-75 80 -180 122 q-105 42 -232 42 l-414 0 l0 -1249 l414 0 q127 0 232 42 q105 42 180 122 q75 80 116 196 q41 116 41 265 Z" /><glyph glyph-name="" unicode="ð" d="M739 83 q128 0 233 42 q105 42 179.5 122 q74.5 80 115.5 196 q41 116 41 265 q0 148 -41 264 q-41 116 -115.5 196 q-74.5 80 -179.5 122 q-105 42 -233 42 l-413 0 l0 -583 l319 0 l0 -64 l-319 0 l0 -602 l413 0 ZM739 1415 q151 0 275 -49 q124 -49 213 -141 q89 -92 138 -223 q49 -131 49 -294 q0 -164 -49 -295 q-49 -131 -138 -223 q-89 -92 -213 -141 q-124 -49 -275 -49 l-516 0 l0 685 l-216 0 l0 64 l216 0 l0 666 l516 0 Z" /><glyph glyph-name="" unicode="e" d="M1059 85 l-2 -85 l-848 0 l0 1415 l848 0 l0 -85 l-745 0 l0 -572 l620 0 l0 -83 l-620 0 l0 -590 l747 0 Z" /><glyph glyph-name="" unicode="&#x118;" d="M1089 -285 q-28 -24 -70.5 -38.5 q-42.5 -14.5 -88.5 -14.5 q-77 0 -123.5 37.5 q-46.5 37.5 -46.5 103.5 q0 31 11.5 59 q11.5 28 30.5 53 q19 25 44 46.5 q25 21.5 51 38.5 l-688 0 l0 1415 l848 0 l0 -85 l-745 0 l0 -572 l620 0 l0 -83 l-620 0 l0 -590 l747 0 l-2 -85 l-90 0 q-20 -11 -43.5 -28 q-23.5 -17 -43.5 -39.5 q-20 -22.5 -33 -50 q-13 -27.5 -13 -58.5 q0 -48 32 -74.5 q32 -26.5 82 -26.5 q28 0 47 5.5 q19 5.5 31.5 11.5 q12.5 6 20.5 11.5 q8 5.5 13 5.5 q8 0 13 -8 l16 -34 Z" /><glyph glyph-name="" unicode="f" d="M312 1330 l0 -595 l645 0 l0 -85 l-645 0 l0 -650 l-103 0 l0 1415 l848 0 l0 -85 l-745 0 Z" /><glyph glyph-name="" unicode="g" d="M1339 642 l0 -503 q-106 -75 -226 -115 q-120 -40 -270 -40 q-168 0 -302 51.5 q-134 51.5 -228.5 146 q-94.5 94.5 -145 228.5 q-50.5 134 -50.5 298 q0 164 49.5 297.5 q49.5 133.5 142 228 q92.5 94.5 223.5 146 q131 51.5 295 51.5 q81 0 149.5 -11 q68.5 -11 127.5 -32.5 q59 -21.5 110 -53 q51 -31.5 98 -72.5 l-28 -44 q-14 -24 -42 -11 q-15 6 -43 28 q-28 22 -77 46 q-49 24 -121.5 43 q-72.5 19 -176.5 19 q-138 0 -249.5 -44 q-111.5 -44 -190 -126 q-78.5 -82 -121 -200 q-42.5 -118 -42.5 -265 q0 -149 42.5 -268 q42.5 -119 123 -202 q80.5 -83 195.5 -127 q115 -44 259 -44 q63 0 116.5 8 q53.5 8 102 22.5 q48.5 14.5 94 36 q45.5 21.5 92.5 48.5 l0 381 l-271 0 q-11 0 -18.5 7 q-7.5 7 -7.5 16 l0 56 l390 0 Z" /><glyph glyph-name="" unicode="h" d="M1301 1415 l0 -1415 l-103 0 l0 678 l-886 0 l0 -678 l-103 0 l0 1415 l103 0 l0 -660 l886 0 l0 660 l103 0 Z" /><glyph glyph-name="" unicode="&#x126;" d="M1202 1040 l-886 0 l0 -285 l886 0 l0 285 ZM1483 1040 l-178 0 l0 -1040 l-103 0 l0 678 l-886 0 l0 -678 l-103 0 l0 1040 l-177 0 l0 63 l177 0 l0 312 l103 0 l0 -312 l886 0 l0 312 l103 0 l0 -312 l178 0 l0 -63 Z" /><glyph glyph-name="" unicode="i" d="M312 0 l-103 0 l0 1415 l103 0 l0 -1415 Z" /><glyph glyph-name="" unicode="&#x12e;" d="M423 -285 q-28 -24 -70.5 -38.5 q-42.5 -14.5 -88.5 -14.5 q-77 0 -123.5 37.5 q-46.5 37.5 -46.5 103.5 q0 31 11.5 59 q11.5 28 30.5 53 q19 25 44 46.5 q25 21.5 51 38.5 l-21 0 l0 1415 l103 0 l0 -1415 l-12 0 q-20 -11 -43.5 -28 q-23.5 -17 -43.5 -39.5 q-20 -22.5 -33 -50 q-13 -27.5 -13 -58.5 q0 -48 32 -74.5 q32 -26.5 82 -26.5 q28 0 47 5.5 q19 5.5 31.5 11.5 q12.5 6 20.5 11.5 q8 5.5 13 5.5 q8 0 13 -8 l16 -34 Z" /><glyph glyph-name="" unicode="j" d="M634 472 q0 -119 -29 -210 q-29 -91 -84 -153 q-55 -62 -133 -93.5 q-78 -31.5 -176 -31.5 q-45 0 -91 7 q-46 7 -95 22 q1 14 2.5 28 q1.5 14 3.5 28 q2 9 7.5 16 q5.5 7 19.5 7 q9 0 21.5 -3.5 q12.5 -3.5 29.5 -7.5 q17 -4 40 -7.5 q23 -3.5 53 -3.5 q76 0 137 24 q61 24 104 73.5 q43 49.5 65.5 125 q22.5 75.5 22.5 177.5 l0 945 l102 0 l0 -943 Z" /><glyph glyph-name="" unicode="k" d="M312 762 l84 0 q19 0 33 1.5 q14 1.5 25.5 5.5 q11.5 4 21 11.5 q9.5 7.5 20.5 18.5 l571 587 q15 17 29.5 23 q14.5 6 34.5 6 l82 0 l-618 -635 q-19 -20 -33.5 -31 q-14.5 -11 -32.5 -18 q21 -6 38 -18.5 q17 -12.5 34 -32.5 l651 -680 l-83 0 q-26 0 -37.5 6.5 q-11.5 6.5 -22.5 20.5 l-598 612 q-11 11 -20.5 19 q-9.5 8 -21 13.5 q-11.5 5.5 -27 8 q-15.5 2.5 -39.5 2.5 l-91 0 l0 -682 l-103 0 l0 1415 l103 0 l0 -653 Z" /><glyph glyph-name="" unicode="l" d="M982 87 l0 -87 l-773 0 l0 1415 l103 0 l0 -1328 l670 0 Z" /><glyph glyph-name="" unicode="&#x141;" d="M1006 87 l0 -87 l-773 0 l0 585 l-194 -100 l0 67 q0 11 3.5 17.5 q3.5 6.5 14.5 11.5 l176 94 l0 740 l103 0 l0 -693 l417 217 l0 -66 q0 -11 -4 -18.5 q-4 -7.5 -15 -12.5 l-398 -210 l0 -545 l670 0 Z" /><glyph glyph-name="" unicode="m" d="M1607 1415 l0 -1415 l-89 0 l0 1206 q0 26 3 55 l-557 -989 q-14 -26 -40 -26 l-16 0 q-26 0 -40 26 l-572 991 q3 -30 3 -57 l0 -1206 l-90 0 l0 1415 l71 0 q14 0 22 -3 q8 -3 16 -16 l571 -984 q15 -28 26 -60 q6 16 13 31.5 q7 15.5 15 29.5 l555 983 q8 13 16.5 16 q8.5 3 22.5 3 l70 0 Z" /><glyph glyph-name="" unicode="n" d="M1301 1415 l0 -1415 l-48 0 q-13 0 -21.5 4.5 q-8.5 4.5 -16.5 15.5 l-919 1228 q3 -30 3 -57 l0 -1191 l-90 0 l0 1415 l51 0 q14 0 21.5 -3.5 q7.5 -3.5 16.5 -15.5 l917 -1225 q-3 30 -3 57 l0 1187 l89 0 Z" /><glyph glyph-name="" unicode="&#x14a;" d="M1301 1415 l0 -1449 q0 -75 -17 -135.5 q-17 -60.5 -51.5 -102.5 q-34.5 -42 -87 -64.5 q-52.5 -22.5 -123.5 -22.5 q-41 0 -75.5 7.5 q-34.5 7.5 -72.5 23.5 l10 39 q3 14 9.5 17.5 q6.5 3.5 14.5 3.5 q9 0 35 -9 q26 -9 71 -9 q95 0 146 60.5 q51 60.5 51 181.5 l0 69 l-915 1223 q3 -30 3 -57 l0 -1191 l-90 0 l0 1415 l51 0 q14 0 21.5 -3.5 q7.5 -3.5 16.5 -15.5 l917 -1225 q-3 30 -3 57 l0 1187 l89 0 Z" /><glyph glyph-name="" unicode="o" d="M1466 708 q0 -164 -49 -297.5 q-49 -133.5 -138 -228 q-89 -94.5 -213.5 -146 q-124.5 -51.5 -274.5 -51.5 q-150 0 -274 51.5 q-124 51.5 -213 146 q-89 94.5 -138 228 q-49 133.5 -49 297.5 q0 163 49 296.5 q49 133.5 138 228 q89 94.5 213 146.5 q124 52 274 52 q150 0 274.5 -51.5 q124.5 -51.5 213.5 -146.5 q89 -95 138 -228.5 q49 -133.5 49 -296.5 ZM1360 708 q0 148 -41 266 q-41 118 -116 200 q-75 82 -180 125.5 q-105 43.5 -232 43.5 q-126 0 -231 -43.5 q-105 -43.5 -180.5 -125.5 q-75.5 -82 -117 -200 q-41.5 -118 -41.5 -266 q0 -149 41.5 -266.5 q41.5 -117.5 117 -199.5 q75.5 -82 180.5 -125 q105 -43 231 -43 q127 0 232 43 q105 43 180 125 q75 82 116 199.5 q41 117.5 41 266.5 Z" /><glyph glyph-name="" unicode="ø" d="M451 178 q70 -51 155 -77.5 q85 -26.5 185 -26.5 q127 0 232 43 q105 43 180 125 q75 82 116 199.5 q41 117.5 41 266.5 q0 152 -43 271.5 q-43 119.5 -121 201.5 l-745 -1003 ZM1148 1226 q-72 57 -161.5 87 q-89.5 30 -195.5 30 q-126 0 -231 -43.5 q-105 -43.5 -180.5 -125.5 q-75.5 -82 -117 -200 q-41.5 -118 -41.5 -266 q0 -160 47 -282.5 q47 -122.5 133 -204.5 l747 1005 ZM1254 1258 q101 -95 156.5 -234.5 q55.5 -139.5 55.5 -315.5 q0 -164 -49 -297.5 q-49 -133.5 -138 -228 q-89 -94.5 -213.5 -146 q-124.5 -51.5 -274.5 -51.5 q-115 0 -214.5 30.5 q-99.5 30.5 -180.5 87.5 l-131 -176 q-13 -17 -29.5 -24.5 q-16.5 -7.5 -33.5 -7.5 l-43 0 l185 249 q-108 96 -167.5 238.5 q-59.5 142.5 -59.5 325.5 q0 163 49 296.5 q49 133.5 138 228 q89 94.5 213 146.5 q124 52 274 52 q121 0 225 -33.5 q104 -33.5 187 -96.5 l111 149 q11 16 20.5 23 q9.5 7 28.5 7 l55 0 l-164 -222 Z" /><glyph glyph-name="" unicode="&#x152;" d="M738 73 q115 0 209.5 43.5 q94.5 43.5 162 125 q67.5 81.5 104.5 199.5 q37 118 37 267 q0 148 -37 266 q-37 118 -104.5 200.5 q-67.5 82.5 -162 126.5 q-94.5 44 -209.5 44 q-114 0 -209 -44 q-95 -44 -162.5 -126.5 q-67.5 -82.5 -105 -200.5 q-37.5 -118 -37.5 -266 q0 -149 37.5 -267 q37.5 -118 105 -199.5 q67.5 -81.5 162.5 -125 q95 -43.5 209 -43.5 ZM2100 85 l-1 -85 l-837 0 l0 334 q-37 -82 -90.5 -146.5 q-53.5 -64.5 -121.5 -109 q-68 -44.5 -149.5 -68 q-81.5 -23.5 -174.5 -23.5 q-135 0 -246.5 51 q-111.5 51 -191.5 145.5 q-80 94.5 -124.5 227.5 q-44.5 133 -44.5 297 q0 163 44.5 296.5 q44.5 133.5 124.5 228 q80 94.5 191.5 146.5 q111.5 52 246.5 52 q93 0 174.5 -23.5 q81.5 -23.5 149.5 -68.5 q68 -45 121.5 -110 q53.5 -65 90.5 -147 l0 333 l837 0 l0 -85 l-745 0 l0 -572 l620 0 l0 -83 l-620 0 l0 -590 l746 0 Z" /><glyph glyph-name="" unicode="p" d="M575 652 q93 0 167 26 q74 26 125.5 72 q51.5 46 79 108.5 q27.5 62.5 27.5 136.5 q0 163 -100 251 q-100 88 -299 88 l-263 0 l0 -682 l263 0 ZM575 1415 q249 0 375.5 -109 q126.5 -109 126.5 -311 q0 -93 -35 -171 q-35 -78 -100 -134.5 q-65 -56.5 -158 -88 q-93 -31.5 -209 -31.5 l-263 0 l0 -570 l-103 0 l0 1415 l366 0 Z" /><glyph glyph-name="" unicode="þ" d="M575 368 q93 0 167 26 q74 26 125.5 72 q51.5 46 79 108.5 q27.5 62.5 27.5 136.5 q0 163 -100 250.5 q-100 87.5 -299 87.5 l-263 0 l0 -681 l263 0 ZM575 1131 q249 0 375.5 -109 q126.5 -109 126.5 -311 q0 -93 -35 -171 q-35 -78 -100 -134.5 q-65 -56.5 -158 -88 q-93 -31.5 -209 -31.5 l-263 0 l0 -286 l-103 0 l0 1415 l103 0 l0 -284 l263 0 Z" /><glyph glyph-name="" unicode="q" d="M221 708 q0 -149 41.5 -266.5 q41.5 -117.5 117 -199.5 q75.5 -82 180.5 -125 q105 -43 231 -43 q127 0 232 43 q105 43 180 125 q75 82 116 199.5 q41 117.5 41 266.5 q0 148 -41 266 q-41 118 -116 200 q-75 82 -180 125.5 q-105 43.5 -232 43.5 q-126 0 -231 -43.5 q-105 -43.5 -180.5 -125.5 q-75.5 -82 -117 -200 q-41.5 -118 -41.5 -266 ZM1524 -312 l-86 0 q-39 0 -64 25 l-302 326 q-63 -26 -133 -40 q-70 -14 -148 -14 q-150 0 -274 51.5 q-124 51.5 -213 146 q-89 94.5 -138 228 q-49 133.5 -49 297.5 q0 163 49 296.5 q49 133.5 138 228 q89 94.5 213 146.5 q124 52 274 52 q150 0 274.5 -51.5 q124.5 -51.5 213.5 -146.5 q89 -95 138 -228.5 q49 -133.5 49 -296.5 q0 -107 -21.5 -201.5 q-21.5 -94.5 -61.5 -174 q-40 -79.5 -97.5 -142.5 q-57.5 -63 -129.5 -108 l368 -394 Z" /><glyph glyph-name="" unicode="r" d="M557 716 q94 0 168.5 22.5 q74.5 22.5 126 64.5 q51.5 42 78.5 101 q27 59 27 133 q0 151 -98.5 224 q-98.5 73 -287.5 73 l-259 0 l0 -618 l245 0 ZM1185 0 l-88 0 q-17 0 -28.5 5.5 q-11.5 5.5 -21.5 20.5 l-454 574 q-8 11 -16.5 19 q-8.5 8 -19 12.5 q-10.5 4.5 -25 6.5 q-14.5 2 -35.5 2 l-185 0 l0 -640 l-103 0 l0 1415 l362 0 q244 0 365.5 -94.5 q121.5 -94.5 121.5 -277.5 q0 -81 -28 -148 q-28 -67 -80.5 -117.5 q-52.5 -50.5 -127 -82.5 q-74.5 -32 -167.5 -43 q24 -15 43 -40 l487 -612 Z" /><glyph glyph-name="" unicode="s" d="M896 1243 q-9 -17 -26 -17 q-13 0 -33.5 18.5 q-20.5 18.5 -55.5 41 q-35 22.5 -87.5 41.5 q-52.5 19 -129.5 19 q-77 0 -135.5 -22 q-58.5 -22 -98 -60 q-39.5 -38 -60 -88 q-20.5 -50 -20.5 -105 q0 -72 30.5 -119 q30.5 -47 80.5 -80 q50 -33 113.5 -55.5 q63.5 -22.5 130.5 -44.5 q67 -22 130.5 -48.5 q63.5 -26.5 113.5 -66.5 q50 -40 80.5 -98.5 q30.5 -58.5 30.5 -145.5 q0 -89 -30.5 -167.5 q-30.5 -78.5 -88.5 -136.5 q-58 -58 -142 -91.5 q-84 -33.5 -192 -33.5 q-140 0 -241 49.5 q-101 49.5 -177 135.5 l28 44 q12 15 28 15 q9 0 23 -12 q14 -12 34 -29.5 q20 -17.5 48 -38 q28 -20.5 65 -38 q37 -17.5 85 -29.5 q48 -12 109 -12 q84 0 150 25.5 q66 25.5 111.5 69.5 q45.5 44 69.5 104.5 q24 60.5 24 129.5 q0 75 -30.5 123.5 q-30.5 48.5 -80.5 81 q-50 32.5 -113.5 54.5 q-63.5 22 -130.5 43 q-67 21 -130.5 47 q-63.5 26 -113.5 66.5 q-50 40.5 -80.5 101 q-30.5 60.5 -30.5 151.5 q0 71 27 137 q27 66 79 116.5 q52 50.5 128.5 81 q76.5 30.5 174.5 30.5 q110 0 197.5 -35 q87.5 -35 159.5 -107 l-24 -46 Z" /><glyph glyph-name="" unicode="&#x15e;" d="M896 1243 q-9 -17 -26 -17 q-13 0 -33.5 18.5 q-20.5 18.5 -55.5 41 q-35 22.5 -87.5 41.5 q-52.5 19 -129.5 19 q-77 0 -135.5 -22 q-58.5 -22 -98 -60 q-39.5 -38 -60 -88 q-20.5 -50 -20.5 -105 q0 -72 30.5 -119 q30.5 -47 80.5 -80 q50 -33 113.5 -55.5 q63.5 -22.5 130.5 -44.5 q67 -22 130.5 -48.5 q63.5 -26.5 113.5 -66.5 q50 -40 80.5 -98.5 q30.5 -58.5 30.5 -145.5 q0 -82 -25.5 -155 q-25.5 -73 -75 -129.5 q-49.5 -56.5 -121.5 -93.5 q-72 -37 -164 -47 l-24 -82 q91 -15 137.5 -45.5 q46.5 -30.5 46.5 -89.5 q0 -30 -13.5 -54 q-13.5 -24 -38 -40.5 q-24.5 -16.5 -58.5 -25 q-34 -8.5 -74 -8.5 q-41 0 -80 11.5 q-39 11.5 -65 30.5 l10 28 q6 11 16 11 q5 0 13.5 -5.5 q8.5 -5.5 22 -11.5 q13.5 -6 33.5 -11.5 q20 -5.5 49 -5.5 q52 0 80 22 q28 22 28 59 q0 25 -13 42 q-13 17 -36.5 27.5 q-23.5 10.5 -56 17 q-32.5 6.5 -71.5 11.5 l37 115 l-10 0 q-140 0 -241 49.5 q-101 49.5 -177 135.5 l28 44 q12 15 28 15 q9 0 23 -12 q14 -12 34 -29.5 q20 -17.5 48 -38 q28 -20.5 65 -38 q37 -17.5 85 -29.5 q48 -12 109 -12 q84 0 150 25.5 q66 25.5 111.5 69.5 q45.5 44 69.5 104.5 q24 60.5 24 129.5 q0 75 -30.5 123.5 q-30.5 48.5 -80.5 81 q-50 32.5 -113.5 54.5 q-63.5 22 -130.5 43 q-67 21 -130.5 47 q-63.5 26 -113.5 66.5 q-50 40.5 -80.5 101 q-30.5 60.5 -30.5 151.5 q0 71 27 137 q27 66 79 116.5 q52 50.5 128.5 81 q76.5 30.5 174.5 30.5 q110 0 197.5 -35 q87.5 -35 159.5 -107 l-24 -46 Z" /><glyph glyph-name="" unicode="t" d="M1129 1328 l-497 0 l0 -1328 l-103 0 l0 1328 l-500 0 l0 87 l1100 0 l0 -87 Z" /><glyph glyph-name="" unicode="&#x166;" d="M649 1328 l0 -478 l342 0 l0 -64 l-342 0 l0 -786 l-103 0 l0 786 l-344 0 l0 64 l344 0 l0 478 l-500 0 l0 87 l1100 0 l0 -87 l-497 0 Z" /><glyph glyph-name="" unicode="u" d="M727 73 q102 0 182.5 35.5 q80.5 35.5 136.5 98.5 q56 63 85.5 148.5 q29.5 85.5 29.5 184.5 l0 875 l102 0 l0 -875 q0 -117 -37 -218.5 q-37 -101.5 -106.5 -177 q-69.5 -75.5 -169 -118.5 q-99.5 -43 -223.5 -43 q-124 0 -223.5 43 q-99.5 43 -169 118.5 q-69.5 75.5 -106.5 177 q-37 101.5 -37 218.5 l0 875 l103 0 l0 -874 q0 -99 29.5 -184.5 q29.5 -85.5 85 -148.5 q55.5 -63 136 -99 q80.5 -36 182.5 -36 Z" /><glyph glyph-name="" unicode="&#x172;" d="M1263 1415 l0 -875 q0 -109 -32.5 -205 q-32.5 -96 -93 -170 q-60.5 -74 -148 -121 q-87.5 -47 -197.5 -58 q-20 -12 -41.5 -28.5 q-21.5 -16.5 -39 -38 q-17.5 -21.5 -29 -47.5 q-11.5 -26 -11.5 -55 q0 -48 32 -74.5 q32 -26.5 82 -26.5 q28 0 47 5.5 q19 5.5 31.5 11.5 q12.5 6 20.5 11.5 q8 5.5 13 5.5 q8 0 13 -8 l16 -34 q-28 -24 -70.5 -38.5 q-42.5 -14.5 -88.5 -14.5 q-77 0 -123.5 37.5 q-46.5 37.5 -46.5 103.5 q0 28 10 54.5 q10 26.5 27 50.5 q17 24 39 44.5 q22 20.5 46 37.5 q-122 1 -220 45 q-98 44 -166.5 119 q-68.5 75 -105 176 q-36.5 101 -36.5 217 l0 875 l103 0 l0 -874 q0 -99 29.5 -184.5 q29.5 -85.5 85 -148.5 q55.5 -63 136 -99 q80.5 -36 182.5 -36 q102 0 182.5 35.5 q80.5 35.5 136.5 98.5 q56 63 85.5 148.5 q29.5 85.5 29.5 184.5 l0 875 l102 0 Z" /><glyph glyph-name="" unicode="v" d="M1285 1415 l-584 -1415 l-91 0 l-584 1415 l81 0 q14 0 23 -7.5 q9 -7.5 14 -19.5 l482 -1174 q8 -22 16 -47 q8 -25 15 -51 q6 26 13 51 q7 25 16 47 l481 1174 q4 11 14 19 q10 8 24 8 l80 0 Z" /><glyph glyph-name="" unicode="w" d="M1986 1415 l-445 -1415 l-92 0 l-418 1228 q-8 25 -14 52 q-6 -27 -14 -52 l-419 -1228 l-91 0 l-446 1415 l85 0 q29 0 37 -27 l357 -1163 q11 -40 20 -91 q5 26 10 48.5 q5 22.5 12 42.5 l400 1163 q4 11 14 19 q10 8 24 8 l28 0 q14 0 23 -7.5 q9 -7.5 14 -19.5 l400 -1163 q7 -19 12.5 -42 q5.5 -23 10.5 -48 q5 25 9.5 47.5 q4.5 22.5 9.5 42.5 l357 1163 q3 11 13.5 19 q10.5 8 24.5 8 l78 0 Z" /><glyph glyph-name="" unicode="x" d="M1204 0 l-101 0 q-14 0 -22 8.5 q-8 8.5 -13 16.5 l-446 653 q-4 -15 -14 -30 l-438 -623 q-7 -9 -14.5 -17 q-7.5 -8 -19.5 -8 l-96 0 l512 726 l-489 689 l101 0 q14 0 20.5 -6 q6.5 -6 11.5 -14 l430 -619 q6 15 15 30 l415 588 q5 9 12.5 15 q7.5 6 17.5 6 l98 0 l-489 -683 l509 -732 Z" /><glyph glyph-name="" unicode="y" d="M646 583 l0 -583 l-102 0 l0 583 l-524 832 l90 0 q14 0 23 -6.5 q9 -6.5 15 -18.5 l405 -650 q13 -23 24 -44.5 q11 -21.5 19 -42.5 q8 21 18 42.5 q10 21.5 23 44.5 l405 650 q5 11 14.5 18 q9.5 7 23.5 7 l90 0 l-524 -832 Z" /><glyph glyph-name="" unicode="z" d="M1118 1380 q0 -19 -14 -41 l-898 -1254 l905 0 l0 -85 l-1042 0 l0 37 q0 11 3.5 19.5 q3.5 8.5 8.5 16.5 l900 1257 l-886 0 l0 85 l1023 0 l0 -35 Z" /><glyph glyph-name="" unicode="a" d="M721 481 q-142 -5 -244.5 -22.5 q-102.5 -17.5 -169 -47.5 q-66.5 -30 -98.5 -71.5 q-32 -41.5 -32 -94.5 q0 -50 16.5 -86.5 q16.5 -36.5 44 -60 q27.5 -23.5 63.5 -34.5 q36 -11 75 -11 q58 0 106.5 12.5 q48.5 12.5 90 35 q41.5 22.5 77.5 53.5 q36 31 71 67 l0 260 ZM136 854 q78 78 164 118 q86 40 195 40 q80 0 140 -25.5 q60 -25.5 99.5 -73 q39.5 -47.5 59.5 -115 q20 -67.5 20 -150.5 l0 -648 l-38 0 q-30 0 -37 28 l-14 128 q-41 -40 -81.5 -72 q-40.5 -32 -84.5 -54 q-44 -22 -95 -34 q-51 -12 -112 -12 q-51 0 -99 15 q-48 15 -85.5 46 q-37.5 31 -60 79.5 q-22.5 48.5 -22.5 116.5 q0 63 36 117 q36 54 113 94 q77 40 197.5 64 q120.5 24 289.5 28 l0 104 q0 138 -59.5 212.5 q-59.5 74.5 -176.5 74.5 q-72 0 -122.5 -20 q-50.5 -20 -85.5 -44 q-35 -24 -57 -44 q-22 -20 -37 -20 q-11 0 -18 5 q-7 5 -12 13 l-17 29 Z" /><glyph glyph-name="" unicode="&#x105;" d="M721 481 q-142 -5 -244.5 -22.5 q-102.5 -17.5 -169 -47.5 q-66.5 -30 -98.5 -71.5 q-32 -41.5 -32 -94.5 q0 -50 16.5 -86.5 q16.5 -36.5 44 -60 q27.5 -23.5 63.5 -34.5 q36 -11 75 -11 q58 0 106.5 12.5 q48.5 12.5 90 35 q41.5 22.5 77.5 53.5 q36 31 71 67 l0 260 ZM936 -285 q-28 -24 -70.5 -38.5 q-42.5 -14.5 -88.5 -14.5 q-77 0 -123.5 37.5 q-46.5 37.5 -46.5 103.5 q0 32 12.5 61.5 q12.5 29.5 33 55 q20.5 25.5 47 47.5 q26.5 22 53.5 39 q-9 5 -14 22 l-14 128 q-41 -40 -81.5 -72 q-40.5 -32 -84.5 -54 q-44 -22 -95 -34 q-51 -12 -112 -12 q-51 0 -99 15 q-48 15 -85.5 46 q-37.5 31 -60 79.5 q-22.5 48.5 -22.5 116.5 q0 63 36 117 q36 54 113 94 q77 40 197.5 64 q120.5 24 289.5 28 l0 104 q0 138 -59.5 212.5 q-59.5 74.5 -176.5 74.5 q-72 0 -122.5 -20 q-50.5 -20 -85.5 -44 q-35 -24 -57 -44 q-22 -20 -37 -20 q-11 0 -18 5 q-7 5 -12 13 l-17 29 q78 78 164 118 q86 40 195 40 q80 0 140 -25.5 q60 -25.5 99.5 -73 q39.5 -47.5 59.5 -115 q20 -67.5 20 -150.5 l0 -648 q-20 -11 -43.5 -28 q-23.5 -17 -43.5 -39.5 q-20 -22.5 -33 -50 q-13 -27.5 -13 -58.5 q0 -48 32 -74.5 q32 -26.5 82 -26.5 q28 0 47 5.5 q19 5.5 31.5 11.5 q12.5 6 20.5 11.5 q8 5.5 13 5.5 q8 0 13 -8 l16 -34 Z" /><glyph glyph-name="" unicode="æ" d="M1417 578 q0 85 -21 152.5 q-21 67.5 -58 114 q-37 46.5 -88 71 q-51 24.5 -112 24.5 q-72 0 -129.5 -26 q-57.5 -26 -98.5 -73 q-41 -47 -65.5 -114 q-24.5 -67 -30.5 -149 l603 0 ZM723 516 q-142 -5 -244.5 -25.5 q-102.5 -20.5 -169 -53.5 q-66.5 -33 -98 -77.5 q-31.5 -44.5 -31.5 -97.5 q0 -56 16.5 -95.5 q16.5 -39.5 46.5 -64.5 q30 -25 71 -37 q41 -12 90 -12 q66 0 124 22 q58 22 101.5 64.5 q43.5 42.5 68.5 104.5 q25 62 25 141 l0 131 ZM138 854 q77 78 160.5 118 q83.5 40 190.5 40 q126 0 198 -64.5 q72 -64.5 95 -176.5 q23 55 57.5 99.5 q34.5 44.5 79.5 75.5 q45 31 100.5 48 q55.5 17 120.5 17 q75 0 141 -30 q66 -30 115 -87.5 q49 -57.5 77 -142.5 q28 -85 28 -196 q0 -22 -5.5 -30 q-5.5 -8 -19.5 -8 l-664 0 q0 -112 24 -197 q24 -85 68 -142 q44 -57 106 -86 q62 -29 138 -29 q71 0 121 16.5 q50 16.5 84 36 q34 19.5 53 36 q19 16.5 29 16.5 q14 0 22 -10 l24 -30 q-23 -30 -60 -56 q-37 -26 -82 -44.5 q-45 -18.5 -95.5 -29.5 q-50.5 -11 -102.5 -11 q-130 0 -225 69 q-95 69 -142 206 q-20 -77 -62.5 -130 q-42.5 -53 -96.5 -86 q-54 -33 -114.5 -47.5 q-60.5 -14.5 -115.5 -14.5 q-63 0 -117 15.5 q-54 15.5 -94 48.5 q-40 33 -63 85 q-23 52 -23 125 q0 64 36 120.5 q36 56.5 113 99.5 q77 43 197 70 q120 27 289 31 l0 69 q0 138 -59.5 213.5 q-59.5 75.5 -176.5 75.5 q-72 0 -122.5 -20.5 q-50.5 -20.5 -85.5 -44.5 q-35 -24 -57 -44.5 q-22 -20.5 -37 -20.5 q-11 0 -18 5 q-7 5 -12 13 l-17 29 Z" /><glyph glyph-name="" unicode="b" d="M260 217 q58 -86 127.5 -120.5 q69.5 -34.5 156.5 -34.5 q89 0 155.5 32 q66.5 32 111 91.5 q44.5 59.5 66.5 144.5 q22 85 22 191 q0 206 -82 310 q-82 104 -230 104 q-106 0 -185 -51 q-79 -51 -142 -142 l0 -525 ZM260 822 q65 88 152 138.5 q87 50.5 202 50.5 q90 0 161 -33 q71 -33 120.5 -95 q49.5 -62 75.5 -152.5 q26 -90.5 26 -205.5 q0 -121 -29 -220.5 q-29 -99.5 -84.5 -170 q-55.5 -70.5 -135.5 -109 q-80 -38.5 -183 -38.5 q-106 0 -180.5 40.5 q-74.5 40.5 -128.5 120.5 l-7 -123 q-3 -25 -27 -25 l-58 0 l0 1455 l96 0 l0 -633 Z" /><glyph glyph-name="" unicode="c" d="M833 862 q-5 -5 -9.5 -8.5 q-4.5 -3.5 -12.5 -3.5 q-10 0 -27 13.5 q-17 13.5 -46 29.5 q-29 16 -72.5 29.5 q-43.5 13.5 -105.5 13.5 q-86 0 -152.5 -30.5 q-66.5 -30.5 -112.5 -87.5 q-46 -57 -69.5 -138 q-23.5 -81 -23.5 -182 q0 -105 24.5 -186 q24.5 -81 69.5 -136.5 q45 -55.5 109 -84.5 q64 -29 142 -29 q72 0 120.5 17 q48.5 17 80 37 q31.5 20 49.5 37 q18 17 30 17 q12 0 20 -10 l25 -32 q-23 -30 -58 -56 q-35 -26 -79 -45 q-44 -19 -95.5 -29.5 q-51.5 -10.5 -107.5 -10.5 q-95 0 -173.5 34.5 q-78.5 34.5 -135 100 q-56.5 65.5 -88 160.5 q-31.5 95 -31.5 216 q0 114 30 208 q30 94 88 162 q58 68 141.5 105.5 q83.5 37.5 191.5 37.5 q97 0 172 -31 q75 -31 131 -84 l-25 -34 Z" /><glyph glyph-name="" unicode="ç" d="M872 128 q-43 -56 -122 -94 q-79 -38 -179 -46 l-26 -82 q91 -15 137.5 -45.5 q46.5 -30.5 46.5 -89.5 q0 -30 -13.5 -54 q-13.5 -24 -38 -40.5 q-24.5 -16.5 -58.5 -25 q-34 -8.5 -74 -8.5 q-41 0 -80 11.5 q-39 11.5 -65 30.5 l10 28 q6 11 16 11 q5 0 13.5 -5.5 q8.5 -5.5 22 -11.5 q13.5 -6 33.5 -11.5 q20 -5.5 49 -5.5 q52 0 80 22 q28 22 28 59 q0 25 -13 42 q-13 17 -36.5 27.5 q-23.5 10.5 -56 17 q-32.5 6.5 -71.5 11.5 l38 118 q-91 4 -166 40 q-75 36 -129 101.5 q-54 65.5 -84 158.5 q-30 93 -30 211 q0 114 30 208 q30 94 88 162 q58 68 141.5 105.5 q83.5 37.5 191.5 37.5 q97 0 172 -31 q75 -31 131 -84 l-25 -34 q-5 -5 -9.5 -8.5 q-4.5 -3.5 -12.5 -3.5 q-10 0 -27 13.5 q-17 13.5 -46 29.5 q-29 16 -72.5 29.5 q-43.5 13.5 -105.5 13.5 q-86 0 -152.5 -30.5 q-66.5 -30.5 -112.5 -87.5 q-46 -57 -69.5 -138 q-23.5 -81 -23.5 -182 q0 -105 24.5 -186 q24.5 -81 69.5 -136.5 q45 -55.5 109 -84.5 q64 -29 142 -29 q72 0 120.5 17 q48.5 17 80 37 q31.5 20 49.5 37 q18 17 30 17 q12 0 20 -10 l25 -32 Z" /><glyph glyph-name="" unicode="d" d="M843 781 q-57 86 -126.5 121 q-69.5 35 -158.5 35 q-88 0 -154 -32 q-66 -32 -110.5 -90.5 q-44.5 -58.5 -67 -140 q-22.5 -81.5 -22.5 -179.5 q0 -222 81.5 -326.5 q81.5 -104.5 235.5 -104.5 q98 0 179 51 q81 51 143 143 l0 523 ZM938 1455 l0 -1455 l-52 0 q-26 0 -30 26 l-10 157 q-66 -90 -154 -143 q-88 -53 -198 -53 q-184 0 -286 127 q-102 127 -102 381 q0 109 28.5 203.5 q28.5 94.5 83.5 164 q55 69.5 135.5 109.5 q80.5 40 185.5 40 q101 0 175 -37 q74 -37 129 -110 l0 590 l95 0 Z" /><glyph glyph-name="" unicode="&#x111;" d="M843 772 q-58 85 -127.5 120 q-69.5 35 -157.5 35 q-88 0 -154 -31.5 q-66 -31.5 -110.5 -89 q-44.5 -57.5 -67 -138 q-22.5 -80.5 -22.5 -178.5 q0 -222 82 -324 q82 -102 235 -102 q99 0 179 51 q80 51 143 142 l0 515 ZM1092 1157 l-153 0 l0 -1157 l-53 0 q-25 0 -29 26 l-10 157 q-66 -90 -154.5 -143 q-88.5 -53 -198.5 -53 q-92 0 -164 31 q-72 31 -121.5 93.5 q-49.5 62.5 -76 157 q-26.5 94.5 -26.5 221.5 q0 109 28.5 202.5 q28.5 93.5 84 162.5 q55.5 69 136 108 q80.5 39 185.5 39 q101 0 175 -37 q74 -37 128 -109 l0 301 l-248 0 l0 64 l248 0 l0 234 l96 0 l0 -234 l153 0 l0 -64 Z" /><glyph glyph-name="" unicode="ð" d="M544 63 q88 0 155 34.5 q67 34.5 113.5 99.5 q46.5 65 71.5 158 q25 93 28 209 q-16 51 -45 101.5 q-29 50.5 -73.5 90.5 q-44.5 40 -103.5 65 q-59 25 -135 25 q-88 0 -154.5 -30 q-66.5 -30 -111 -83 q-44.5 -53 -67 -124.5 q-22.5 -71.5 -22.5 -153.5 q0 -93 27.5 -166 q27.5 -73 75 -123 q47.5 -50 110 -76.5 q62.5 -26.5 131.5 -26.5 ZM713 1237 q63 -46 115.5 -107.5 q52.5 -61.5 91 -140.5 q38.5 -79 59.5 -176 q21 -97 21 -214 q0 -138 -28.5 -250.5 q-28.5 -112.5 -85.5 -193 q-57 -80.5 -143 -124 q-86 -43.5 -201 -43.5 q-91 0 -170.5 32.5 q-79.5 32.5 -139 93 q-59.5 60.5 -93.5 147 q-34 86.5 -34 194.5 q0 96 29 181 q29 85 84.5 148.5 q55.5 63.5 136.5 100 q81 36.5 184 36.5 q53 0 106.5 -13.5 q53.5 -13.5 103 -42 q49.5 -28.5 92.5 -72.5 q43 -44 75 -104 q-8 90 -29.5 165.5 q-21.5 75.5 -55.5 137 q-34 61.5 -79 110 q-45 48.5 -100 86.5 l-165 -146 l-17 28 q-8 10 -7 20.5 q1 10.5 12 18.5 l127 110 q-60 33 -127 56 q-67 23 -141 38 q-12 3 -21.5 14 q-9.5 11 -2.5 31 l11 34 q91 -14 178 -43.5 q87 -29.5 166 -78.5 l152 135 l18 -29 q14 -22 -8 -39 l-114 -100 Z" /><glyph glyph-name="" unicode="e" d="M862 598 q0 80 -22.5 143.5 q-22.5 63.5 -63.5 107.5 q-41 44 -97.5 67.5 q-56.5 23.5 -124.5 23.5 q-77 0 -138 -24 q-61 -24 -105.5 -69 q-44.5 -45 -71.5 -108 q-27 -63 -36 -141 l659 0 ZM198 537 l0 -19 q0 -112 26 -197 q26 -85 74 -142.5 q48 -57.5 116 -86.5 q68 -29 152 -29 q75 0 130 16.5 q55 16.5 92.5 37 q37.5 20.5 59.5 37 q22 16.5 32 16.5 q13 0 20 -10 l26 -32 q-24 -30 -63.5 -56 q-39.5 -26 -88 -44.5 q-48.5 -18.5 -104 -29.5 q-55.5 -11 -111.5 -11 q-102 0 -186 35.5 q-84 35.5 -144 103.5 q-60 68 -92.5 166.5 q-32.5 98.5 -32.5 225.5 q0 107 30.5 197.5 q30.5 90.5 88 156 q57.5 65.5 141 102.5 q83.5 37 189.5 37 q84 0 156 -29 q72 -29 125 -84.5 q53 -55.5 83.5 -136.5 q30.5 -81 30.5 -186 q0 -22 -6 -30 q-6 -8 -20 -8 l-724 0 Z" /><glyph glyph-name="" unicode="&#x119;" d="M862 598 q0 80 -22.5 143.5 q-22.5 63.5 -63.5 107.5 q-41 44 -97.5 67.5 q-56.5 23.5 -124.5 23.5 q-77 0 -138 -24 q-61 -24 -105.5 -69 q-44.5 -45 -71.5 -108 q-27 -63 -36 -141 l659 0 ZM198 537 l0 -19 q0 -112 26 -197 q26 -85 74 -142.5 q48 -57.5 116 -86.5 q68 -29 152 -29 q75 0 130 16.5 q55 16.5 92.5 37 q37.5 20.5 59.5 37 q22 16.5 32 16.5 q13 0 20 -10 l26 -32 q-19 -23 -47.5 -44 q-28.5 -21 -63 -38 q-34.5 -17 -74.5 -30 q-40 -13 -83 -20 q-20 -12 -42 -29 q-22 -17 -40.5 -38.5 q-18.5 -21.5 -30.5 -48 q-12 -26.5 -12 -56.5 q0 -48 32 -74.5 q32 -26.5 82 -26.5 q28 0 47 5.5 q19 5.5 31.5 11.5 q12.5 6 20.5 11.5 q8 5.5 13 5.5 q8 0 13 -8 l16 -34 q-28 -24 -70.5 -38.5 q-42.5 -14.5 -88.5 -14.5 q-77 0 -123.5 37.5 q-46.5 37.5 -46.5 103.5 q0 28 9.5 54 q9.5 26 26 49 q16.5 23 37.5 43.5 q21 20.5 45 37.5 l-18 0 q-102 0 -186 35.5 q-84 35.5 -144 103.5 q-60 68 -92.5 166.5 q-32.5 98.5 -32.5 225.5 q0 107 30.5 197.5 q30.5 90.5 88 156 q57.5 65.5 141 102.5 q83.5 37 189.5 37 q84 0 156 -29 q72 -29 125 -84.5 q53 -55.5 83.5 -136.5 q30.5 -81 30.5 -186 q0 -22 -6 -30 q-6 -8 -20 -8 l-724 0 Z" /><glyph glyph-name="" unicode="f" d="M223 0 l0 891 l-140 9 q-28 3 -28 25 l0 39 l168 0 l0 126 q0 85 22 149.5 q22 64.5 62 107.5 q40 43 96 64.5 q56 21.5 124 21.5 q31 0 62.5 -5.5 q31.5 -5.5 56.5 -15.5 l-3 -46 q-2 -9 -8.5 -11.5 q-6.5 -2.5 -18.5 -2 q-12 0.5 -31 3 q-19 2.5 -44 2.5 q-49 0 -90.5 -14.5 q-41.5 -14.5 -71.5 -46.5 q-30 -32 -46.5 -83.5 q-16.5 -51.5 -16.5 -126.5 l0 -123 l323 0 l0 -71 l-320 0 l0 -893 l-96 0 Z" /><glyph glyph-name="" unicode="&#xfb00;" d="M223 0 l0 891 l-140 9 q-28 3 -28 25 l0 39 l168 0 l0 113 q0 85 22 149.5 q22 64.5 62 107.5 q40 43 96 64.5 q56 21.5 124 21.5 q31 0 62.5 -5 q31.5 -5 56.5 -16 l-3 -46 q-2 -9 -8.5 -11 q-6.5 -2 -18.5 -1.5 q-12 0.5 -31 3 q-19 2.5 -44 2.5 q-49 0 -90.5 -14.5 q-41.5 -14.5 -71.5 -46.5 q-30 -32 -46.5 -84 q-16.5 -52 -16.5 -127 l0 -110 l516 0 l0 131 q0 85 22 149.5 q22 64.5 62 107.5 q40 43 96 64.5 q56 21.5 124 21.5 q31 0 62.5 -5.5 q31.5 -5.5 55.5 -15.5 l-3 -46 q-1 -9 -7.5 -11.5 q-6.5 -2.5 -19 -2 q-12.5 0.5 -31 3 q-18.5 2.5 -44.5 2.5 q-49 0 -90 -14.5 q-41 -14.5 -71 -46.5 q-30 -32 -46.5 -83.5 q-16.5 -51.5 -16.5 -126.5 l0 -128 l322 0 l0 -71 l-320 0 l0 -893 l-95 0 l0 893 l-513 0 l0 -893 l-96 0 Z" /><glyph glyph-name="" unicode="&#xfb01;" d="M225 0 l0 891 l-140 9 q-28 3 -28 25 l0 39 l168 0 l0 85 q0 92 27 165.5 q27 73.5 79 125 q52 51.5 126 79 q74 27.5 169 27.5 q32 0 67.5 -5.5 q35.5 -5.5 60.5 -15.5 l-4 -48 q-2 -8 -8 -9 q-6 -1 -18 0 q-12 1 -30.5 3.5 q-18.5 2.5 -44.5 2.5 q-158 0 -244.5 -81 q-86.5 -81 -86.5 -247 l0 -82 l583 0 l0 -964 l-95 0 l0 893 l-485 0 l0 -893 l-96 0 Z" /><glyph glyph-name="" unicode="&#xfb03;" d="M225 0 l0 891 l-140 9 q-28 3 -28 25 l0 39 l168 0 l0 113 q0 85 22 149.5 q22 64.5 62 107.5 q40 43 96.5 64.5 q56.5 21.5 124.5 21.5 q31 0 62 -5 q31 -5 56 -16 l-3 -46 q-2 -9 -8 -11 q-6 -2 -18.5 -1.5 q-12.5 0.5 -31 3 q-18.5 2.5 -44.5 2.5 q-49 0 -90.5 -14.5 q-41.5 -14.5 -71.5 -46.5 q-30 -32 -46.5 -84 q-16.5 -52 -16.5 -127 l0 -110 l516 0 l0 85 q0 92 27 165.5 q27 73.5 78.5 125 q51.5 51.5 125.5 79 q74 27.5 169 27.5 q33 0 68.5 -5.5 q35.5 -5.5 59.5 -15.5 l-4 -48 q-1 -8 -7 -9 q-6 -1 -18 0 q-12 1 -31 3.5 q-19 2.5 -45 2.5 q-158 0 -244 -81 q-86 -81 -86 -247 l0 -82 l583 0 l0 -964 l-96 0 l0 893 l-485 0 l0 -893 l-95 0 l0 893 l-513 0 l0 -893 l-96 0 Z" /><glyph glyph-name="" unicode="&#xfb02;" d="M225 0 l0 891 l-140 9 q-28 3 -28 25 l0 39 l168 0 l0 65 q0 88 26 163.5 q26 75.5 76.5 130.5 q50.5 55 124.5 86 q74 31 171 31 q68 0 133.5 -6 q65.5 -6 123.5 -8 l71 0 l0 -1426 l-95 0 l0 1359 q-53 2 -112.5 6 q-59.5 4 -108.5 4 q-75 0 -134 -23.5 q-59 -23.5 -99.5 -68 q-40.5 -44.5 -62 -107.5 q-21.5 -63 -21.5 -141 l0 -65 l289 0 l0 -71 l-286 0 l0 -893 l-96 0 Z" /><glyph glyph-name="" unicode="&#xfb04;" d="M223 0 l0 891 l-140 9 q-28 3 -28 25 l0 39 l168 0 l0 113 q0 85 22 149.5 q22 64.5 62 107.5 q40 43 96 64.5 q56 21.5 124 21.5 q31 0 62.5 -5 q31.5 -5 56.5 -16 l-3 -46 q-2 -9 -8.5 -11 q-6.5 -2 -18.5 -1.5 q-12 0.5 -31 3 q-19 2.5 -44 2.5 q-49 0 -90.5 -14.5 q-41.5 -14.5 -71.5 -46.5 q-30 -32 -46.5 -84 q-16.5 -52 -16.5 -127 l0 -110 l516 0 l0 65 q0 88 26 163.5 q26 75.5 76 130.5 q50 55 124.5 86 q74.5 31 170.5 31 q69 0 134 -6 q65 -6 123 -8 l72 0 l0 -1426 l-95 0 l0 1359 q-54 2 -113.5 6 q-59.5 4 -107.5 4 q-75 0 -134 -23.5 q-59 -23.5 -99.5 -68 q-40.5 -44.5 -62 -107.5 q-21.5 -63 -21.5 -141 l0 -65 l322 0 l0 -71 l-320 0 l0 -893 l-95 0 l0 893 l-513 0 l0 -893 l-96 0 Z" /><glyph glyph-name="" unicode="g" d="M489 440 q64 0 114 18.5 q50 18.5 84 51.5 q34 33 52 79 q18 46 18 102 q0 56 -18.5 102.5 q-18.5 46.5 -53 79.5 q-34.5 33 -84 51 q-49.5 18 -112.5 18 q-63 0 -112.5 -18 q-49.5 -18 -84 -51 q-34.5 -33 -52.5 -79.5 q-18 -46.5 -18 -102.5 q0 -56 18 -102 q18 -46 52.5 -79 q34.5 -33 84 -51.5 q49.5 -18.5 112.5 -18.5 ZM861 -67 q0 47 -24.5 75.5 q-24.5 28.5 -65.5 44.5 q-41 16 -94.5 22.5 q-53.5 6.5 -112 9.5 q-58.5 3 -117.5 6 q-59 3 -111 12 q-38 -15 -70 -34.5 q-32 -19.5 -55 -44.5 q-23 -25 -36 -54.5 q-13 -29.5 -13 -63.5 q0 -44 22.5 -81.5 q22.5 -37.5 66 -65 q43.5 -27.5 106.5 -43.5 q63 -16 145 -16 q76 0 141.5 17 q65.5 17 114 48 q48.5 31 76 74 q27.5 43 27.5 94 ZM965 951 l0 -33 q0 -22 -28 -27 l-152 -11 q28 -38 43 -85 q15 -47 15 -102 q0 -72 -25.5 -130.5 q-25.5 -58.5 -72 -100 q-46.5 -41.5 -112 -64.5 q-65.5 -23 -144.5 -23 q-85 0 -155 26 q-42 -24 -66.5 -56.5 q-24.5 -32.5 -24.5 -64.5 q0 -43 30.5 -66 q30.5 -23 80 -33.5 q49.5 -10.5 113 -13.5 q63.5 -3 129.5 -6.5 q66 -3.5 129.5 -12.5 q63.5 -9 113 -31.5 q49.5 -22.5 80 -63 q30.5 -40.5 30.5 -107.5 q0 -62 -31 -119 q-31 -57 -89.5 -101 q-58.5 -44 -141.5 -70.5 q-83 -26.5 -186 -26.5 q-105 0 -184 21.5 q-79 21.5 -132.5 58 q-53.5 36.5 -80.5 84.5 q-27 48 -27 102 q0 79 52 135.5 q52 56.5 142 88.5 q-50 17 -80.5 49.5 q-30.5 32.5 -30.5 88.5 q0 21 8 44 q8 23 24 45.5 q16 22.5 39 42.5 q23 20 52 36 q-71 41 -110.5 109 q-39.5 68 -39.5 159 q0 72 25.5 130.5 q25.5 58.5 72.5 100.5 q47 42 112.5 65 q65.5 23 145.5 23 q66 0 121.5 -16 q55.5 -16 99.5 -45 l255 0 Z" /><glyph glyph-name="" unicode="h" d="M260 827 q69 84 157.5 134 q88.5 50 198.5 50 q82 0 144.5 -26 q62.5 -26 103.5 -75 q41 -49 62 -118 q21 -69 21 -156 l0 -636 l-96 0 l0 636 q0 140 -64 219.5 q-64 79.5 -195 79.5 q-97 0 -181.5 -49.5 q-84.5 -49.5 -150.5 -137.5 l0 -748 l-96 0 l0 1455 l96 0 l0 -628 Z" /><glyph glyph-name="" unicode="&#x125;" d="M487 1542 l-71 0 q-8 0 -18 3 q-10 3 -21 14 l-160 186 q-5 6 -7 11 l-8 -11 l-159 -186 q-11 -11 -21.5 -14 q-10.5 -3 -18.5 -3 l-68 0 l235 267 l82 0 l235 -267 ZM260 827 q69 84 157.5 134 q88.5 50 198.5 50 q82 0 144.5 -26 q62.5 -26 103.5 -75 q41 -49 62 -118 q21 -69 21 -156 l0 -636 l-96 0 l0 636 q0 140 -64 219.5 q-64 79.5 -195 79.5 q-97 0 -181.5 -49.5 q-84.5 -49.5 -150.5 -137.5 l0 -748 l-96 0 l0 1455 l96 0 l0 -628 Z" /><glyph glyph-name="" unicode="&#x127;" d="M259 816 q69 85 158 135 q89 50 198 50 q82 0 144.5 -26 q62.5 -26 103.5 -75 q41 -49 62 -118 q21 -69 21 -156 l0 -626 l-95 0 l0 626 q0 140 -64 219.5 q-64 79.5 -196 79.5 q-98 0 -182 -50 q-84 -50 -150 -138 l0 -737 l-95 0 l0 1180 l-166 0 l0 63 l166 0 l0 212 l95 0 l0 -212 l308 0 l0 -63 l-308 0 l0 -364 Z" /><glyph glyph-name="" unicode="i" d="M270 995 l0 -995 l-95 0 l0 995 l95 0 ZM311 1338 q0 -18 -7.5 -33.5 q-7.5 -15.5 -19.5 -27.5 q-12 -12 -28 -19 q-16 -7 -34 -7 q-18 0 -34 7 q-16 7 -28 19 q-12 12 -19 27.5 q-7 15.5 -7 33.5 q0 18 7 34.5 q7 16.5 19 28.5 q12 12 28 19 q16 7 34 7 q18 0 34 -7 q16 -7 28 -19 q12 -12 19.5 -28.5 q7.5 -16.5 7.5 -34.5 Z" /><glyph glyph-name="" unicode="&#x12f;" d="M222 1251 q-18 0 -34 7 q-16 7 -28 19 q-12 12 -19 27.5 q-7 15.5 -7 33.5 q0 18 7 34.5 q7 16.5 19 28.5 q12 12 28 19 q16 7 34 7 q18 0 34 -7 q16 -7 28 -19 q12 -12 19.5 -28.5 q7.5 -16.5 7.5 -34.5 q0 -18 -7.5 -33.5 q-7.5 -15.5 -19.5 -27.5 q-12 -12 -28 -19 q-16 -7 -34 -7 ZM385 -285 q-28 -24 -70.5 -38.5 q-42.5 -14.5 -88.5 -14.5 q-77 0 -123.5 37.5 q-46.5 37.5 -46.5 103.5 q0 31 11.5 59 q11.5 28 30.5 53 q19 25 44 46.5 q25 21.5 51 38.5 l-18 0 l0 995 l95 0 l0 -995 l-7 0 q-20 -11 -43.5 -28 q-23.5 -17 -43.5 -39.5 q-20 -22.5 -33 -50 q-13 -27.5 -13 -58.5 q0 -48 32 -74.5 q32 -26.5 82 -26.5 q28 0 47 5.5 q19 5.5 31.5 11.5 q12.5 6 20.5 11.5 q8 5.5 13 5.5 q8 0 13 -8 l16 -34 Z" /><glyph glyph-name="" unicode="&#x131;" d="M271 995 l0 -995 l-96 0 l0 995 l96 0 Z" /><glyph glyph-name="" unicode="j" d="M270 995 l0 -1122 q0 -52 -15 -96 q-15 -44 -44.5 -76.5 q-29.5 -32.5 -74 -51 q-44.5 -18.5 -104.5 -18.5 q-29 0 -52 5 q-23 5 -45 16 l5 48 q3 9 8 10.5 q5 1.5 13.5 0 q8.5 -1.5 21.5 -4 q13 -2.5 33 -2.5 q81 0 120 44 q39 44 39 125 l0 1122 l95 0 ZM311 1338 q0 -18 -7.5 -33.5 q-7.5 -15.5 -20 -27.5 q-12.5 -12 -28.5 -19 q-16 -7 -34 -7 q-18 0 -34 7 q-16 7 -28 19 q-12 12 -19 27.5 q-7 15.5 -7 33.5 q0 18 7 34.5 q7 16.5 19 28.5 q12 12 28 19 q16 7 34 7 q18 0 34 -7 q16 -7 28.5 -19 q12.5 -12 20 -28.5 q7.5 -16.5 7.5 -34.5 Z" /><glyph glyph-name="" unicode="&#x237;" d="M271 995 l0 -1122 q0 -52 -15 -96 q-15 -44 -45 -76.5 q-30 -32.5 -74.5 -51 q-44.5 -18.5 -103.5 -18.5 q-30 0 -52.5 5 q-22.5 5 -45.5 16 l6 48 q3 9 8 10.5 q5 1.5 13 0 q8 -1.5 21 -4 q13 -2.5 33 -2.5 q81 0 120 44 q39 44 39 125 l0 1122 l96 0 Z" /><glyph glyph-name="" unicode="k" d="M260 1455 l0 -887 l46 0 q14 0 26.5 4 q12.5 4 27.5 19 l399 379 q10 12 22 18.5 q12 6.5 30 6.5 l84 0 l-439 -417 q-18 -21 -39 -33 q16 -8 27.5 -18.5 q11.5 -10.5 22.5 -24.5 l461 -502 l-83 0 q-14 0 -25.5 4.5 q-11.5 4.5 -21.5 18.5 l-418 448 q-8 9 -15.5 15 q-7.5 6 -15.5 9.5 q-8 3.5 -18.5 5 q-10.5 1.5 -25.5 1.5 l-45 0 l0 -502 l-96 0 l0 1455 l96 0 Z" /><glyph glyph-name="" unicode="&#x138;" d="M260 995 l0 -427 l46 0 q14 0 26.5 4 q12.5 4 27.5 19 l399 379 q10 12 22 18.5 q12 6.5 30 6.5 l84 0 l-439 -417 q-18 -21 -39 -33 q16 -8 27.5 -18.5 q11.5 -10.5 22.5 -24.5 l461 -502 l-83 0 q-14 0 -25.5 4.5 q-11.5 4.5 -21.5 18.5 l-418 448 q-8 9 -15.5 15 q-7.5 6 -15.5 9.5 q-8 3.5 -18.5 5 q-10.5 1.5 -25.5 1.5 l-45 0 l0 -502 l-96 0 l0 995 l96 0 Z" /><glyph glyph-name="" unicode="&#x142;" d="M539 977 l0 -50 q0 -11 -3.5 -18.5 q-3.5 -7.5 -15.5 -12.5 l-180 -84 l0 -812 l-96 0 l0 774 l-196 -90 l0 51 q0 11 3.5 17.5 q3.5 6.5 14.5 11.5 l178 85 l0 606 l96 0 l0 -568 l199 90 Z" /><glyph glyph-name="" unicode="m" d="M164 0 l0 995 l53 0 q25 0 29 -25 l9 -144 q58 83 133 134 q75 51 169 51 q109 0 174.5 -63 q65.5 -63 88.5 -175 q18 61 50.5 106 q32.5 45 74.5 74.5 q42 29.5 91.5 43.5 q49.5 14 101.5 14 q74 0 133 -24.5 q59 -24.5 100 -72.5 q41 -48 63 -118 q22 -70 22 -160 l0 -636 l-95 0 l0 636 q0 146 -63 222.5 q-63 76.5 -180 76.5 q-52 0 -99.5 -19 q-47.5 -19 -84 -56.5 q-36.5 -37.5 -58 -93.5 q-21.5 -56 -21.5 -130 l0 -636 l-96 0 l0 636 q0 145 -57.5 222 q-57.5 77 -168.5 77 q-81 0 -150 -48 q-69 -48 -123 -133 l0 -754 l-96 0 Z" /><glyph glyph-name="" unicode="n" d="M255 821 q69 86 159.5 138 q90.5 52 201.5 52 q82 0 144.5 -26 q62.5 -26 103.5 -75 q41 -49 62 -118 q21 -69 21 -156 l0 -636 l-96 0 l0 636 q0 140 -64 219.5 q-64 79.5 -195 79.5 q-97 0 -181.5 -49.5 q-84.5 -49.5 -150.5 -137.5 l0 -748 l-96 0 l0 995 l53 0 q25 0 29 -25 l9 -149 Z" /><glyph glyph-name="" unicode="&#x14b;" d="M255 821 q69 86 159.5 138 q90.5 52 201.5 52 q82 0 144.5 -26 q62.5 -26 103.5 -75 q41 -49 62 -118 q21 -69 21 -156 l0 -682 q0 -75 -18 -135.5 q-18 -60.5 -53.5 -102.5 q-35.5 -42 -89 -64.5 q-53.5 -22.5 -124.5 -22.5 q-41 0 -76 7.5 q-35 7.5 -73 23.5 l10 39 q4 14 10.5 17.5 q6.5 3.5 14.5 3.5 q9 0 35 -9 q26 -9 71 -9 q95 0 146 60.5 q51 60.5 51 181.5 l0 692 q0 140 -64 219.5 q-64 79.5 -195 79.5 q-97 0 -181.5 -49.5 q-84.5 -49.5 -150.5 -137.5 l0 -748 l-96 0 l0 995 l53 0 q25 0 29 -25 l9 -149 Z" /><glyph glyph-name="" unicode="o" d="M558 1011 q107 0 191.5 -36.5 q84.5 -36.5 142.5 -103.5 q58 -67 88.5 -161.5 q30.5 -94.5 30.5 -211.5 q0 -117 -30.5 -211 q-30.5 -94 -88.5 -161 q-58 -67 -142.5 -103 q-84.5 -36 -191.5 -36 q-107 0 -191.5 36 q-84.5 36 -143 103 q-58.5 67 -89 161 q-30.5 94 -30.5 211 q0 117 30.5 211.5 q30.5 94.5 89 161.5 q58.5 67 143 103.5 q84.5 36.5 191.5 36.5 ZM558 62 q89 0 155.5 30.5 q66.5 30.5 111 87.5 q44.5 57 66.5 137.5 q22 80.5 22 180.5 q0 99 -22 180 q-22 81 -66.5 138.5 q-44.5 57.5 -111 88.5 q-66.5 31 -155.5 31 q-89 0 -155.5 -31 q-66.5 -31 -111 -88.5 q-44.5 -57.5 -67 -138.5 q-22.5 -81 -22.5 -180 q0 -100 22.5 -180.5 q22.5 -80.5 67 -137.5 q44.5 -57 111 -87.5 q66.5 -30.5 155.5 -30.5 Z" /><glyph glyph-name="" unicode="ø" d="M336 130 q87 -70 222 -70 q89 0 156.5 31 q67.5 31 112.5 88 q45 57 68 138 q23 81 23 181 q0 95 -20 172 q-20 77 -60 134 l-502 -674 ZM797 852 q-45 42 -104.5 64 q-59.5 22 -134.5 22 q-89 0 -156.5 -31.5 q-67.5 -31.5 -113 -89 q-45.5 -57.5 -68.5 -139 q-23 -81.5 -23 -180.5 q0 -104 23.5 -186 q23.5 -82 71.5 -139 l505 679 ZM890 873 q60 -67 90.5 -162 q30.5 -95 30.5 -213 q0 -117 -30.5 -211 q-30.5 -94 -88.5 -161 q-58 -67 -142.5 -103 q-84.5 -36 -191.5 -36 q-81 0 -148 20.5 q-67 20.5 -121 58.5 l-81 -109 q-12 -17 -29 -24.5 q-17 -7.5 -34 -7.5 l-38 0 l135 181 q-67 68 -102.5 167 q-35.5 99 -35.5 225 q0 117 30.5 211.5 q30.5 94.5 89 161.5 q58.5 67 143 103.5 q84.5 36.5 191.5 36.5 q88 0 159.5 -24 q71.5 -24 127.5 -70 l86 116 q11 16 20.5 22.5 q9.5 6.5 28.5 6.5 l50 0 l-140 -189 Z" /><glyph glyph-name="" unicode="&#x153;" d="M1556 578 q0 85 -20 152.5 q-20 67.5 -56 114 q-36 46.5 -86.5 71 q-50.5 24.5 -111.5 24.5 q-72 0 -129.5 -26 q-57.5 -26 -98.5 -73 q-41 -47 -65.5 -114 q-24.5 -67 -30.5 -149 l598 0 ZM533 62 q82 0 143.5 30.5 q61.5 30.5 103 87.5 q41.5 57 62 137.5 q20.5 80.5 20.5 180.5 q0 99 -20.5 180 q-20.5 81 -62 138.5 q-41.5 57.5 -103 88.5 q-61.5 31 -143.5 31 q-83 0 -145 -31 q-62 -31 -103 -88.5 q-41 -57.5 -61.5 -138.5 q-20.5 -81 -20.5 -180 q0 -100 20.5 -180.5 q20.5 -80.5 61.5 -137.5 q41 -57 103 -87.5 q62 -30.5 145 -30.5 ZM1625 128 q-23 -30 -60 -56 q-37 -26 -82 -44.5 q-45 -18.5 -95.5 -29.5 q-50.5 -11 -102.5 -11 q-135 0 -232 75 q-97 75 -142 221 q-41 -139 -139 -217.5 q-98 -78.5 -246 -78.5 q-98 0 -176 36 q-78 36 -132.5 103 q-54.5 67 -83.5 161 q-29 94 -29 211 q0 117 29 211.5 q29 94.5 83.5 161.5 q54.5 67 133.5 103.5 q79 36.5 178 36.5 q144 0 240.5 -76.5 q96.5 -76.5 139.5 -212.5 q20 66 54 119 q34 53 81.5 91 q47.5 38 107.5 58.5 q60 20.5 132 20.5 q75 0 140 -30 q65 -30 113 -87.5 q48 -57.5 75.5 -142.5 q27.5 -85 27.5 -196 q0 -22 -5 -30 q-5 -8 -19 -8 l-660 0 q0 -112 24 -197 q24 -85 68 -142 q44 -57 106 -86 q62 -29 138 -29 q67 0 116.5 16.5 q49.5 16.5 84 37 q34.5 20.5 55 37 q20.5 16.5 31.5 16.5 q12 0 20 -10 l26 -32 Z" /><glyph glyph-name="" unicode="p" d="M260 217 q29 -43 60.5 -72.5 q31.5 -29.5 66.5 -48 q35 -18.5 74.5 -26.5 q39.5 -8 83.5 -8 q88 0 154 32 q66 32 110.5 90.5 q44.5 58.5 67 140 q22.5 81.5 22.5 179.5 q0 222 -82 326.5 q-82 104.5 -235 104.5 q-99 0 -179 -51 q-80 -51 -143 -142 l0 -525 ZM256 816 q66 90 154.5 143 q88.5 53 198.5 53 q183 0 285.5 -127 q102.5 -127 102.5 -381 q0 -109 -28.5 -203.5 q-28.5 -94.5 -84 -164 q-55.5 -69.5 -136 -109.5 q-80.5 -40 -185.5 -40 q-101 0 -175 37 q-74 37 -128 109 l0 -485 l-96 0 l0 1347 l53 0 q25 0 29 -25 l10 -154 Z" /><glyph glyph-name="" unicode="þ" d="M260 217 q29 -43 60.5 -72.5 q31.5 -29.5 66.5 -48 q35 -18.5 74.5 -26.5 q39.5 -8 83.5 -8 q88 0 154 32 q66 32 110.5 90.5 q44.5 58.5 67 140 q22.5 81.5 22.5 179.5 q0 222 -82 326.5 q-82 104.5 -235 104.5 q-99 0 -179 -51 q-80 -51 -143 -142 l0 -525 ZM260 822 q66 88 153 138.5 q87 50.5 196 50.5 q183 0 285.5 -126.5 q102.5 -126.5 102.5 -380.5 q0 -109 -28.5 -203.5 q-28.5 -94.5 -84 -164 q-55.5 -69.5 -136 -109.5 q-80.5 -40 -185.5 -40 q-102 0 -175.5 39 q-73.5 39 -127.5 115 l0 -493 l-96 0 l0 1807 l96 0 l0 -633 Z" /><glyph glyph-name="" unicode="q" d="M843 781 q-54 83 -125 119.5 q-71 36.5 -160 36.5 q-88 0 -154 -32 q-66 -32 -110.5 -90.5 q-44.5 -58.5 -67 -140 q-22.5 -81.5 -22.5 -179.5 q0 -222 81.5 -326.5 q81.5 -104.5 235.5 -104.5 q98 0 179 51 q81 51 143 143 l0 523 ZM938 995 l0 -1347 l-95 0 l0 531 q-66 -88 -153 -140 q-87 -52 -196 -52 q-184 0 -286 127 q-102 127 -102 381 q0 109 28.5 203.5 q28.5 94.5 83.5 164 q55 69.5 135.5 109.5 q80.5 40 185.5 40 q103 0 178 -38.5 q75 -38.5 130 -114.5 l9 111 q4 25 30 25 l52 0 Z" /><glyph glyph-name="" unicode="r" d="M255 755 q23 61 52.5 108.5 q29.5 47.5 68 80.5 q38.5 33 86 50.5 q47.5 17.5 105.5 17.5 q31 0 61 -5.5 q30 -5.5 53 -19.5 l-8 -66 q-5 -16 -19 -16 q-12 0 -36.5 7 q-24.5 7 -64.5 7 q-58 0 -102.5 -17.5 q-44.5 -17.5 -80 -52.5 q-35.5 -35 -62 -86.5 q-26.5 -51.5 -48.5 -118.5 l0 -644 l-96 0 l0 995 l51 0 q17 0 24 -7 q7 -7 9 -24 l7 -209 Z" /><glyph glyph-name="" unicode="s" d="M711 872 q-8 -14 -23 -14 q-11 0 -28 12.5 q-17 12.5 -45.5 28 q-28.5 15.5 -70.5 28 q-42 12.5 -102 12.5 q-54 0 -98.5 -15.5 q-44.5 -15.5 -76 -41.5 q-31.5 -26 -48.5 -60.5 q-17 -34.5 -17 -72.5 q0 -47 24 -78 q24 -31 62.5 -53 q38.5 -22 88.5 -38 q50 -16 101.5 -32 q51.5 -16 101.5 -35.5 q50 -19.5 88.5 -48.5 q38.5 -29 62.5 -71 q24 -42 24 -102 q0 -65 -23 -121 q-23 -56 -67.5 -97 q-44.5 -41 -109.5 -65 q-65 -24 -149 -24 q-105 0 -181 33.5 q-76 33.5 -136 87.5 l22 34 q5 8 11.5 12 q6.5 4 17.5 4 q13 0 31.5 -16 q18.5 -16 49.5 -34.5 q31 -18.5 76.5 -34.5 q45.5 -16 112.5 -16 q63 0 111 17.5 q48 17.5 80 47.5 q32 30 48.5 70.5 q16.5 40.5 16.5 85.5 q0 50 -24 83 q-24 33 -63 56 q-39 23 -88.5 39 q-49.5 16 -101.5 32 q-52 16 -101.5 35 q-49.5 19 -88.5 48 q-39 29 -63 70.5 q-24 41.5 -24 103.5 q0 53 23 102 q23 49 65.5 86 q42.5 37 103.5 59 q61 22 137 22 q91 0 161.5 -26 q70.5 -26 128.5 -80 l-20 -33 Z" /><glyph glyph-name="" unicode="&#x15f;" d="M711 872 q-8 -14 -23 -14 q-11 0 -28 12.5 q-17 12.5 -45.5 28 q-28.5 15.5 -70.5 28 q-42 12.5 -102 12.5 q-54 0 -98.5 -15.5 q-44.5 -15.5 -76 -41.5 q-31.5 -26 -48.5 -60.5 q-17 -34.5 -17 -72.5 q0 -47 24 -78 q24 -31 62.5 -53 q38.5 -22 88.5 -38 q50 -16 101.5 -32 q51.5 -16 101.5 -35.5 q50 -19.5 88.5 -48.5 q38.5 -29 62.5 -71 q24 -42 24 -102 q0 -62 -21.5 -116.5 q-21.5 -54.5 -63 -95.5 q-41.5 -41 -102 -66 q-60.5 -25 -138.5 -28 l-24 -79 q91 -15 137.5 -45.5 q46.5 -30.5 46.5 -89.5 q0 -30 -13.5 -54 q-13.5 -24 -38 -40.5 q-24.5 -16.5 -58.5 -25 q-34 -8.5 -74 -8.5 q-41 0 -80 11.5 q-39 11.5 -65 30.5 l10 28 q6 11 16 11 q5 0 13.5 -5.5 q8.5 -5.5 22 -11.5 q13.5 -6 33.5 -11.5 q20 -5.5 49 -5.5 q52 0 80 22 q28 22 28 59 q0 25 -13 42 q-13 17 -36.5 27.5 q-23.5 10.5 -56 17 q-32.5 6.5 -71.5 11.5 l37 116 q-92 5 -160 37.5 q-68 32.5 -124 82.5 l22 34 q5 8 11.5 12 q6.5 4 17.5 4 q13 0 31.5 -16 q18.5 -16 49.5 -34.5 q31 -18.5 76.5 -34.5 q45.5 -16 112.5 -16 q63 0 111 17.5 q48 17.5 80 47.5 q32 30 48.5 70.5 q16.5 40.5 16.5 85.5 q0 50 -24 83 q-24 33 -63 56 q-39 23 -88.5 39 q-49.5 16 -101.5 32 q-52 16 -101.5 35 q-49.5 19 -88.5 48 q-39 29 -63 70.5 q-24 41.5 -24 103.5 q0 53 23 102 q23 49 65.5 86 q42.5 37 103.5 59 q61 22 137 22 q91 0 161.5 -26 q70.5 -26 128.5 -80 l-20 -33 Z" /><glyph glyph-name="" unicode="ß" d="M606 1433 q85 0 151 -25.5 q66 -25.5 111 -66 q45 -40.5 68 -90.5 q23 -50 23 -100 q0 -62 -23.5 -108 q-23.5 -46 -59 -81.5 q-35.5 -35.5 -76.5 -63.5 q-41 -28 -76.5 -55.5 q-35.5 -27.5 -59 -56.5 q-23.5 -29 -23.5 -66 q0 -36 16.5 -60.5 q16.5 -24.5 44 -42.5 q27.5 -18 62 -33 q34.5 -15 71 -31.5 q36.5 -16.5 71 -37 q34.5 -20.5 62 -50.5 q27.5 -30 44 -71.5 q16.5 -41.5 16.5 -100.5 q0 -68 -25 -125 q-25 -57 -70 -98 q-45 -41 -108 -63.5 q-63 -22.5 -140 -22.5 q-101 0 -173.5 33.5 q-72.5 33.5 -132.5 87.5 l22 34 q5 8 11.5 12 q6.5 4 17.5 4 q13 0 31.5 -16 q18.5 -16 48.5 -34.5 q30 -18.5 74.5 -34.5 q44.5 -16 107.5 -16 q59 0 105 17.5 q46 17.5 77.5 48 q31.5 30.5 48 71.5 q16.5 41 16.5 88 q0 67 -29.5 107.5 q-29.5 40.5 -73.5 66.5 q-44 26 -95 45 q-51 19 -95 43.5 q-44 24.5 -73.5 62 q-29.5 37.5 -29.5 100.5 q0 49 24 85 q24 36 60.5 67 q36.5 31 78.5 60 q42 29 78.5 63 q36.5 34 60.5 75.5 q24 41.5 24 97.5 q0 31 -14 67.5 q-14 36.5 -45.5 68 q-31.5 31.5 -82.5 52.5 q-51 21 -124 21 q-71 0 -133.5 -21.5 q-62.5 -21.5 -109.5 -65.5 q-47 -44 -74 -112.5 q-27 -68.5 -27 -162.5 l0 -999 l-95 0 l0 1001 q0 101 33 181.5 q33 80.5 91.5 136 q58.5 55.5 140 85 q81.5 29.5 177.5 29.5 Z" /><glyph glyph-name="" unicode="&#x17f;" d="M225 1090 q0 85 22 149.5 q22 64.5 62 107.5 q40 43 96.5 64.5 q56.5 21.5 124.5 21.5 q31 0 62.5 -5.5 q31.5 -5.5 56.5 -15.5 l-4 -48 q-2 -8 -9 -9.5 q-7 -1.5 -20 0 q-13 1.5 -31 4 q-18 2.5 -41 2.5 q-49 0 -90 -15 q-41 -15 -70.5 -47.5 q-29.5 -32.5 -46 -84.5 q-16.5 -52 -16.5 -127 l0 -1087 l-96 0 l0 891 l-140 9 q-28 3 -28 25 l0 39 l168 0 l0 126 Z" /><glyph glyph-name="" unicode="t" d="M436 -16 q-101 0 -157.5 56 q-56.5 56 -56.5 173 l0 680 l-143 0 q-11 0 -18 6 q-7 6 -7 17 l0 37 l170 12 l24 356 q2 9 8 16 q6 7 17 7 l45 0 l0 -380 l314 0 l0 -71 l-314 0 l0 -675 q0 -41 10.5 -70.5 q10.5 -29.5 29 -48.5 q18.5 -19 43.5 -28 q25 -9 54 -9 q36 0 62 10.5 q26 10.5 45 23 q19 12.5 31 23 q12 10.5 19 10.5 q8 0 16 -10 l26 -42 q-38 -42 -96.5 -67.5 q-58.5 -25.5 -121.5 -25.5 Z" /><glyph glyph-name="" unicode="&#x167;" d="M70 690 l155 0 l0 203 l-143 0 q-11 0 -18 6 q-7 6 -7 17 l0 37 l170 12 l24 356 q2 9 8 16 q6 7 17 7 l45 0 l0 -380 l314 0 l0 -71 l-314 0 l0 -203 l312 0 l0 -63 l-312 0 l0 -409 q0 -41 10.5 -70.5 q10.5 -29.5 29 -48.5 q18.5 -19 43.5 -28 q25 -9 54 -9 q36 0 62 10.5 q26 10.5 45 23 q19 12.5 31 23 q12 10.5 19 10.5 q8 0 16 -10 l26 -42 q-38 -42 -96.5 -67.5 q-58.5 -25.5 -121.5 -25.5 q-101 0 -157.5 56 q-56.5 56 -56.5 173 l0 414 l-155 0 l0 63 Z" /><glyph glyph-name="" unicode="u" d="M936 995 l0 -995 l-53 0 q-25 0 -29 26 l-9 148 q-69 -86 -159.5 -138 q-90.5 -52 -201.5 -52 q-83 0 -145 26 q-62 26 -103 75 q-41 49 -62 118 q-21 69 -21 156 l0 636 l96 0 l0 -636 q0 -140 64 -219.5 q64 -79.5 195 -79.5 q97 0 181.5 49.5 q84.5 49.5 150.5 137.5 l0 748 l96 0 Z" /><glyph glyph-name="" unicode="&#x173;" d="M1058 -285 q-28 -24 -70.5 -38.5 q-42.5 -14.5 -88.5 -14.5 q-77 0 -123.5 37.5 q-46.5 37.5 -46.5 103.5 q0 31 12 59.5 q12 28.5 31.5 54 q19.5 25.5 44.5 47 q25 21.5 52 38.5 q-12 6 -15 24 l-9 148 q-69 -86 -159.5 -138 q-90.5 -52 -201.5 -52 q-83 0 -145 26 q-62 26 -103 75 q-41 49 -62 118 q-21 69 -21 156 l0 636 l96 0 l0 -636 q0 -140 64 -219.5 q64 -79.5 195 -79.5 q97 0 181.5 49.5 q84.5 49.5 150.5 137.5 l0 748 l96 0 l0 -995 q-20 -11 -43.5 -28 q-23.5 -17 -43.5 -39.5 q-20 -22.5 -33 -50 q-13 -27.5 -13 -58.5 q0 -48 32 -74.5 q32 -26.5 82 -26.5 q28 0 47 5.5 q19 5.5 31.5 11.5 q12.5 6 20.5 11.5 q8 5.5 13 5.5 q8 0 13 -8 l16 -34 Z" /><glyph glyph-name="" unicode="v" d="M963 995 l-420 -995 l-84 0 l-420 995 l75 0 q14 0 23 -7.5 q9 -7.5 12 -16.5 l329 -785 q15 -44 24 -87 q9 43 25 87 l330 785 q5 11 13.5 17.5 q8.5 6.5 20.5 6.5 l72 0 Z" /><glyph glyph-name="" unicode="w" d="M1479 995 l-332 -995 l-71 0 q-17 0 -23 21 l-272 808 q-5 15 -9 30 q-4 15 -7 30 q-5 -30 -15 -60 l-276 -808 q-6 -21 -24 -21 l-68 0 l-332 995 l72 0 q14 0 23 -7.5 q9 -7.5 12 -16.5 l251 -785 q6 -23 11 -44.5 q5 -21.5 8 -42.5 q6 21 12 42.5 q6 21.5 14 44.5 l266 792 q7 22 28 22 l39 0 q22 0 29 -22 l264 -792 q7 -23 13 -44 q6 -21 11 -42 q4 21 8.5 42 q4.5 21 11.5 44 l253 785 q4 11 13 17.5 q9 6.5 21 6.5 l69 0 Z" /><glyph glyph-name="" unicode="x" d="M894 0 l-91 0 q-14 0 -22 8.5 q-8 8.5 -13 16.5 l-302 441 q-4 -18 -15 -35 l-288 -406 q-7 -9 -14.5 -17 q-7.5 -8 -19.5 -8 l-86 0 l362 509 l-348 486 l91 0 q14 0 21 -6 q7 -6 12 -14 l292 -421 q2 8 6.5 17 q4.5 9 9.5 18 l273 385 q6 9 13 15 q7 6 18 6 l87 0 l-347 -480 l361 -515 Z" /><glyph glyph-name="" unicode="y" d="M968 995 l-572 -1315 q-6 -14 -15.5 -23 q-9.5 -9 -27.5 -9 l-68 0 l175 389 l-421 958 l79 0 q15 0 24 -7.5 q9 -7.5 12 -16.5 l335 -774 q6 -15 10.5 -30.5 q4.5 -15.5 8.5 -31.5 q5 16 10.5 31.5 q5.5 15.5 11.5 30.5 l331 774 q5 11 14 17.5 q9 6.5 20 6.5 l73 0 Z" /><glyph glyph-name="" unicode="z" d="M817 995 l0 -40 q0 -21 -14 -38 l-623 -842 l612 0 l0 -75 l-727 0 l0 38 q0 17 15 37 l625 845 l-607 0 l0 75 l719 0 Z" /><glyph glyph-name="" unicode="ª" d="M511 1115 q-168 -5 -243.5 -39.5 q-75.5 -34.5 -75.5 -90.5 q0 -27 9.5 -46.5 q9.5 -19.5 26 -32 q16.5 -12.5 37.5 -18 q21 -5.5 44 -5.5 q33 0 61 7 q28 7 52.5 19.5 q24.5 12.5 46 29.5 q21.5 17 42.5 37 l0 139 ZM156 1337 q48 48 101 70.5 q53 22.5 120 22.5 q101 0 153 -58.5 q52 -58.5 52 -156.5 l0 -376 l-32 0 q-11 0 -16 4 q-5 4 -10 15 l-10 68 q-25 -23 -49.5 -41 q-24.5 -18 -51 -30 q-26.5 -12 -57 -18.5 q-30.5 -6.5 -66.5 -6.5 q-33 0 -63 9 q-30 9 -53 27.5 q-23 18.5 -37 47 q-14 28.5 -14 67.5 q0 36 21 68.5 q21 32.5 67.5 57.5 q46.5 25 120.5 40 q74 15 179 17 l0 51 q0 76 -34 115.5 q-34 39.5 -107 39.5 q-43 0 -72.5 -11 q-29.5 -11 -49.5 -23.5 q-20 -12.5 -33.5 -23.5 q-13.5 -11 -24.5 -11 q-8 0 -13 4 q-5 4 -9 9 l-12 23 Z" /><glyph glyph-name="" unicode="º" d="M405 1429 q67 0 119.5 -21 q52.5 -21 89.5 -60.5 q37 -39.5 56.5 -95 q19.5 -55.5 19.5 -124.5 q0 -69 -19.5 -124.5 q-19.5 -55.5 -56.5 -95 q-37 -39.5 -89.5 -60.5 q-52.5 -21 -119.5 -21 q-67 0 -120.5 21 q-53.5 21 -90.5 60.5 q-37 39.5 -56.5 95 q-19.5 55.5 -19.5 124.5 q0 69 19.5 124.5 q19.5 55.5 56.5 95 q37 39.5 90.5 60.5 q53.5 21 120.5 21 ZM405 885 q105 0 157.5 64.5 q52.5 64.5 52.5 178.5 q0 113 -52.5 178 q-52.5 65 -157.5 65 q-106 0 -159 -65 q-53 -65 -53 -178 q0 -114 53 -178.5 q53 -64.5 159 -64.5 Z" /><glyph glyph-name="" unicode="`" d="M286 1431 q24 0 36 -7 q12 -7 23 -25 l157 -238 l-55 0 q-12 0 -20.5 3.5 q-8.5 3.5 -16.5 13.5 l-216 253 l92 0 Z" /><glyph glyph-name="" unicode="´" d="M625 1431 l-217 -253 q-8 -10 -16.5 -13.5 q-8.5 -3.5 -20.5 -3.5 l-57 0 l157 238 q11 18 23 25 q12 7 36 7 l95 0 Z" /><glyph glyph-name="" unicode="&#x2c6;" d="M660 1169 l-65 0 q-15 0 -29 14 l-154 166 q-3 3 -5.5 6 q-2.5 3 -5.5 7 q-3 -4 -5.5 -7 q-2.5 -3 -5.5 -6 l-154 -166 q-6 -6 -13.5 -10 q-7.5 -4 -15.5 -4 l-67 0 l217 246 l85 0 l218 -246 Z" /><glyph glyph-name="" unicode="&#x2c7;" d="M660 1415 l-218 -246 l-85 0 l-217 246 l67 0 q16 0 27 -11 l156 -168 q3 -3 6 -6 q3 -3 5 -7 q3 4 5.5 7 q2.5 3 5.5 6 l156 168 q11 11 27 11 l65 0 Z" /><glyph glyph-name="" unicode="&#x315;" d="M449 1457 q15 0 19.5 -7.5 q4.5 -7.5 4.5 -19.5 q0 -11 -3.5 -28.5 q-3.5 -17.5 -11 -47 q-7.5 -29.5 -20.5 -72 q-13 -42.5 -31 -102.5 q-5 -14 -13.5 -19.5 q-8.5 -5.5 -23.5 -5.5 l-32 0 l51 302 l60 0 Z" /><glyph glyph-name="" unicode="&#x2dc;" d="M514 1280 q44 0 65.5 27.5 q21.5 27.5 23.5 74.5 l59 0 q0 -36 -9.5 -67.5 q-9.5 -31.5 -28 -54.5 q-18.5 -23 -45.5 -36 q-27 -13 -62 -13 q-33 0 -62 16.5 q-29 16.5 -56 36 q-27 19.5 -52.5 36 q-25.5 16.5 -51.5 16.5 q-42 0 -64.5 -28.5 q-22.5 -28.5 -23.5 -73.5 l-61 0 q0 36 10 67.5 q10 31.5 29 54.5 q19 23 46 36 q27 13 61 13 q34 0 63 -16.5 q29 -16.5 55.5 -36 q26.5 -19.5 52 -36 q25.5 -16.5 51.5 -16.5 Z" /><glyph glyph-name="" unicode="¨" d="M306 1284 q0 -16 -7 -30.5 q-7 -14.5 -18.5 -25.5 q-11.5 -11 -26.5 -17.5 q-15 -6.5 -31 -6.5 q-17 0 -31.5 6.5 q-14.5 6.5 -26 17.5 q-11.5 11 -18 25.5 q-6.5 14.5 -6.5 30.5 q0 17 6.5 32 q6.5 15 18 26.5 q11.5 11.5 26 18 q14.5 6.5 31.5 6.5 q16 0 31 -6.5 q15 -6.5 26.5 -18 q11.5 -11.5 18.5 -26.5 q7 -15 7 -32 ZM658 1284 q0 -16 -7 -30.5 q-7 -14.5 -18 -25.5 q-11 -11 -26 -17.5 q-15 -6.5 -31 -6.5 q-17 0 -32 6.5 q-15 6.5 -26 17.5 q-11 11 -17.5 25.5 q-6.5 14.5 -6.5 30.5 q0 34 24 58.5 q24 24.5 58 24.5 q16 0 31 -6.5 q15 -6.5 26 -18 q11 -11.5 18 -26.5 q7 -15 7 -32 Z" /><glyph glyph-name="" unicode="¯&#x2c9;" d="M127 1317 l545 0 l0 -65 l-545 0 l0 65 Z" /><glyph glyph-name="" unicode="&#x2d8;" d="M400 1168 q-66 0 -111.5 19.5 q-45.5 19.5 -74 53.5 q-28.5 34 -41.5 79 q-13 45 -13 95 l69 0 q0 -37 8.5 -70 q8.5 -33 29 -58 q20.5 -25 53 -39.5 q32.5 -14.5 80.5 -14.5 q48 0 80.5 14.5 q32.5 14.5 52.5 39.5 q20 25 28.5 58 q8.5 33 8.5 70 l69 0 q0 -50 -12.5 -95 q-12.5 -45 -41 -79 q-28.5 -34 -74 -53.5 q-45.5 -19.5 -111.5 -19.5 Z" /><glyph glyph-name="" unicode="&#x2da;" d="M228 1302 q0 36 13.5 66 q13.5 30 37 51.5 q23.5 21.5 54.5 34 q31 12.5 66 12.5 q36 0 67.5 -12.5 q31.5 -12.5 55 -34 q23.5 -21.5 37 -51.5 q13.5 -30 13.5 -66 q0 -36 -13.5 -65.5 q-13.5 -29.5 -37 -51.5 q-23.5 -22 -55 -34 q-31.5 -12 -67.5 -12 q-35 0 -66 12 q-31 12 -54.5 34 q-23.5 22 -37 51.5 q-13.5 29.5 -13.5 65.5 ZM286 1302 q0 -50 31.5 -82 q31.5 -32 82.5 -32 q50 0 82 32 q32 32 32 82 q0 50 -32 82 q-32 32 -82 32 q-51 0 -82.5 -32 q-31.5 -32 -31.5 -82 Z" /><glyph glyph-name="" unicode="&#x2dd;" d="M509 1431 l-199 -253 q-7 -10 -16 -13.5 q-9 -3.5 -21 -3.5 l-42 0 l152 238 q11 18 23 25 q12 7 36 7 l67 0 ZM781 1431 l-232 -253 q-8 -10 -16.5 -13.5 q-8.5 -3.5 -20.5 -3.5 l-47 0 l182 238 q13 17 24 24.5 q11 7.5 35 7.5 l75 0 Z" /><glyph glyph-name="" unicode="&#x2d9;" d="M489 1350 q0 -18 -7.5 -33.5 q-7.5 -15.5 -20 -27.5 q-12.5 -12 -28.5 -19 q-16 -7 -34 -7 q-18 0 -34 7 q-16 7 -28 19 q-12 12 -19 27.5 q-7 15.5 -7 33.5 q0 18 7 34.5 q7 16.5 19 28.5 q12 12 28 19 q16 7 34 7 q18 0 34 -7 q16 -7 28.5 -19 q12.5 -12 20 -28.5 q7.5 -16.5 7.5 -34.5 Z" /><glyph glyph-name="" unicode="¸" d="M403 -94 q91 -15 137.5 -45.5 q46.5 -30.5 46.5 -89.5 q0 -30 -13.5 -54 q-13.5 -24 -38 -40.5 q-24.5 -16.5 -58.5 -25 q-34 -8.5 -74 -8.5 q-41 0 -80 11.5 q-39 11.5 -65 30.5 l10 28 q6 11 16 11 q5 0 13.5 -5.5 q8.5 -5.5 22 -11.5 q13.5 -6 33.5 -11.5 q20 -5.5 49 -5.5 q52 0 80 22 q28 22 28 59 q0 25 -13 42 q-13 17 -36.5 27.5 q-23.5 10.5 -56 17 q-32.5 6.5 -71.5 11.5 l46 143 l56 0 l-32 -106 Z" /><glyph glyph-name="" unicode="&#x2db;" d="M546 -243 q8 0 13 -8 l16 -34 q-28 -24 -70.5 -38.5 q-42.5 -14.5 -88.5 -14.5 q-77 0 -123.5 37.5 q-46.5 37.5 -46.5 103.5 q0 34 14 64.5 q14 30.5 36.5 57.5 q22.5 27 50.5 49 q28 22 57 39 l49 -13 q-20 -11 -43.5 -28 q-23.5 -17 -43.5 -39.5 q-20 -22.5 -33 -50 q-13 -27.5 -13 -58.5 q0 -48 32 -74.5 q32 -26.5 82 -26.5 q28 0 47 5.5 q19 5.5 31.5 11.5 q12.5 6 20.5 11.5 q8 5.5 13 5.5 Z" /><glyph glyph-name="" unicode="&#x393;" d="M1057 1333 l-745 0 l0 -1333 l-103 0 l0 1415 l848 0 l0 -82 Z" /><glyph glyph-name="" unicode="&#x394;" d="M146 83 l1010 0 l-474 1146 q-8 19 -15.5 41.5 q-7.5 22.5 -14.5 48.5 q-7 -26 -14.5 -48.5 q-7.5 -22.5 -15.5 -42.5 l-476 -1145 ZM1258 96 q6 -16 10 -32 q4 -16 4 -32 l0 -32 l-1234 0 l0 29 q0 31 13 64 l554 1322 l101 0 l552 -1319 Z" /><glyph glyph-name="" unicode="&#x398;" d="M494 764 l595 0 l0 -84 l-595 0 l0 84 ZM1466 708 q0 -164 -49 -297.5 q-49 -133.5 -138 -228 q-89 -94.5 -213.5 -146 q-124.5 -51.5 -274.5 -51.5 q-150 0 -274 51.5 q-124 51.5 -213 146 q-89 94.5 -138 228 q-49 133.5 -49 297.5 q0 163 49 296.5 q49 133.5 138 228 q89 94.5 213 146.5 q124 52 274 52 q150 0 274.5 -51.5 q124.5 -51.5 213.5 -146.5 q89 -95 138 -228.5 q49 -133.5 49 -296.5 ZM1360 708 q0 148 -41 266 q-41 118 -116 200 q-75 82 -180 125.5 q-105 43.5 -232 43.5 q-126 0 -231 -43.5 q-105 -43.5 -180.5 -125.5 q-75.5 -82 -117 -200 q-41.5 -118 -41.5 -266 q0 -149 41.5 -266.5 q41.5 -117.5 117 -199.5 q75.5 -82 180.5 -125 q105 -43 231 -43 q127 0 232 43 q105 43 180 125 q75 82 116 199.5 q41 117.5 41 266.5 Z" /><glyph glyph-name="" unicode="&#x39b;" d="M1284 0 l-86 0 q-14 0 -23 7.5 q-9 7.5 -14 19.5 l-482 1175 q-8 22 -16 46.5 q-8 24.5 -15 50.5 q-6 -26 -13 -50.5 q-7 -24.5 -16 -46.5 l-481 -1175 q-4 -11 -14 -19 q-10 -8 -24 -8 l-75 0 l584 1415 l91 0 l584 -1415 Z" /><glyph glyph-name="" unicode="&#x39e;" d="M1140 1415 l0 -87 l-1044 0 l0 87 l1044 0 ZM1140 87 l0 -87 l-1044 0 l0 87 l1044 0 ZM342 767 l545 0 l0 -90 l-545 0 l0 90 Z" /><glyph glyph-name="" unicode="&#x3a0;" d="M1301 0 l-103 0 l0 1333 l-886 0 l0 -1333 l-103 0 l0 1415 l1092 0 l0 -1415 Z" /><glyph glyph-name="" unicode="&#x3a3;" d="M298 1333 q-35 0 -63.5 2.5 q-28.5 2.5 -58.5 8.5 q31 -20 54.5 -40.5 q23.5 -20.5 47.5 -50.5 l379 -487 q16 -18 21 -29.5 q5 -11.5 5 -21.5 q0 -11 -5 -24 q-5 -13 -21 -32 l-397 -504 q-26 -31 -44 -49.5 q-18 -18.5 -37 -31.5 q29 4 56 6 q27 2 53 2 l830 0 l0 -82 l-1044 0 l0 38 q0 12 6 24 q6 12 14 21 l501 623 l-507 634 q-6 7 -10 15.5 q-4 8.5 -4 16.5 l0 43 l1044 0 l0 -82 l-820 0 Z" /><glyph glyph-name="" unicode="&#x3a6;" d="M858 157 q132 1 238 45.5 q106 44.5 180.5 120 q74.5 75.5 114.5 176.5 q40 101 40 214 q0 113 -40 214 q-40 101 -114.5 176.5 q-74.5 75.5 -180.5 120 q-106 44.5 -238 45.5 l0 -1112 ZM760 1269 q-132 -1 -238 -45.5 q-106 -44.5 -180.5 -120 q-74.5 -75.5 -114.5 -176.5 q-40 -101 -40 -214 q0 -113 40 -214 q40 -101 114.5 -176.5 q74.5 -75.5 180.5 -120 q106 -44.5 238 -45.5 l0 1112 ZM858 1350 q159 -1 284 -52 q125 -51 211.5 -138 q86.5 -87 132 -202.5 q45.5 -115.5 45.5 -244.5 q0 -129 -45.5 -244.5 q-45.5 -115.5 -132 -202 q-86.5 -86.5 -211.5 -137.5 q-125 -51 -284 -52 l0 -194 l-98 0 l0 194 q-159 1 -284 52 q-125 51 -211.5 137.5 q-86.5 86.5 -132 202 q-45.5 115.5 -45.5 244.5 q0 129 47 244.5 q47 115.5 134 202.5 q87 87 211.5 138 q124.5 51 280.5 52 l0 183 l98 0 l0 -183 Z" /><glyph glyph-name="" unicode="&#x3a8;" d="M1474 1415 l0 -500 q0 -128 -41 -230 q-41 -102 -120.5 -175 q-79.5 -73 -196.5 -113 q-117 -40 -270 -43 l0 -354 l-103 0 l0 354 q-153 3 -270 43 q-117 40 -196.5 113 q-79.5 73 -120 175 q-40.5 102 -40.5 230 l0 500 l66 0 q18 0 27.5 -11 q9.5 -11 9.5 -27 l0 -462 q0 -111 33 -199 q33 -88 98.5 -149 q65.5 -61 163.5 -94.5 q98 -33.5 229 -36.5 l0 979 l103 0 l0 -979 q262 6 393.5 131 q131.5 125 131.5 348 l0 462 q0 16 9 27 q9 11 27 11 l67 0 Z" /><glyph glyph-name="" unicode="&#x3a9;" d="M1469 88 l0 -52 q0 -16 -10 -26 q-10 -10 -27 -10 l-508 0 l0 121 q96 20 177 76.5 q81 56.5 139.5 140 q58.5 83.5 91.5 190 q33 106.5 33 226.5 q0 145 -47 255 q-47 110 -125 183.5 q-78 73.5 -180.5 111 q-102.5 37.5 -213.5 37.5 q-111 0 -213.5 -37.5 q-102.5 -37.5 -180.5 -111 q-78 -73.5 -125 -183.5 q-47 -110 -47 -255 q0 -120 33 -226.5 q33 -106.5 91.5 -190 q58.5 -83.5 139.5 -140 q81 -56.5 177 -76.5 l0 -121 l-509 0 q-17 0 -27 10 q-10 10 -10 26 l0 52 l355 0 q26 0 54.5 -2.5 q28.5 -2.5 56.5 -7.5 q-96 27 -180.5 87.5 q-84.5 60.5 -147.5 148 q-63 87.5 -99 199.5 q-36 112 -36 242 q0 159 54 284.5 q54 125.5 145.5 212 q91.5 86.5 212.5 132.5 q121 46 256 46 q135 0 256 -46 q121 -46 212.5 -132.5 q91.5 -86.5 145.5 -212 q54 -125.5 54 -284.5 q0 -130 -36 -242 q-36 -112 -99 -199.5 q-63 -87.5 -147.5 -148 q-84.5 -60.5 -180.5 -87.5 q28 5 56.5 7.5 q28.5 2.5 54.5 2.5 l354 0 Z" /><glyph glyph-name="" unicode="&#x3b1;" d="M864 699 q-15 46 -41.5 89 q-26.5 43 -65 76 q-38.5 33 -89 53 q-50.5 20 -114.5 20 q-73 0 -137 -28.5 q-64 -28.5 -112 -85 q-48 -56.5 -75.5 -141 q-27.5 -84.5 -27.5 -196.5 q0 -106 25 -185 q25 -79 67.5 -131.5 q42.5 -52.5 98.5 -79 q56 -26.5 118 -26.5 q59 0 113.5 23.5 q54.5 23.5 98 70 q43.5 46.5 73 115.5 q29.5 69 38.5 161 l30 265 ZM1138 66 l0 -39 q0 -13 -20 -23.5 q-20 -10.5 -59 -10.5 q-42 0 -80.5 12.5 q-38.5 12.5 -68.5 39 q-30 26.5 -50 68.5 q-20 42 -25 101 q-29 -57 -66.5 -99.5 q-37.5 -42.5 -81.5 -71 q-44 -28.5 -93.5 -42.5 q-49.5 -14 -100.5 -14 q-81 0 -152 33.5 q-71 33.5 -123.5 97 q-52.5 63.5 -83 156 q-30.5 92.5 -30.5 210.5 q0 125 34 223 q34 98 93 166 q59 68 138.5 103.5 q79.5 35.5 169.5 35.5 q64 0 117.5 -17 q53.5 -17 96 -46 q42.5 -29 74.5 -67.5 q32 -38.5 53 -80.5 l22 169 q7 25 30 25 l52 0 l-58 -554 q-4 -50 -7.5 -97.5 q-3.5 -47.5 -3.5 -82.5 q0 -53 13.5 -90.5 q13.5 -37.5 38 -60.5 q24.5 -23 57.5 -33.5 q33 -10.5 72 -10.5 l42 0 Z" /><glyph glyph-name="" unicode="&#x3b2;" d="M259 218 q25 -38 53.5 -67 q28.5 -29 62 -48.5 q33.5 -19.5 74.5 -30 q41 -10.5 91 -10.5 q84 0 150 27 q66 27 112 74 q46 47 70 110.5 q24 63.5 24 136.5 q0 81 -28.5 144 q-28.5 63 -80.5 105.5 q-52 42.5 -124 64.5 q-72 22 -159 22 l-61 0 l0 75 l51 0 q62 0 118.5 15.5 q56.5 15.5 100 48 q43.5 32.5 69 84 q25.5 51.5 25.5 123.5 q0 60 -18 109.5 q-18 49.5 -52.5 84 q-34.5 34.5 -83.5 53.5 q-49 19 -112 19 q-71 0 -123.5 -25.5 q-52.5 -25.5 -88 -81.5 q-35.5 -56 -53 -144 q-17.5 -88 -17.5 -213 l0 -676 ZM163 896 q0 269 95.5 401 q95.5 132 283.5 132 q87 0 153.5 -26 q66.5 -26 111.5 -71 q45 -45 68 -105 q23 -60 23 -127 q0 -63 -18.5 -114.5 q-18.5 -51.5 -52 -91 q-33.5 -39.5 -80 -66.5 q-46.5 -27 -101.5 -41 q81 -14 145 -47 q64 -33 109 -81.5 q45 -48.5 68.5 -112.5 q23.5 -64 23.5 -140 q0 -87 -30.5 -163.5 q-30.5 -76.5 -86.5 -133 q-56 -56.5 -135.5 -89.5 q-79.5 -33 -177.5 -33 q-198 0 -303 145 l0 -524 l-96 0 l0 1288 Z" /><glyph glyph-name="" unicode="&#x3b3;" d="M998 995 q-34 -148 -75 -274 q-41 -126 -91 -238.5 q-50 -112.5 -109.5 -216 q-59.5 -103.5 -131.5 -206.5 l0 -412 l-95 0 l0 420 q-51 215 -98.5 376 q-47.5 161 -96 268.5 q-48.5 107.5 -100 161 q-51.5 53.5 -110.5 53.5 l-39 0 l0 36 q0 7 2 14 q2 7 8.5 11.5 q6.5 4.5 18 7.5 q11.5 3 30.5 3 q77 0 139.5 -48.5 q62.5 -48.5 115.5 -153 q53 -104.5 99.5 -268 q46.5 -163.5 93.5 -393.5 q119 172 198 375 q79 203 130 443 q5 24 14.5 32.5 q9.5 8.5 21.5 8.5 l75 0 Z" /><glyph glyph-name="" unicode="&#x3b4;" d="M544 62 q76 0 139 25.5 q63 25.5 108.5 73 q45.5 47.5 70.5 116 q25 68.5 25 154.5 q0 92 -28 162.5 q-28 70.5 -73.5 126 q-45.5 55.5 -103.5 98 q-58 42.5 -118 79.5 q-75 -23 -142 -60.5 q-67 -37.5 -116.5 -92 q-49.5 -54.5 -78.5 -127 q-29 -72.5 -29 -165.5 q0 -78 21.5 -148.5 q21.5 -70.5 64.5 -124 q43 -53.5 108 -85.5 q65 -32 152 -32 ZM851 1340 q-2 -16 -9.5 -20.5 q-7.5 -4.5 -22.5 -4.5 q-8 0 -34.5 5.5 q-26.5 5.5 -64 11.5 q-37.5 6 -82 11.5 q-44.5 5.5 -86.5 5.5 q-60 0 -101.5 -10 q-41.5 -10 -67 -27 q-25.5 -17 -37 -40 q-11.5 -23 -11.5 -49 q0 -43 28 -79 q28 -36 73.5 -69 q45.5 -33 103.5 -66.5 q58 -33.5 119 -72.5 q61 -39 119 -85.5 q58 -46.5 103.5 -106.5 q45.5 -60 73.5 -135.5 q28 -75.5 28 -171.5 q0 -103 -32.5 -186 q-32.5 -83 -90.5 -141.5 q-58 -58.5 -139 -90 q-81 -31.5 -177 -31.5 q-108 0 -191 36.5 q-83 36.5 -139.5 99.5 q-56.5 63 -85 147.5 q-28.5 84.5 -28.5 179.5 q0 180 103 301.5 q103 121.5 299 181.5 q-51 30 -97.5 60.5 q-46.5 30.5 -82 64 q-35.5 33.5 -56.5 73 q-21 39.5 -21 89.5 q0 40 16 77 q16 37 52.5 65.5 q36.5 28.5 95.5 45 q59 16.5 145 16.5 q30 0 67.5 -2 q37.5 -2 78 -6.5 q40.5 -4.5 81 -10.5 q40.5 -6 76.5 -13 l-6 -53 Z" /><glyph glyph-name="" unicode="&#x3b5;" d="M822 128 q-23 -30 -58 -56 q-35 -26 -78.5 -44.5 q-43.5 -18.5 -94 -29 q-50.5 -10.5 -105.5 -10.5 q-82 0 -152 21 q-70 21 -121 59 q-51 38 -80 91.5 q-29 53.5 -29 118.5 q0 91 59.5 157 q59.5 66 172.5 93 q-56 15 -95 40.5 q-39 25.5 -63.5 56.5 q-24.5 31 -35.5 65 q-11 34 -11 66 q0 48 22 93.5 q22 45.5 66.5 81.5 q44.5 36 112 58 q67.5 22 158.5 22 q106 0 183 -30.5 q77 -30.5 130 -79.5 l-22 -35 q-6 -8 -10.5 -11 q-4.5 -3 -12.5 -3 q-9 0 -27.5 13 q-18.5 13 -49.5 29 q-31 16 -77.5 29 q-46.5 13 -112.5 13 q-69 0 -119.5 -15.5 q-50.5 -15.5 -84 -42 q-33.5 -26.5 -49.5 -60 q-16 -33.5 -16 -69.5 q0 -40 19.5 -74.5 q19.5 -34.5 56.5 -60 q37 -25.5 89 -40 q52 -14.5 117 -14.5 l162 0 l0 -66 l-162 0 q-74 0 -131 -15 q-57 -15 -95.5 -42.5 q-38.5 -27.5 -58 -66 q-19.5 -38.5 -19.5 -84.5 q0 -49 21 -90 q21 -41 59 -71 q38 -30 91.5 -46.5 q53.5 -16.5 118.5 -16.5 q75 0 124.5 17 q49.5 17 82 37 q32.5 20 50.5 37 q18 17 29 17 q13 0 20 -10 l26 -32 Z" /><glyph glyph-name="" unicode="&#x3b6;" d="M777 1375 q1 -5 -1 -11.5 q-2 -6.5 -11 -18.5 q-9 -12 -27.5 -31.5 q-18.5 -19.5 -49.5 -49.5 q-85 -79 -172.5 -169 q-87.5 -90 -159 -191 q-71.5 -101 -116.5 -211.5 q-45 -110.5 -45 -230.5 q0 -81 22 -136.5 q22 -55.5 62 -93 q40 -37.5 95.5 -62.5 q55.5 -25 122.5 -44 q99 -28 157 -57 q58 -29 88 -59 q30 -30 39 -61 q9 -31 9 -62 q0 -66 -21 -120 q-21 -54 -52 -107 l-74 32 q21 37 39.5 81.5 q18.5 44.5 18.5 95.5 q0 22 -7 44.5 q-7 22.5 -31.5 44.5 q-24.5 22 -72 44 q-47.5 22 -128.5 43 q-84 23 -150.5 54 q-66.5 31 -113 77 q-46.5 46 -71.5 111.5 q-25 65.5 -25 157.5 q0 124 43.5 237.5 q43.5 113.5 120.5 223.5 q77 110 181.5 219 q104.5 109 226.5 223 q-81 -6 -176.5 -8.5 q-95.5 -2.5 -193.5 -2.5 l-106 0 q-20 0 -29 9.5 q-9 9.5 -9 21.5 l0 47 l609 0 l8 -40 Z" /><glyph glyph-name="" unicode="&#x3b7;" d="M19 970 q0 13 13.5 23.5 q13.5 10.5 45.5 10.5 q88 0 144 -43.5 q56 -43.5 69 -140.5 q70 87 163 139 q93 52 205 52 q82 0 144.5 -26 q62.5 -26 103.5 -75 q41 -49 62 -118 q21 -69 21 -156 l0 -988 l-95 0 l0 988 q0 140 -64 219.5 q-64 79.5 -196 79.5 q-98 0 -182 -50 q-84 -50 -150 -138 l0 -747 l-95 0 l0 757 q0 91 -38 132.5 q-38 41.5 -116 41.5 l-35 0 l0 39 Z" /><glyph glyph-name="" unicode="&#x3b8;" d="M230 681 q4 -308 94.5 -463.5 q90.5 -155.5 266.5 -155.5 q175 0 266 155.5 q91 155.5 95 463.5 l-722 0 ZM952 749 q-6 300 -97 453.5 q-91 153.5 -264 153.5 q-174 0 -264.5 -153.5 q-90.5 -153.5 -96.5 -453.5 l722 0 ZM591 1430 q107 0 191.5 -47 q84.5 -47 142.5 -139 q58 -92 88.5 -227 q30.5 -135 30.5 -310 q0 -176 -30.5 -310 q-30.5 -134 -88.5 -225.5 q-58 -91.5 -142.5 -138 q-84.5 -46.5 -191.5 -46.5 q-107 0 -191.5 46.5 q-84.5 46.5 -143 138 q-58.5 91.5 -89 225.5 q-30.5 134 -30.5 310 q0 175 30.5 310 q30.5 135 89 227 q58.5 92 143 139 q84.5 47 191.5 47 Z" /><glyph glyph-name="" unicode="&#x3b9;" d="M156 995 l96 0 l0 -753 q0 -89 40 -135.5 q40 -46.5 125 -46.5 l70 0 l0 -31 q0 -41 -102 -41 q-112 0 -170.5 66 q-58.5 66 -58.5 183 l0 758 Z" /><glyph glyph-name="" unicode="&#x3bb;" d="M1057 64 l0 -39 q0 -19 -14.5 -26.5 q-14.5 -7.5 -51.5 -7.5 q-35 0 -68 6.5 q-33 6.5 -62 25 q-29 18.5 -54 51 q-25 32.5 -44 84.5 l-240 614 q-12 32 -16 60 q-6 -25 -18 -56 l-308 -751 q-3 -9 -12.5 -17 q-9.5 -8 -23.5 -8 l-78 0 l393 933 l-119 311 q-11 30 -25 51 q-14 21 -33.5 34.5 q-19.5 13.5 -46.5 20 q-27 6.5 -65 6.5 l-64 0 l0 36 q0 7 3 14 q3 7 11 12 q8 5 23.5 8 q15.5 3 39.5 3 q88 0 147.5 -33 q59.5 -33 89.5 -113 l425 -1094 q26 -69 60.5 -97 q34.5 -28 90.5 -28 l60 0 Z" /><glyph glyph-name="" unicode="&#x3bc;" d="M1165 64 l0 -39 q0 -13 -20.5 -23.5 q-20.5 -10.5 -59.5 -10.5 q-42 0 -80 12 q-38 12 -68 37.5 q-30 25.5 -50 65 q-20 39.5 -25 93.5 q-66 -96 -154.5 -150.5 q-88.5 -54.5 -194.5 -54.5 q-100 0 -165.5 38.5 q-65.5 38.5 -100.5 110.5 q4 -43 5.5 -87 q1.5 -44 1.5 -80 l0 -328 l-48 0 q-20 0 -31.5 11 q-11.5 11 -11.5 31 l0 1305 l96 0 l0 -621 q0 -70 16 -126 q16 -56 48 -95 q32 -39 80.5 -59.5 q48.5 -20.5 114.5 -20.5 q105 0 189 55.5 q84 55.5 144 155.5 l0 711 l95 0 l0 -757 q0 -45 13 -78 q13 -33 36 -54.5 q23 -21.5 56 -31.5 q33 -10 72 -10 l42 0 Z" /><glyph glyph-name="" unicode="&#x3bd;" d="M954 995 q-36 -155 -79 -289 q-43 -134 -96.5 -254.5 q-53.5 -120.5 -118 -231.5 q-64.5 -111 -142.5 -220 l-59 0 l-420 995 l75 0 q14 0 23 -7.5 q9 -7.5 12 -16.5 l329 -785 q16 -45 24 -86 q124 176 206 393 q82 217 136 466 q3 20 13 28 q10 8 22 8 l75 0 Z" /><glyph glyph-name="" unicode="&#x3be;" d="M725 1376 q0 -19 -12.5 -29 q-12.5 -10 -27.5 -10 l-81 0 q-78 0 -143.5 -24.5 q-65.5 -24.5 -113 -66 q-47.5 -41.5 -73.5 -96.5 q-26 -55 -26 -116 q0 -53 21.5 -96.5 q21.5 -43.5 63 -74 q41.5 -30.5 103.5 -47.5 q62 -17 143 -17 l75 0 l0 -77 l-106 0 q-90 0 -156.5 -21.5 q-66.5 -21.5 -110.5 -60.5 q-44 -39 -65.5 -93.5 q-21.5 -54.5 -21.5 -119.5 q0 -69 25.5 -118.5 q25.5 -49.5 71 -86 q45.5 -36.5 108.5 -64 q63 -27.5 139 -52.5 q72 -24 116 -47.5 q44 -23.5 68 -49 q24 -25.5 32 -53.5 q8 -28 8 -61 q0 -68 -21 -124.5 q-21 -56.5 -52 -108.5 l-75 32 q21 37 40 81.5 q19 44.5 19 98.5 q0 24 -6 44.5 q-6 20.5 -25 39 q-19 18.5 -55.5 36 q-36.5 17.5 -96.5 35.5 q-76 22 -146.5 52 q-70.5 30 -124.5 75 q-54 45 -86.5 109 q-32.5 64 -32.5 155 q0 56 15.5 110 q15.5 54 48.5 100 q33 46 85 81.5 q52 35.5 125 55.5 q-109 33 -162 101.5 q-53 68.5 -53 159.5 q0 54 19.5 102 q19.5 48 54.5 89 q35 41 83 72.5 q48 31.5 105 52.5 q-35 -2 -75 -2.5 q-40 -0.5 -89 -0.5 l-116 0 q-38 0 -38 36 l0 38 l622 0 l0 -39 Z" /><glyph glyph-name="" unicode="&#x3c0;" d="M1118 934 q0 -31 -35 -31 l-172 0 q-1 -59 -2 -110.5 q-1 -51.5 -2 -98.5 q-1 -47 -1.5 -90.5 q-0.5 -43.5 -0.5 -86.5 q0 -147 9.5 -236 q9.5 -89 29 -136.5 q19.5 -47.5 50.5 -62.5 q31 -15 73 -15 l29 0 l0 -38 q0 -34 -77 -34 q-51 0 -89 16.5 q-38 16.5 -64 57 q-26 40.5 -39 108.5 q-13 68 -13 171 q0 89 9 229 q9 140 11 326 l-436 0 q-3 -257 -27 -431.5 q-24 -174.5 -60.5 -280.5 q-36.5 -106 -81 -151.5 q-44.5 -45.5 -89.5 -45.5 q-17 0 -31 4.5 q-14 4.5 -14 15.5 l0 66 l19 0 q26 0 59.5 44.5 q33.5 44.5 63.5 142.5 q30 98 52 254.5 q22 156.5 25 381.5 l-232 0 l0 39 q0 13 10 25.5 q10 12.5 30 12.5 l996 0 l0 -46 Z" /><glyph glyph-name="" unicode="&#x3c1;" d="M246 238 q59 -90 137 -133 q78 -43 168 -43 q88 0 154 32 q66 32 110.5 90.5 q44.5 58.5 67 140 q22.5 81.5 22.5 179.5 q0 111 -25 192 q-25 81 -69.5 134.5 q-44.5 53.5 -106 79 q-61.5 25.5 -135.5 25.5 q-68 0 -127 -24.5 q-59 -24.5 -102.5 -70.5 q-43.5 -46 -68.5 -112 q-25 -66 -25 -149 l0 -341 ZM151 579 q0 100 30.5 180 q30.5 80 85.5 136 q55 56 132 86 q77 30 170 30 q92 0 171.5 -32 q79.5 -32 138 -95.5 q58.5 -63.5 91.5 -158.5 q33 -95 33 -221 q0 -109 -28.5 -203.5 q-28.5 -94.5 -83.5 -164 q-55 -69.5 -135.5 -109.5 q-80.5 -40 -185.5 -40 q-100 0 -183 42.5 q-83 42.5 -141 117.5 l0 -499 l-95 0 l0 931 Z" /><glyph glyph-name="" unicode="&#x3c3;" d="M621 913 q-114 0 -193.5 -30 q-79.5 -30 -129.5 -85 q-50 -55 -72.5 -133 q-22.5 -78 -22.5 -175 q0 -104 24 -183.5 q24 -79.5 70 -134 q46 -54.5 112.5 -82.5 q66.5 -28 150.5 -28 q88 0 154.5 29.5 q66.5 29.5 110.5 86 q44 56.5 66.5 137.5 q22.5 81 22.5 184 q0 85 -16 155.5 q-16 70.5 -47.5 124 q-31.5 53.5 -78.5 88 q-47 34.5 -109 46.5 l-42 0 ZM1125 988 l0 -41 q0 -11 -9.5 -22.5 q-9.5 -11.5 -28.5 -11.5 l-285 0 q102 -51 155.5 -157.5 q53.5 -106.5 53.5 -260.5 q0 -113 -30 -206 q-30 -93 -87.5 -160.5 q-57.5 -67.5 -141 -104.5 q-83.5 -37 -191.5 -37 q-103 0 -187 34 q-84 34 -144 98.5 q-60 64.5 -92.5 158.5 q-32.5 94 -32.5 214 q0 113 31.5 204.5 q31.5 91.5 95 156.5 q63.5 65 160.5 100 q97 35 229 35 l504 0 Z" /><glyph glyph-name="" unicode="&#x3c2;" d="M831 862 q-5 -5 -9.5 -8.5 q-4.5 -3.5 -12.5 -3.5 q-10 0 -27 13.5 q-17 13.5 -46 29.5 q-29 16 -72.5 29.5 q-43.5 13.5 -105.5 13.5 q-86 0 -152.5 -30 q-66.5 -30 -112.5 -83.5 q-46 -53.5 -69.5 -126.5 q-23.5 -73 -23.5 -159 q0 -108 31 -179.5 q31 -71.5 85.5 -118.5 q54.5 -47 128 -77.5 q73.5 -30.5 159.5 -57.5 q72 -24 116 -47.5 q44 -23.5 68 -48.5 q24 -25 32 -53 q8 -28 8 -61 q0 -68 -21 -124.5 q-21 -56.5 -52 -109.5 l-75 32 q22 37 40.5 81.5 q18.5 44.5 18.5 98.5 q0 24 -6 44.5 q-6 20.5 -25 39.5 q-19 19 -55.5 37 q-36.5 18 -96.5 35 q-96 28 -179 63.5 q-83 35.5 -144 92 q-61 56.5 -96 140 q-35 83.5 -35 208.5 q0 101 30 188.5 q30 87.5 88 152 q58 64.5 141.5 101.5 q83.5 37 191.5 37 q97 0 172 -31 q75 -31 131 -84 l-25 -34 Z" /><glyph glyph-name="" unicode="&#x3c4;" d="M859 942 q0 -37 -36 -37 l-362 0 l0 -656 q0 -89 40 -135.5 q40 -46.5 125 -46.5 l70 0 l0 -31 q0 -19 -25.5 -30 q-25.5 -11 -76.5 -11 q-112 0 -170 66 q-58 66 -58 184 l0 660 l-329 0 l0 43 q0 14 9 23 q9 9 26 9 l787 0 l0 -38 Z" /><glyph glyph-name="" unicode="&#x3c5;" d="M898 995 q12 -62 23 -117 q11 -55 18.5 -109 q7.5 -54 12 -110 q4.5 -56 4.5 -120 q0 -145 -34.5 -250 q-34.5 -105 -92.5 -172.5 q-58 -67.5 -134 -100 q-76 -32.5 -160 -32.5 q-88 0 -159 25.5 q-71 25.5 -120.5 74 q-49.5 48.5 -76 118 q-26.5 69.5 -26.5 157.5 l0 636 l96 0 l0 -636 q0 -70 21 -125.5 q21 -55.5 59 -94 q38 -38.5 91.5 -59 q53.5 -20.5 119.5 -20.5 q59 0 117 25 q58 25 103.5 81.5 q45.5 56.5 74 148 q28.5 91.5 28.5 224.5 q0 103 -17.5 210 q-17.5 107 -39.5 210 q-2 20 7.5 28 q9.5 8 20.5 8 l64 0 Z" /><glyph glyph-name="" unicode="&#x3c6;" d="M734 60 q115 1 200.5 37 q85.5 36 141.5 99 q56 63 84 149.5 q28 86.5 28 187.5 q0 85 -22.5 158.5 q-22.5 73.5 -62 128.5 q-39.5 55 -92.5 86.5 q-53 31.5 -114 31.5 q-81 0 -122 -50 q-41 -50 -41 -156 l0 -672 ZM644 732 q0 141 64 210 q64 69 189 69 q85 0 156 -37 q71 -37 122.5 -101.5 q51.5 -64.5 80 -152 q28.5 -87.5 28.5 -187.5 q0 -118 -36.5 -218 q-36.5 -100 -106.5 -172.5 q-70 -72.5 -172.5 -113.5 q-102.5 -41 -234.5 -42 l0 -339 l-90 0 l0 339 q-132 1 -233.5 42 q-101.5 41 -170 110 q-68.5 69 -104 161.5 q-35.5 92.5 -35.5 197.5 q0 89 23 167.5 q23 78.5 66 143.5 q43 65 104 115 q61 50 137 82 l23 -39 q7 -12 2 -25.5 q-5 -13.5 -14 -17.5 q-61 -28 -107 -72.5 q-46 -44.5 -76.5 -100 q-30.5 -55.5 -46 -120 q-15.5 -64.5 -15.5 -133.5 q0 -88 27 -167 q27 -79 82.5 -139 q55.5 -60 139.5 -95.5 q84 -35.5 198 -36.5 l0 672 Z" /><glyph glyph-name="" unicode="&#x3c7;" d="M947 -289 l0 -38 q0 -20 -9.5 -27 q-9.5 -7 -40.5 -7 q-32 0 -62.5 6.5 q-30.5 6.5 -58 24.5 q-27.5 18 -53.5 50.5 q-26 32.5 -49 84.5 l-217 483 q-6 -26 -14.5 -50.5 q-8.5 -24.5 -16.5 -44.5 l-265 -518 q-4 -8 -12.5 -16 q-8.5 -8 -23.5 -8 l-66 0 l354 706 l-208 461 q-14 29 -28.5 50.5 q-14.5 21.5 -34.5 35 q-20 13.5 -47 20 q-27 6.5 -65 6.5 l-31 0 l0 36 q0 7 0.5 14 q0.5 7 5 12 q4.5 5 15 8 q10.5 3 29.5 3 q91 0 146 -34.5 q55 -34.5 90 -111.5 l201 -448 q6 26 14 51 q8 25 17 45 l235 466 q4 8 12.5 16 q8.5 8 22.5 8 l66 0 l-324 -652 l230 -507 q15 -34 31 -57.5 q16 -23.5 34.5 -38.5 q18.5 -15 40.5 -22 q22 -7 50 -7 l32 0 Z" /><glyph glyph-name="" unicode="&#x3c8;" d="M1274 995 q13 -62 24 -117 q11 -55 18.5 -109 q7.5 -54 11.5 -110 q4 -56 4 -120 q0 -100 -21.5 -179.5 q-21.5 -79.5 -60 -139.5 q-38.5 -60 -90.5 -103 q-52 -43 -113.5 -71 q-61.5 -28 -129.5 -42.5 q-68 -14.5 -137 -18.5 l0 -337 l-95 0 l0 337 q-121 4 -219.5 36.5 q-98.5 32.5 -169 91 q-70.5 58.5 -109 142.5 q-38.5 84 -38.5 192 l0 548 l64 0 q14 0 22.5 -13 q8.5 -13 8.5 -26 l0 -509 q0 -85 31.5 -153.5 q31.5 -68.5 89.5 -118.5 q58 -50 139.5 -79 q81.5 -29 180.5 -35 l0 1354 l95 0 l0 -1354 q84 5 165.5 31 q81.5 26 146.5 81.5 q65 55.5 105 144.5 q40 89 40 221 q0 60 -5.5 115 q-5.5 55 -14 106.5 q-8.5 51.5 -18.5 100.5 q-10 49 -20 98 q-1 20 8 28 q9 8 20 8 l67 0 Z" /><glyph glyph-name="" unicode="&#x3c9;" d="M1199 995 q31 -59 58 -119.5 q27 -60.5 47.5 -125 q20.5 -64.5 32 -133.5 q11.5 -69 11.5 -145 q0 -122 -29 -213.5 q-29 -91.5 -78 -152.5 q-49 -61 -113 -91.5 q-64 -30.5 -134 -30.5 q-92 0 -162 50.5 q-70 50.5 -105 147.5 q-35 -97 -104.5 -147.5 q-69.5 -50.5 -160.5 -50.5 q-70 0 -134.5 30.5 q-64.5 30.5 -113.5 91.5 q-49 61 -78 152.5 q-29 91.5 -29 213.5 q0 76 12 145 q12 69 32 133.5 q20 64.5 47.5 125 q27.5 60.5 58.5 119.5 l65 0 q5 0 11.5 -2.5 q6.5 -2.5 11 -8 q4.5 -5.5 5.5 -13.5 q1 -8 -4 -20 q-29 -51 -55.5 -108.5 q-26.5 -57.5 -46.5 -119 q-20 -61.5 -31.5 -125 q-11.5 -63.5 -11.5 -126.5 q0 -122 27.5 -201.5 q27.5 -79.5 68 -126 q40.5 -46.5 88 -65.5 q47.5 -19 86.5 -19 q50 0 89 21 q39 21 65.5 60 q26.5 39 40.5 93.5 q14 54.5 14 121.5 l0 305 l95 0 l0 -305 l1 0 q0 -67 14 -121.5 q14 -54.5 40.5 -93.5 q26.5 -39 65 -60 q38.5 -21 88.5 -21 q40 0 87 19 q47 19 87.5 65.5 q40.5 46.5 68 126 q27.5 79.5 27.5 201.5 q0 63 -11.5 126.5 q-11.5 63.5 -31.5 125 q-20 61.5 -46 119 q-26 57.5 -56 108.5 q-5 12 -4 20 q1 8 5.5 13.5 q4.5 5.5 11 8 q6.5 2.5 12.5 2.5 l65 0 Z" /><glyph glyph-name="" unicode="&#x384;" d="M369 1154 l80 317 l61 0 q17 0 24.5 -12.5 q7.5 -12.5 -0.5 -31.5 l-104 -273 l-61 0 Z" /><glyph glyph-name="" unicode="&#x385;" d="M368 1156 l80 317 l61 0 q17 0 24.5 -12 q7.5 -12 -0.5 -32 l-104 -273 l-61 0 ZM742 1265 q0 -29 -22.5 -50.5 q-22.5 -21.5 -51.5 -21.5 q-30 0 -52 21.5 q-22 21.5 -22 50.5 q0 30 22 52.5 q22 22.5 52 22.5 q15 0 28 -6 q13 -6 23.5 -16.5 q10.5 -10.5 16.5 -24 q6 -13.5 6 -28.5 ZM291 1265 q0 -15 -6 -28 q-6 -13 -16.5 -22.5 q-10.5 -9.5 -24 -15.5 q-13.5 -6 -28.5 -6 q-30 0 -52 21.5 q-22 21.5 -22 50.5 q0 30 22 52.5 q22 22.5 52 22.5 q15 0 28.5 -6 q13.5 -6 24 -16.5 q10.5 -10.5 16.5 -24 q6 -13.5 6 -28.5 Z" /><glyph glyph-name="" unicode="&#x375;" d="M266 273 q7 -58 5.5 -117 q-1.5 -59 -15 -116 q-13.5 -57 -40 -110.5 q-26.5 -53.5 -68.5 -101.5 l-27 19 q-16 12 -5 28 q23 32 41 66 q18 34 27 70 q9 36 8.5 73 q-0.5 37 -15.5 76 l0 82 q0 12 6.5 21.5 q6.5 9.5 23.5 9.5 l59 0 Z" /><glyph glyph-name="" unicode="&#x411;" d="M641 82 q186 0 278 82.5 q92 82.5 92 228.5 q0 149 -91 224.5 q-91 75.5 -277 75.5 l-331 0 l0 -611 l329 0 ZM643 775 q118 0 206.5 -25.5 q88.5 -25.5 147 -74 q58.5 -48.5 87.5 -117.5 q29 -69 29 -156 q0 -93 -31.5 -167.5 q-31.5 -74.5 -91.5 -126.5 q-60 -52 -148 -80 q-88 -28 -201 -28 l-432 0 l0 1415 l860 0 l0 -81 l-757 0 l0 -559 l331 0 Z" /><glyph glyph-name="" unicode="&#x413;" d="M1037 1333 l-725 0 l0 -1333 l-103 0 l0 1415 l828 0 l0 -82 Z" /><glyph glyph-name="" unicode="&#x490;" d="M1037 1333 l-725 0 l0 -1333 l-103 0 l0 1415 l747 0 l0 326 l81 0 l0 -408 Z" /><glyph glyph-name="" unicode="&#x414;" d="M1120 82 l0 1251 l-569 0 q-14 -294 -39 -507 q-25 -213 -59 -361.5 q-34 -148.5 -77 -240 q-43 -91.5 -93 -142.5 l837 0 ZM1469 82 l0 -404 q0 -15 -9.5 -24 q-9.5 -9 -25.5 -9 l-59 0 l0 355 l-1266 0 l0 -322 q0 -15 -9.5 -24 q-9.5 -9 -25.5 -9 l-59 0 l0 437 l132 0 q36 14 70.5 50 q34.5 36 65.5 102 q31 66 58.5 166 q27.5 100 49.5 243 q22 143 38 334 q16 191 25 438 l769 0 l0 -1333 l246 0 Z" /><glyph glyph-name="" unicode="&#x416;" d="M1971 0 l-68 0 q-23 0 -40.5 10.5 q-17.5 10.5 -28.5 27.5 l-444 567 q-29 38 -64.5 57.5 q-35.5 19.5 -92.5 19.5 l-181 0 l0 -682 l-98 0 l0 682 l-180 0 q-58 0 -93.5 -19.5 q-35.5 -19.5 -63.5 -57.5 l-444 -567 q-11 -17 -28.5 -27.5 q-17.5 -10.5 -40.5 -10.5 l-68 0 l482 630 q28 42 62 66 q34 24 79 35 q-42 11 -71 33.5 q-29 22.5 -57 59.5 l-471 591 l79 0 q17 0 32 -9 q15 -9 25 -25 l436 -545 q18 -23 36.5 -37.5 q18.5 -14.5 38 -22.5 q19.5 -8 40.5 -11 q21 -3 46 -3 l161 0 l0 653 l98 0 l0 -653 l161 0 q25 0 46.5 3 q21.5 3 41 11 q19.5 8 37.5 22.5 q18 14.5 36 37.5 l436 545 q10 16 25 25 q15 9 33 9 l78 0 l-471 -591 q-27 -37 -56 -59.5 q-29 -22.5 -71 -33.5 q45 -11 78.5 -35.5 q33.5 -24.5 61.5 -65.5 l483 -630 Z" /><glyph glyph-name="" unicode="&#x417;" d="M126 1286 q79 70 175.5 106.5 q96.5 36.5 225.5 36.5 q102 0 184 -26.5 q82 -26.5 139.5 -73.5 q57.5 -47 88.5 -111.5 q31 -64.5 31 -139.5 q0 -59 -18 -109 q-18 -50 -49.5 -90 q-31.5 -40 -74.5 -69.5 q-43 -29.5 -93 -47.5 q65 -20 117 -54 q52 -34 88.5 -79.5 q36.5 -45.5 56 -100 q19.5 -54.5 19.5 -115.5 q0 -89 -33 -167 q-33 -78 -96.5 -136 q-63.5 -58 -155.5 -91 q-92 -33 -210 -33 q-77 0 -142.5 13 q-65.5 13 -121.5 37 q-56 24 -103.5 58 q-47.5 34 -88.5 77 l28 44 q12 15 28 15 q10 0 25 -12 q15 -12 37 -29.5 q22 -17.5 52.5 -38 q30.5 -20.5 72 -38 q41.5 -17.5 94.5 -29.5 q53 -12 121 -12 q94 0 167.5 25 q73.5 25 124 70 q50.5 45 77 106.5 q26.5 61.5 26.5 134.5 q0 65 -23.5 121.5 q-23.5 56.5 -69.5 98.5 q-46 42 -112.5 66 q-66.5 24 -151.5 24 l-186 0 l0 86 l190 0 q61 0 117 18 q56 18 98.5 52.5 q42.5 34.5 67.5 84 q25 49.5 25 113.5 q0 60 -24 110 q-24 50 -68 86.5 q-44 36.5 -108 56.5 q-64 20 -143 20 q-61 0 -108 -9 q-47 -9 -83.5 -22 q-36.5 -13 -63 -29 q-26.5 -16 -45.5 -29 q-19 -13 -32 -22 q-13 -9 -22 -9 q-16 0 -26 17 l-24 45 Z" /><glyph glyph-name="" unicode="&#x418;" d="M1301 1415 l0 -1415 l-103 0 l0 1162 q0 32 1.5 65.5 q1.5 33.5 5.5 69.5 q-14 -31 -28 -56.5 q-14 -25.5 -28 -47.5 l-817 -1161 q-8 -13 -20.5 -22.5 q-12.5 -9.5 -27.5 -9.5 l-75 0 l0 1415 l103 0 l0 -1162 q0 -32 -1 -65 q-1 -33 -5 -68 q13 30 27 55.5 q14 25.5 28 47.5 l818 1160 q8 13 20 22.5 q12 9.5 27 9.5 l75 0 Z" /><glyph glyph-name="" unicode="&#x41a;" d="M1252 0 l-88 0 q-20 0 -33 9 q-13 9 -27 29 l-465 574 q-14 18 -27.5 31.5 q-13.5 13.5 -30 22 q-16.5 8.5 -37.5 12.5 q-21 4 -49 4 l-183 0 l0 -682 l-103 0 l0 1415 l103 0 l0 -653 l163 0 q25 0 45.5 3 q20.5 3 39 10.5 q18.5 7.5 35.5 21.5 q17 14 35 36 l444 550 q10 14 24 23 q14 9 32 9 l83 0 l-482 -599 q-26 -34 -55 -54 q-29 -20 -67 -31 q45 -10 75.5 -33.5 q30.5 -23.5 59.5 -64.5 l508 -633 Z" /><glyph glyph-name="" unicode="&#x41b;" d="M1198 0 l-103 0 l0 1333 l-569 0 q-13 -281 -35 -490.5 q-22 -209.5 -52.5 -359 q-30.5 -149.5 -69 -245.5 q-38.5 -96 -85 -151.5 q-46.5 -55.5 -100.5 -77 q-54 -21.5 -114 -21.5 q-32 0 -56 6 q-24 6 -24 17 l0 64 l60 0 q46 0 89 20.5 q43 20.5 81.5 75 q38.5 54.5 71.5 149.5 q33 95 59.5 243.5 q26.5 148.5 46 358 q19.5 209.5 31.5 493.5 l769 0 l0 -1415 Z" /><glyph glyph-name="" unicode="&#x409;" d="M1527 82 q186 0 278 82.5 q92 82.5 92 228.5 q0 149 -91 224.5 q-91 75.5 -277 75.5 l-331 0 l0 -611 l329 0 ZM1529 775 q118 0 206.5 -25.5 q88.5 -25.5 147 -74 q58.5 -48.5 87.5 -117.5 q29 -69 29 -156 q0 -93 -31.5 -167.5 q-31.5 -74.5 -91.5 -126.5 q-60 -52 -148 -80 q-88 -28 -201 -28 l-432 0 l0 1333 l-569 0 q-13 -281 -35 -490.5 q-22 -209.5 -52.5 -359 q-30.5 -149.5 -69 -245.5 q-38.5 -96 -85 -151.5 q-46.5 -55.5 -100.5 -77 q-54 -21.5 -114 -21.5 q-32 0 -56 6 q-24 6 -24 17 l0 64 l60 0 q46 0 89 20.5 q43 20.5 81.5 75 q38.5 54.5 71.5 149.5 q33 95 59.5 243.5 q26.5 148.5 46 358 q19.5 209.5 31.5 493.5 l769 0 l0 -640 l331 0 Z" /><glyph glyph-name="" unicode="&#x40a;" d="M1631 82 q185 0 277.5 82.5 q92.5 82.5 92.5 228.5 q0 149 -91 224.5 q-91 75.5 -278 75.5 l-331 0 l0 -611 l330 0 ZM1632 775 q118 0 206.5 -25.5 q88.5 -25.5 147 -74 q58.5 -48.5 87.5 -117.5 q29 -69 29 -156 q0 -93 -31 -167.5 q-31 -74.5 -91 -126.5 q-60 -52 -148 -80 q-88 -28 -201 -28 l-433 0 l0 678 l-886 0 l0 -678 l-103 0 l0 1415 l103 0 l0 -660 l886 0 l0 660 l103 0 l0 -640 l331 0 Z" /><glyph glyph-name="" unicode="&#x472;" d="M221 685 q3 -144 46.5 -257 q43.5 -113 118.5 -192 q75 -79 178 -120.5 q103 -41.5 227 -41.5 q125 0 228 41.5 q103 41.5 178 120.5 q75 79 117.5 192 q42.5 113 45.5 257 l-1139 0 ZM1358 764 q-8 136 -51.5 243.5 q-43.5 107.5 -118 182 q-74.5 74.5 -175.5 114 q-101 39.5 -222 39.5 q-120 0 -221 -39.5 q-101 -39.5 -175.5 -114 q-74.5 -74.5 -119 -182 q-44.5 -107.5 -52.5 -243.5 l1135 0 ZM791 1431 q150 0 274.5 -51.5 q124.5 -51.5 213.5 -146.5 q89 -95 138 -228.5 q49 -133.5 49 -296.5 q0 -164 -49 -297.5 q-49 -133.5 -138 -228 q-89 -94.5 -213.5 -146 q-124.5 -51.5 -274.5 -51.5 q-150 0 -274 51.5 q-124 51.5 -213 146 q-89 94.5 -138 228 q-49 133.5 -49 297.5 q0 163 49 296.5 q49 133.5 138 228 q89 94.5 213 146.5 q124 52 274 52 Z" /><glyph glyph-name="" unicode="&#x41f;" d="M1237 0 l-103 0 l0 1333 l-822 0 l0 -1333 l-103 0 l0 1415 l1028 0 l0 -1415 Z" /><glyph glyph-name="" unicode="&#x423;" d="M1183 1415 l-580 -1246 q-23 -50 -49.5 -84.5 q-26.5 -34.5 -57.5 -56 q-31 -21.5 -67.5 -31 q-36.5 -9.5 -79.5 -9.5 q-32 0 -56 6 q-24 6 -24 17 l0 64 l61 0 q60 0 107 31.5 q47 31.5 81 104.5 l86 185 l-571 1019 l95 0 q14 0 23 -6.5 q9 -6.5 15 -18.5 l441 -803 q28 -51 44 -104 q7 26 17 52.5 q10 26.5 23 52.5 l369 802 q5 11 14.5 18 q9.5 7 23.5 7 l85 0 Z" /><glyph glyph-name="" unicode="&#x474;" d="M1051 1261 q27 80 83 118.5 q56 38.5 125 38.5 q32 0 52.5 -5.5 q20.5 -5.5 20.5 -16.5 l0 -62 l-54 0 q-43 0 -79 -28.5 q-36 -28.5 -55 -80.5 l-444 -1225 l-92 0 l-584 1415 l82 0 q14 0 23 -7.5 q9 -7.5 14 -19.5 l481 -1174 q9 -22 17 -47 q8 -25 14 -52 q12 54 29 99 l367 1047 Z" /><glyph glyph-name="" unicode="&#x424;" d="M805 256 q116 1 209.5 40 q93.5 39 159.5 106 q66 67 102 156.5 q36 89.5 36 190.5 q0 100 -36 189 q-36 89 -102 156 q-66 67 -159.5 106.5 q-93.5 39.5 -209.5 40.5 l0 -985 ZM707 1241 q-116 -1 -210 -40.5 q-94 -39.5 -160 -106.5 q-66 -67 -102 -156 q-36 -89 -36 -189 q0 -101 36 -190.5 q36 -89.5 102 -156.5 q66 -67 160 -106 q94 -39 210 -40 l0 985 ZM805 1321 q141 -2 254 -48 q113 -46 192 -124 q79 -78 121.5 -181.5 q42.5 -103.5 42.5 -218.5 q0 -78 -19 -150.5 q-19 -72.5 -55.5 -136 q-36.5 -63.5 -89.5 -116 q-53 -52.5 -120.5 -90.5 q-67.5 -38 -149.5 -59 q-82 -21 -176 -22 l0 -175 l-98 0 l0 175 q-141 1 -254.5 47 q-113.5 46 -192.5 124 q-79 78 -121.5 182 q-42.5 104 -42.5 221 q0 115 43.5 218.5 q43.5 103.5 123.5 181.5 q80 78 192.5 124 q112.5 46 251.5 48 l0 165 l98 0 l0 -165 Z" /><glyph glyph-name="" unicode="&#x426;" d="M1471 82 l0 -404 q0 -15 -9.5 -24 q-9.5 -9 -25.5 -9 l-59 0 l0 355 l-1168 0 l0 1415 l103 0 l0 -1333 l822 0 l0 1333 l103 0 l0 -1333 l234 0 Z" /><glyph glyph-name="" unicode="&#x40f;" d="M1237 1415 l0 -1415 l-467 0 l0 -322 q0 -15 -9.5 -24 q-9.5 -9 -25.5 -9 l-59 0 l0 355 l-467 0 l0 1415 l103 0 l0 -1333 l822 0 l0 1333 l103 0 Z" /><glyph glyph-name="" unicode="&#x427;" d="M1077 1415 l0 -1415 l-103 0 l0 672 q-112 -33 -219.5 -54 q-107.5 -21 -203.5 -25 q-96 -4 -177.5 12.5 q-81.5 16.5 -140.5 59.5 q-59 43 -92 115 q-33 72 -33 179 l0 456 l103 0 l0 -456 q0 -120 54 -187 q54 -67 153.5 -88.5 q99.5 -21.5 240.5 -3 q141 18.5 315 68.5 l0 666 l103 0 Z" /><glyph glyph-name="" unicode="&#x428;" d="M1923 1415 l0 -1415 l-1714 0 l0 1415 l103 0 l0 -1333 l699 0 l0 1333 l103 0 l0 -1333 l706 0 l0 1333 l103 0 Z" /><glyph glyph-name="" unicode="&#x429;" d="M2156 82 l0 -404 q0 -15 -9.5 -24 q-9.5 -9 -25.5 -9 l-59 0 l0 355 l-1853 0 l0 1415 l103 0 l0 -1333 l699 0 l0 1333 l103 0 l0 -1333 l706 0 l0 1333 l103 0 l0 -1333 l233 0 Z" /><glyph glyph-name="" unicode="&#x42a;" d="M877 82 q186 0 278 82.5 q92 82.5 92 228.5 q0 149 -91 224.5 q-91 75.5 -277 75.5 l-331 0 l0 -611 l329 0 ZM879 775 q118 0 206.5 -25.5 q88.5 -25.5 147 -74 q58.5 -48.5 87.5 -117.5 q29 -69 29 -156 q0 -93 -31.5 -167.5 q-31.5 -74.5 -91.5 -126.5 q-60 -52 -148 -80 q-88 -28 -201 -28 l-432 0 l0 1330 l-416 0 l0 85 l519 0 l0 -640 l331 0 Z" /><glyph glyph-name="" unicode="&#x42c;" d="M641 82 q186 0 278 82.5 q92 82.5 92 228.5 q0 149 -91 224.5 q-91 75.5 -277 75.5 l-331 0 l0 -611 l329 0 ZM643 775 q118 0 206.5 -25.5 q88.5 -25.5 147 -74 q58.5 -48.5 87.5 -117.5 q29 -69 29 -156 q0 -93 -31.5 -167.5 q-31.5 -74.5 -91.5 -126.5 q-60 -52 -148 -80 q-88 -28 -201 -28 l-432 0 l0 1415 l103 0 l0 -640 l331 0 Z" /><glyph glyph-name="" unicode="&#x42d;" d="M106 1259 q92 82 204 127 q112 45 257 45 q152 0 278 -52.5 q126 -52.5 216.5 -148 q90.5 -95.5 140.5 -228.5 q50 -133 50 -294 q0 -164 -49 -298 q-49 -134 -136.5 -228.5 q-87.5 -94.5 -210 -146 q-122.5 -51.5 -269.5 -51.5 q-88 0 -161.5 14.5 q-73.5 14.5 -135 41 q-61.5 26.5 -113.5 64 q-52 37.5 -96 84.5 l40 43 q7 7 17 7 q6 0 10.5 -2.5 q4.5 -2.5 9.5 -6.5 q42 -39 85 -68 q43 -29 93 -49 q50 -20 109.5 -30 q59.5 -10 135.5 -10 q118 0 220 41.5 q102 41.5 178 120.5 q76 79 120.5 193 q44.5 114 47.5 258 l-786 0 l0 79 l784 0 q-8 135 -53.5 242.5 q-45.5 107.5 -121.5 182 q-76 74.5 -178.5 114.5 q-102.5 40 -223.5 40 q-101 0 -172 -22 q-71 -22 -119 -48.5 q-48 -26.5 -75.5 -48.5 q-27.5 -22 -39.5 -22 q-17 0 -24 12 l-32 45 Z" /><glyph glyph-name="" unicode="&#x404;" d="M1230 238 q10 0 17 -7 l40 -43 q-44 -47 -95.5 -84.5 q-51.5 -37.5 -113 -64 q-61.5 -26.5 -135 -41 q-73.5 -14.5 -161.5 -14.5 q-147 0 -269.5 51.5 q-122.5 51.5 -210.5 146 q-88 94.5 -136.5 228.5 q-48.5 134 -48.5 298 q0 161 50 294 q50 133 140 228.5 q90 95.5 216 148 q126 52.5 278 52.5 q145 0 257 -45 q112 -45 204 -127 l-31 -45 q-8 -12 -25 -12 q-12 0 -39 22 q-27 22 -75 48.5 q-48 26.5 -119.5 48.5 q-71.5 22 -171.5 22 q-122 0 -224.5 -40 q-102.5 -40 -178.5 -114.5 q-76 -74.5 -121.5 -182 q-45.5 -107.5 -53.5 -242.5 l784 0 l0 -79 l-786 0 q4 -144 48.5 -258 q44.5 -114 120 -193 q75.5 -79 177.5 -120.5 q102 -41.5 220 -41.5 q76 0 135.5 10 q59.5 10 109.5 30 q50 20 93 49 q43 29 85 68 q5 4 10 6.5 q5 2.5 10 2.5 Z" /><glyph glyph-name="" unicode="&#x42e;" d="M1297 73 q114 0 208.5 43.5 q94.5 43.5 162 125 q67.5 81.5 104.5 199.5 q37 118 37 267 q0 148 -37 266 q-37 118 -104.5 200.5 q-67.5 82.5 -162 126.5 q-94.5 44 -208.5 44 q-114 0 -208.5 -44 q-94.5 -44 -162 -126.5 q-67.5 -82.5 -104.5 -200.5 q-37 -118 -37 -266 q0 -149 37 -267 q37 -118 104.5 -199.5 q67.5 -81.5 162 -125 q94.5 -43.5 208.5 -43.5 ZM681 751 q6 154 53 279.5 q47 125.5 128 214.5 q81 89 191.5 137.5 q110.5 48.5 243.5 48.5 q137 0 250.5 -52 q113.5 -52 195 -146.5 q81.5 -94.5 126.5 -228 q45 -133.5 45 -296.5 q0 -164 -45 -297 q-45 -133 -126.5 -227.5 q-81.5 -94.5 -195 -145.5 q-113.5 -51 -250.5 -51 q-134 0 -244.5 48 q-110.5 48 -191.5 137 q-81 89 -128 215 q-47 126 -52 282 l-369 0 l0 -669 l-103 0 l0 1415 l103 0 l0 -664 l369 0 Z" /><glyph glyph-name="" unicode="&#x42f;" d="M984 722 l0 611 l-332 0 q-186 0 -278 -79 q-92 -79 -92 -225 q0 -149 91 -228 q91 -79 278 -79 l333 0 ZM1087 0 l-103 0 l0 640 l-252 0 q-29 0 -53.5 -4.5 q-24.5 -4.5 -48.5 -16.5 q-24 -12 -48 -33.5 q-24 -21.5 -50 -55.5 l-379 -492 q-11 -17 -28 -27.5 q-17 -10.5 -40 -10.5 l-76 0 l416 541 q32 43 65 70 q33 27 69 43 q-94 10 -165 40.5 q-71 30.5 -118 78.5 q-47 48 -71 113 q-24 65 -24 143 q0 90 31 161.5 q31 71.5 91 121.5 q60 50 148 76.5 q88 26.5 201 26.5 l435 0 l0 -1415 Z" /><glyph glyph-name="" unicode="&#x402;" d="M907 775 q118 0 206.5 -25.5 q88.5 -25.5 147 -74 q58.5 -48.5 87.5 -117.5 q29 -69 29 -156 q0 -93 -31 -167.5 q-31 -74.5 -91 -126.5 q-60 -52 -148 -80 q-88 -28 -201 -28 l-107 0 l0 82 l107 0 q185 0 277.5 82.5 q92.5 82.5 92.5 228.5 q0 149 -91 224.5 q-91 75.5 -278 75.5 l-356 0 l0 -693 l-102 0 l0 1331 l-423 0 l0 84 l1022 0 l0 -84 l-497 0 l0 -556 l356 0 Z" /><glyph glyph-name="" unicode="&#x40b;" d="M551 769 q111 32 214 53 q103 21 193 24.5 q90 3.5 164 -13 q74 -16.5 127 -59 q53 -42.5 82 -114.5 q29 -72 29 -179 l0 -481 l-103 0 l0 481 q0 120 -48 187 q-48 67 -139 89 q-91 22 -222 3.5 q-131 -18.5 -297 -68.5 l0 -692 l-102 0 l0 1331 l-423 0 l0 84 l1022 0 l0 -84 l-497 0 l0 -562 Z" /><glyph glyph-name="" unicode="&#x462;" d="M875 82 q186 0 278 82.5 q92 82.5 92 228.5 q0 149 -91 224.5 q-91 75.5 -277 75.5 l-331 0 l0 -611 l329 0 ZM877 775 q118 0 206.5 -25.5 q88.5 -25.5 147 -74 q58.5 -48.5 87.5 -117.5 q29 -69 29 -156 q0 -93 -31.5 -167.5 q-31.5 -74.5 -91.5 -126.5 q-60 -52 -148 -80 q-88 -28 -201 -28 l-432 0 l0 1090 l-380 0 l0 79 l380 0 l0 246 l103 0 l0 -246 l466 0 l0 -79 l-466 0 l0 -315 l331 0 Z" /><glyph glyph-name="" unicode="&#x431;" d="M590 58 q89 0 157 29.5 q68 29.5 113.5 83.5 q45.5 54 69 130.5 q23.5 76.5 23.5 171.5 q0 94 -22 171 q-22 77 -66 131.5 q-44 54.5 -109 84 q-65 29.5 -151 29.5 q-81 0 -148 -25.5 q-67 -25.5 -115.5 -74 q-48.5 -48.5 -75.5 -118 q-27 -69.5 -27 -157.5 q0 -104 23 -188 q23 -84 67.5 -143.5 q44.5 -59.5 110 -92 q65.5 -32.5 150.5 -32.5 ZM656 1300 q-111 -11 -191.5 -55 q-80.5 -44 -134 -119.5 q-53.5 -75.5 -80.5 -182.5 q-27 -107 -30 -245 q22 62 61.5 111 q39.5 49 93 82.5 q53.5 33.5 117 51.5 q63.5 18 133.5 18 q100 0 179.5 -35 q79.5 -35 134 -99 q54.5 -64 83.5 -154 q29 -90 29 -200 q0 -110 -32 -199.5 q-32 -89.5 -92 -153.5 q-60 -64 -145.5 -98.5 q-85.5 -34.5 -191.5 -34.5 q-92 0 -174.5 31.5 q-82.5 31.5 -144.5 106.5 q-62 75 -98.5 200 q-36.5 125 -36.5 311 q0 164 29.5 296.5 q29.5 132.5 92 229 q62.5 96.5 159.5 154 q97 57.5 232 71.5 l358 37 l5 -48 q2 -18 -5 -29 q-7 -11 -25 -13 l-326 -34 Z" /><glyph glyph-name="" unicode="&#x432;" d="M516 68 q63 0 114 15 q51 15 86 43 q35 28 54 68 q19 40 19 89 q0 45 -15 82 q-15 37 -47.5 63.5 q-32.5 26.5 -84 41 q-51.5 14.5 -123.5 14.5 l-263 0 l0 -416 l260 0 ZM256 929 l0 -381 l236 0 q54 0 100 14.5 q46 14.5 79 41.5 q33 27 51.5 64.5 q18.5 37.5 18.5 83.5 q0 34 -12.5 65.5 q-12.5 31.5 -42 56.5 q-29.5 25 -77 40 q-47.5 15 -117.5 15 l-236 0 ZM495 995 q90 0 153 -18.5 q63 -18.5 102 -50 q39 -31.5 57 -73.5 q18 -42 18 -88 q0 -33 -10 -69.5 q-10 -36.5 -34 -70.5 q-24 -34 -64.5 -61 q-40.5 -27 -101.5 -40 q135 -16 199 -80.5 q64 -64.5 64 -161.5 q0 -67 -26.5 -119.5 q-26.5 -52.5 -74 -88.5 q-47.5 -36 -114 -55 q-66.5 -19 -146.5 -19 l-353 0 l0 995 l331 0 Z" /><glyph glyph-name="" unicode="&#x433;" d="M774 922 l-514 0 l0 -922 l-96 0 l0 995 l610 0 l0 -73 Z" /><glyph glyph-name="" unicode="&#x491;" d="M775 1251 l0 -329 l-515 0 l0 -922 l-96 0 l0 995 l525 0 l0 256 l86 0 Z" /><glyph glyph-name="" unicode="&#x434;" d="M877 71 l0 848 l-402 0 q-11 -199 -33.5 -344 q-22.5 -145 -53 -246 q-30.5 -101 -66 -163 q-35.5 -62 -71.5 -95 l626 0 ZM1152 73 l0 -396 q0 -32 -30 -32 l-55 0 l0 355 l-953 0 l0 -327 q0 -11 -6.5 -19.5 q-6.5 -8.5 -19.5 -8.5 l-59 0 l0 426 l39 0 q36 0 71.5 15 q35.5 15 69 53.5 q33.5 38.5 63.5 105 q30 66.5 54 169 q24 102.5 42 245.5 q18 143 27 336 l575 0 l0 -922 l182 0 Z" /><glyph glyph-name="" unicode="&#x436;" d="M1469 0 l-67 0 q-26 0 -41 8 q-15 8 -24 26 l-251 353 q-29 42 -70 63.5 q-41 21.5 -92 21.5 l-125 0 l0 -473 l-93 0 l0 473 l-125 0 q-51 0 -92 -21.5 q-41 -21.5 -70 -63.5 l-252 -353 q-8 -18 -23.5 -26 q-15.5 -8 -41.5 -8 l-66 0 l297 414 q28 41 61.5 65.5 q33.5 24.5 80.5 35.5 q-38 11 -65.5 33.5 q-27.5 22.5 -50.5 54.5 l-293 392 l74 0 q32 0 48 -28 l264 -354 q25 -35 62.5 -55 q37.5 -20 79.5 -20 l112 0 l0 458 l93 0 l0 -458 l111 0 q42 0 80 20 q38 20 63 55 l264 354 q16 28 48 28 l73 0 l-292 -392 q-23 -32 -50.5 -54.5 q-27.5 -22.5 -65.5 -33.5 q47 -11 80.5 -35.5 q33.5 -24.5 61.5 -65.5 l297 -414 Z" /><glyph glyph-name="" unicode="&#x437;" d="M95 901 q53 49 131.5 79.5 q78.5 30.5 184.5 30.5 q88 0 154 -22 q66 -22 110 -57.5 q44 -35.5 65.5 -80.5 q21.5 -45 21.5 -91 q0 -32 -11.5 -66.5 q-11.5 -34.5 -37 -65.5 q-25.5 -31 -67 -56.5 q-41.5 -25.5 -101.5 -39.5 q120 -25 182 -92.5 q62 -67.5 62 -161.5 q0 -65 -29 -118.5 q-29 -53.5 -80 -92 q-51 -38.5 -119 -59.5 q-68 -21 -146 -21 q-55 0 -106 10.5 q-51 10.5 -95 29.5 q-44 19 -79.5 45 q-35.5 26 -58.5 56 l25 32 q8 10 20 10 q12 0 31.5 -17 q19.5 -17 53 -37 q33.5 -20 83 -37 q49.5 -17 120.5 -17 q66 0 119 16.5 q53 16.5 91 46 q38 29.5 58.5 70.5 q20.5 41 20.5 90 q0 46 -19.5 84.5 q-19.5 38.5 -58 66 q-38.5 27.5 -95.5 43 q-57 15.5 -131 15.5 l-112 0 l0 66 l112 0 q64 0 116.5 14.5 q52.5 14.5 89 40 q36.5 25.5 56.5 60 q20 34.5 20 75.5 q0 36 -16 69.5 q-16 33.5 -49 59.5 q-33 26 -83.5 41.5 q-50.5 15.5 -119.5 15.5 q-66 0 -113 -13 q-47 -13 -78 -29 q-31 -16 -49.5 -29 q-18.5 -13 -27.5 -13 q-8 0 -13 3 q-5 3 -10 11 l-22 35 Z" /><glyph glyph-name="" unicode="&#x438;" d="M969 995 l0 -995 l-95 0 l0 802 q0 14 1 30 q1 16 3 32 q-7 -14 -13.5 -25.5 q-6.5 -11.5 -13.5 -20.5 q-2 -2 -28 -37.5 q-26 -35.5 -68.5 -91.5 q-42.5 -56 -96 -127 q-53.5 -71 -108.5 -145 q-130 -173 -295 -393 q-6 -9 -15.5 -16.5 q-9.5 -7.5 -20.5 -7.5 l-55 0 l0 995 l96 0 l0 -802 q0 -14 -1 -30 q-1 -16 -3 -32 q6 14 13 25.5 q7 11.5 13 20.5 q1 2 27.5 37 q26.5 35 69 91.5 q42.5 56.5 95.5 127.5 q53 71 109 145 q130 173 295 392 q6 10 15.5 17.5 q9.5 7.5 20.5 7.5 l55 0 Z" /><glyph glyph-name="" unicode="&#x43a;" d="M782 967 q8 12 21.5 20 q13.5 8 28.5 8 l73 0 l-292 -392 q-23 -32 -50.5 -54.5 q-27.5 -22.5 -66.5 -34.5 q47 -10 81 -34.5 q34 -24.5 62 -65.5 l297 -414 l-67 0 q-26 0 -41 8.5 q-15 8.5 -26 25.5 l-252 353 q-29 42 -69.5 63.5 q-40.5 21.5 -91.5 21.5 l-129 0 l0 -473 l-96 0 l0 996 l96 0 l0 -457 l115 0 q42 0 79.5 20 q37.5 20 62.5 55 l265 354 Z" /><glyph glyph-name="" unicode="&#x43b;" d="M975 0 l-96 0 l0 919 l-402 0 q-10 -197 -33.5 -342.5 q-23.5 -145.5 -55.5 -249 q-32 -103.5 -72 -169.5 q-40 -66 -83.5 -104 q-43.5 -38 -88.5 -52 q-45 -14 -89 -14 q-24 0 -42 4 q-18 4 -18 12 l0 61 l44 0 q36 0 73.5 14.5 q37.5 14.5 74.5 52.5 q37 38 71 104 q34 66 61.5 169.5 q27.5 103.5 48 248.5 q20.5 145 29.5 341 l578 0 l0 -995 Z" /><glyph glyph-name="" unicode="&#x459;" d="M1235 71 q68 0 118 16.5 q50 16.5 82.5 46 q32.5 29.5 48.5 70 q16 40.5 16 88.5 q0 44 -13.5 83 q-13.5 39 -45 68 q-31.5 29 -83.5 46 q-52 17 -128 17 l-255 0 l0 -435 l260 0 ZM1230 577 q102 0 170.5 -24 q68.5 -24 109.5 -63.5 q41 -39.5 58.5 -90.5 q17.5 -51 17.5 -105 q0 -63 -22.5 -117 q-22.5 -54 -66.5 -93.5 q-44 -39.5 -109.5 -61.5 q-65.5 -22 -152.5 -22 l-356 0 l0 919 l-402 0 q-10 -197 -33.5 -342.5 q-23.5 -145.5 -55.5 -249 q-32 -103.5 -72 -169.5 q-40 -66 -83.5 -104 q-43.5 -38 -88.5 -52 q-45 -14 -89 -14 q-24 0 -42 4 q-18 4 -18 12 l0 61 l44 0 q36 0 73.5 14.5 q37.5 14.5 74.5 52.5 q37 38 71 104 q34 66 61.5 169.5 q27.5 103.5 48 248.5 q20.5 145 29.5 341 l578 0 l0 -418 l255 0 Z" /><glyph glyph-name="" unicode="&#x43c;" d="M1220 1000 l0 -1000 l-85 0 l0 802 q0 17 2 36.5 q2 19.5 5 36.5 l-410 -687 q-5 -8 -12 -14 q-7 -6 -17 -6 l-11 0 q-10 0 -17 6 q-7 6 -12 14 l-421 689 q4 -17 5.5 -37.5 q1.5 -20.5 1.5 -37.5 l0 -802 l-85 0 l0 1000 l70 0 q10 0 19.5 -4.5 q9.5 -4.5 16.5 -17.5 l404 -649 q13 -24 24 -53 q9 26 23 53 l394 649 q7 14 16.5 18 q9.5 4 20.5 4 l68 0 Z" /><glyph glyph-name="" unicode="&#x43d;" d="M947 995 l0 -995 l-96 0 l0 499 l-591 0 l0 -499 l-96 0 l0 995 l96 0 l0 -423 l591 0 l0 423 l96 0 Z" /><glyph glyph-name="" unicode="&#x45a;" d="M1207 71 q68 0 118 16.5 q50 16.5 82.5 46 q32.5 29.5 48.5 70 q16 40.5 16 88.5 q0 44 -13.5 83 q-13.5 39 -45 68 q-31.5 29 -83.5 46 q-52 17 -128 17 l-255 0 l0 -435 l260 0 ZM1202 577 q102 0 170.5 -24 q68.5 -24 109.5 -63.5 q41 -39.5 58.5 -90.5 q17.5 -51 17.5 -105 q0 -63 -22.5 -117 q-22.5 -54 -66.5 -93.5 q-44 -39.5 -109.5 -61.5 q-65.5 -22 -152.5 -22 l-356 0 l0 499 l-591 0 l0 -499 l-96 0 l0 995 l96 0 l0 -423 l591 0 l0 423 l96 0 l0 -418 l255 0 Z" /><glyph glyph-name="" unicode="&#x473;" d="M198 466 q3 -94 28 -169 q25 -75 70.5 -127.5 q45.5 -52.5 111 -81 q65.5 -28.5 150.5 -28.5 q85 0 150.5 28.5 q65.5 28.5 110.5 81 q45 52.5 70 127.5 q25 75 28 169 l-719 0 ZM917 532 q-4 93 -28.5 168 q-24.5 75 -69.5 128 q-45 53 -110.5 81.5 q-65.5 28.5 -150.5 28.5 q-85 0 -150.5 -28.5 q-65.5 -28.5 -111 -81.5 q-45.5 -53 -70 -128 q-24.5 -75 -28.5 -168 l719 0 ZM558 1011 q107 0 191.5 -36.5 q84.5 -36.5 142.5 -103.5 q58 -67 88.5 -161.5 q30.5 -94.5 30.5 -211.5 q0 -117 -30.5 -211 q-30.5 -94 -88.5 -161 q-58 -67 -142.5 -103 q-84.5 -36 -191.5 -36 q-107 0 -191.5 36 q-84.5 36 -143 103 q-58.5 67 -89 161 q-30.5 94 -30.5 211 q0 117 30.5 211.5 q30.5 94.5 89 161.5 q58.5 67 143 103.5 q84.5 36.5 191.5 36.5 Z" /><glyph glyph-name="" unicode="&#x43f;" d="M947 0 l-96 0 l0 922 l-591 0 l0 -922 l-96 0 l0 995 l783 0 l0 -995 Z" /><glyph glyph-name="" unicode="&#x442;" d="M960 922 l-416 0 l0 -922 l-96 0 l0 922 l-416 0 l0 73 l928 0 l0 -73 Z" /><glyph glyph-name="" unicode="&#x475;" d="M772 860 q16 46 36 74.5 q20 28.5 43 44 q23 15.5 48 20.5 q25 5 52 5 q32 0 44.5 -5.5 q12.5 -5.5 12.5 -10.5 l0 -53 l-27 0 q-48 0 -77 -21 q-29 -21 -47 -69 l-324 -845 l-84 0 l-411 995 l75 0 q14 0 23 -7.5 q9 -7.5 12 -16.5 l320 -785 q8 -23 14 -45 q6 -22 11 -45 q5 23 10.5 45 q5.5 22 13.5 45 l255 674 Z" /><glyph glyph-name="" unicode="&#x444;" d="M718 60 q109 4 190 36.5 q81 32.5 134.5 89.5 q53.5 57 80 136 q26.5 79 26.5 176 q0 97 -26.5 176.5 q-26.5 79.5 -80 136.5 q-53.5 57 -134.5 90 q-81 33 -190 37 l0 -10 l-2 -47 l0 -763 l2 -36 l0 -22 ZM628 938 q-109 -4 -190 -37 q-81 -33 -134.5 -90 q-53.5 -57 -80 -136.5 q-26.5 -79.5 -26.5 -176.5 q0 -97 26.5 -176 q26.5 -79 80 -136 q53.5 -57 134.5 -89.5 q81 -32.5 190 -36.5 l0 22 l2 33 l0 766 l-2 28 l0 29 ZM718 1011 q127 -4 225.5 -42 q98.5 -38 165 -104.5 q66.5 -66.5 101 -159.5 q34.5 -93 34.5 -207 q0 -114 -34.5 -206.5 q-34.5 -92.5 -101 -159 q-66.5 -66.5 -165 -104 q-98.5 -37.5 -225.5 -41.5 l0 -342 l-90 0 l0 342 q-128 4 -226 41.5 q-98 37.5 -164.5 104 q-66.5 66.5 -101 159 q-34.5 92.5 -34.5 206.5 q0 114 34.5 207 q34.5 93 101 159.5 q66.5 66.5 164.5 104.5 q98 38 226 42 l0 404 l90 0 l0 -404 Z" /><glyph glyph-name="" unicode="&#x446;" d="M1129 73 l0 -396 q0 -15 -8 -23.5 q-8 -8.5 -22 -8.5 l-56 0 l0 355 l-879 0 l0 995 l96 0 l0 -922 l591 0 l0 922 l96 0 l0 -922 l182 0 Z" /><glyph glyph-name="" unicode="&#x45f;" d="M947 995 l0 -995 l-349 0 l0 -323 q0 -32 -30 -32 l-55 0 l0 355 l-349 0 l0 995 l96 0 l0 -922 l591 0 l0 922 l96 0 Z" /><glyph glyph-name="" unicode="&#x447;" d="M835 995 l0 -995 l-95 0 l0 463 q-84 -23 -164.5 -37.5 q-80.5 -14.5 -152 -16.5 q-71.5 -2 -131.5 10.5 q-60 12.5 -103.5 43.5 q-43.5 31 -67.5 81.5 q-24 50.5 -24 125.5 l0 325 l95 0 l0 -313 q0 -86 41 -132 q41 -46 114 -61 q73 -15 173.5 -2.5 q100.5 12.5 219.5 44.5 l0 464 l95 0 Z" /><glyph glyph-name="" unicode="&#x448;" d="M1459 995 l0 -995 l-1295 0 l0 995 l96 0 l0 -922 l504 0 l0 922 l95 0 l0 -922 l504 0 l0 922 l96 0 Z" /><glyph glyph-name="" unicode="&#x449;" d="M1641 73 l0 -396 q0 -32 -30 -32 l-55 0 l0 355 l-1392 0 l0 995 l96 0 l0 -922 l504 0 l0 922 l95 0 l0 -922 l504 0 l0 922 l96 0 l0 -922 l182 0 Z" /><glyph glyph-name="" unicode="&#x44a;" d="M719 71 q68 0 118 16.5 q50 16.5 83 46 q33 29.5 49 70 q16 40.5 16 88.5 q0 44 -13.5 83 q-13.5 39 -45 68 q-31.5 29 -83.5 46 q-52 17 -128 17 l-257 0 l0 -435 l261 0 ZM714 577 q102 0 171 -24 q69 -24 110 -63.5 q41 -39.5 58.5 -90.5 q17.5 -51 17.5 -105 q0 -63 -22.5 -117 q-22.5 -54 -67 -93.5 q-44.5 -39.5 -110 -61.5 q-65.5 -22 -152.5 -22 l-352 0 l0 920 l-335 0 l0 75 l426 0 l0 -418 l256 0 Z" /><glyph glyph-name="" unicode="&#x44b;" d="M516 71 q68 0 118 16.5 q50 16.5 83 46 q33 29.5 49 70 q16 40.5 16 88.5 q0 44 -13.5 83 q-13.5 39 -45 68 q-31.5 29 -83.5 46 q-52 17 -128 17 l-256 0 l0 -435 l260 0 ZM512 577 q102 0 170.5 -24 q68.5 -24 109.5 -63.5 q41 -39.5 58.5 -90.5 q17.5 -51 17.5 -105 q0 -63 -22.5 -117 q-22.5 -54 -67 -93.5 q-44.5 -39.5 -110 -61.5 q-65.5 -22 -151.5 -22 l-353 0 l0 995 l92 0 l0 -418 l256 0 ZM1230 995 l0 -995 l-96 0 l0 995 l96 0 Z" /><glyph glyph-name="" unicode="&#x44c;" d="M516 71 q68 0 118 16.5 q50 16.5 83 46 q33 29.5 49 70 q16 40.5 16 88.5 q0 44 -13.5 83 q-13.5 39 -45 68 q-31.5 29 -83.5 46 q-52 17 -128 17 l-256 0 l0 -435 l260 0 ZM512 577 q102 0 170.5 -24 q68.5 -24 109.5 -63.5 q41 -39.5 58.5 -90.5 q17.5 -51 17.5 -105 q0 -63 -22.5 -117 q-22.5 -54 -67 -93.5 q-44.5 -39.5 -110 -61.5 q-65.5 -22 -151.5 -22 l-353 0 l0 995 l92 0 l0 -418 l256 0 Z" /><glyph glyph-name="" unicode="&#x44d;" d="M95 896 q56 53 131 84 q75 31 172 31 q108 0 191.5 -37.5 q83.5 -37.5 141.5 -105.5 q58 -68 88 -162 q30 -94 30 -208 q0 -121 -31.5 -216 q-31.5 -95 -88 -160.5 q-56.5 -65.5 -135.5 -100 q-79 -34.5 -173 -34.5 q-56 0 -107.5 10.5 q-51.5 10.5 -95.5 29.5 q-44 19 -79 45 q-35 26 -58 56 l24 30 q7 10 20 10 q11 0 29.5 -16.5 q18.5 -16.5 50.5 -36.5 q32 -20 80.5 -36.5 q48.5 -16.5 120.5 -16.5 q76 0 139 27 q63 27 108.5 79.5 q45.5 52.5 71.5 129.5 q26 77 29 176 l-533 0 l0 69 l532 0 q-5 91 -31.5 164 q-26.5 73 -72.5 124 q-46 51 -110.5 78 q-64.5 27 -145.5 27 q-62 0 -105.5 -13 q-43.5 -13 -72.5 -29 q-29 -16 -46.5 -29 q-17.5 -13 -27.5 -13 q-8 0 -12.5 3.5 q-4.5 3.5 -9.5 9.5 l-24 31 Z" /><glyph glyph-name="" unicode="&#x454;" d="M834 865 q-5 -6 -9.5 -9.5 q-4.5 -3.5 -12.5 -3.5 q-10 0 -27.5 13 q-17.5 13 -46.5 29 q-29 16 -72.5 29 q-43.5 13 -105.5 13 q-81 0 -145.5 -27.5 q-64.5 -27.5 -110.5 -78.5 q-46 -51 -72.5 -123.5 q-26.5 -72.5 -31.5 -163.5 l532 0 l0 -69 l-533 0 q3 -99 29 -176 q26 -77 71.5 -129.5 q45.5 -52.5 108.5 -79.5 q63 -27 139 -27 q72 0 120.5 16.5 q48.5 16.5 80.5 36.5 q32 20 50 36.5 q18 16.5 30 16.5 q12 0 20 -10 l24 -30 q-23 -30 -58 -56 q-35 -26 -79 -45 q-44 -19 -95.5 -29.5 q-51.5 -10.5 -107.5 -10.5 q-95 0 -173.5 34.5 q-78.5 34.5 -135 100 q-56.5 65.5 -88 160.5 q-31.5 95 -31.5 216 q0 114 30 208 q30 94 88 162 q58 68 141.5 105.5 q83.5 37.5 191.5 37.5 q97 0 172 -31 q75 -31 131 -84 l-24 -31 Z" /><glyph glyph-name="" unicode="&#x44e;" d="M983 62 q83 0 145 30.5 q62 30.5 103 87.5 q41 57 61.5 137.5 q20.5 80.5 20.5 180.5 q0 99 -20.5 180 q-20.5 81 -61.5 138.5 q-41 57.5 -103 88.5 q-62 31 -145 31 q-83 0 -145 -31 q-62 -31 -103.5 -88.5 q-41.5 -57.5 -62 -138.5 q-20.5 -81 -20.5 -180 q0 -100 20.5 -180.5 q20.5 -80.5 62 -137.5 q41.5 -57 103.5 -87.5 q62 -30.5 145 -30.5 ZM558 535 q4 109 35 197 q31 88 85 150 q54 62 131 95.5 q77 33.5 174 33.5 q101 0 180.5 -36.5 q79.5 -36.5 134.5 -103.5 q55 -67 84 -161.5 q29 -94.5 29 -211.5 q0 -117 -29.5 -211 q-29.5 -94 -84.5 -161 q-55 -67 -134.5 -103 q-79.5 -36 -179.5 -36 q-98 0 -175.5 33.5 q-77.5 33.5 -131.5 95.5 q-54 62 -84 150 q-30 88 -34 198 l-298 0 l0 -464 l-96 0 l0 995 l96 0 l0 -460 l298 0 Z" /><glyph glyph-name="" unicode="&#x44f;" d="M694 510 l0 419 l-213 0 q-70 0 -117.5 -20 q-47.5 -20 -77 -51 q-29.5 -31 -42 -69 q-12.5 -38 -12.5 -75 q0 -48 19.5 -86 q19.5 -38 56.5 -64 q37 -26 90 -40 q53 -14 119 -14 l177 0 ZM787 995 l0 -995 l-93 0 l0 447 l-120 0 q-25 0 -42.5 -3 q-17.5 -3 -31 -10 q-13.5 -7 -24.5 -17.5 q-11 -10.5 -23 -26.5 l-291 -356 q-10 -17 -24.5 -25.5 q-14.5 -8.5 -40.5 -8.5 l-66 0 l337 408 q27 43 73 58 q-82 6 -139.5 29 q-57.5 23 -94 57.5 q-36.5 34.5 -53 78 q-16.5 43.5 -16.5 92.5 q0 48 18 96.5 q18 48.5 58.5 87.5 q40.5 39 105.5 63.5 q65 24.5 158 24.5 l309 0 Z" /><glyph glyph-name="" unicode="&#x452;" d="M259 749 q69 85 158 135 q89 50 198 50 q85 0 150 -28.5 q65 -28.5 108 -82.5 q43 -54 65 -130.5 q22 -76.5 22 -172.5 q0 -121 -19.5 -233 q-19.5 -112 -56 -217.5 q-36.5 -105.5 -90.5 -207 q-54 -101.5 -123 -201.5 l-76 33 q62 93 111.5 188 q49.5 95 84.5 196.5 q35 101.5 54 210.5 q19 109 19 231 q0 159 -70.5 248.5 q-70.5 89.5 -202.5 89.5 q-98 0 -182 -50 q-84 -50 -150 -138 l0 -670 l-95 0 l0 1124 l-205 0 l0 76 l205 0 l0 255 l95 0 l0 -255 l394 0 l0 -76 l-394 0 l0 -375 Z" /><glyph glyph-name="" unicode="&#x463;" d="M692 71 q68 0 118 16.5 q50 16.5 82.5 46 q32.5 29.5 48.5 70 q16 40.5 16 88.5 q0 44 -13.5 83 q-13.5 39 -45 68 q-31.5 29 -83.5 46 q-52 17 -128 17 l-276 0 l0 -435 l281 0 ZM687 577 q102 0 170.5 -24 q68.5 -24 109.5 -63.5 q41 -39.5 58.5 -90.5 q17.5 -51 17.5 -105 q0 -63 -22.5 -117 q-22.5 -54 -66.5 -93.5 q-44 -39.5 -109.5 -61.5 q-65.5 -22 -152.5 -22 l-373 0 l0 919 l-286 0 l0 76 l286 0 l0 305 l92 0 l0 -305 l339 0 l0 -76 l-339 0 l0 -342 l276 0 Z" /><glyph glyph-name="" unicode="!" d="M302 1415 l0 -572 q0 -45 -1 -85 q-1 -40 -2.5 -81.5 q-1.5 -41.5 -4.5 -87.5 q-3 -46 -6 -102 l-65 0 q-3 56 -6 102 q-3 46 -4.5 87.5 q-1.5 41.5 -2.5 81.5 q-1 40 -1 85 l0 572 l93 0 ZM160 77 q0 19 7 36 q7 17 19.5 29.5 q12.5 12.5 29 20 q16.5 7.5 36.5 7.5 q19 0 36 -7.5 q17 -7.5 29.5 -20 q12.5 -12.5 20 -29.5 q7.5 -17 7.5 -36 q0 -20 -7.5 -36.5 q-7.5 -16.5 -20 -29 q-12.5 -12.5 -29.5 -19.5 q-17 -7 -36 -7 q-39 0 -65.5 26.5 q-26.5 26.5 -26.5 65.5 Z" /><glyph glyph-name="" unicode="?" d="M94 1292 q27 27 61 52 q34 25 74.5 44.5 q40.5 19.5 88.5 31 q48 11.5 104 11.5 q69 0 131.5 -21 q62.5 -21 109 -60 q46.5 -39 74 -95.5 q27.5 -56.5 27.5 -126.5 q0 -76 -23.5 -131 q-23.5 -55 -59.5 -96.5 q-36 -41.5 -78 -73 q-42 -31.5 -79 -59 q-37 -27.5 -62.5 -55.5 q-25.5 -28 -27.5 -62 l-11 -164 l-65 0 l-6 171 q-2 42 21 74 q23 32 59 61 q36 29 78 59 q42 30 78.5 68 q36.5 38 61 87 q24.5 49 24.5 117 q0 54 -21 96.5 q-21 42.5 -57 72 q-36 29.5 -83 45 q-47 15.5 -98 15.5 q-66 0 -114.5 -17.5 q-48.5 -17.5 -81.5 -39 q-33 -21.5 -52 -39 q-19 -17.5 -26 -17.5 q-15 0 -22 12 l-25 40 ZM296 77 q0 19 7 36 q7 17 19.5 29.5 q12.5 12.5 29 20 q16.5 7.5 36.5 7.5 q19 0 36 -7.5 q17 -7.5 29.5 -20 q12.5 -12.5 20 -29.5 q7.5 -17 7.5 -36 q0 -20 -7.5 -36.5 q-7.5 -16.5 -20 -29 q-12.5 -12.5 -29.5 -19.5 q-17 -7 -36 -7 q-39 0 -65.5 26.5 q-26.5 26.5 -26.5 65.5 Z" /><glyph glyph-name="" unicode="&#x203d;" d="M400 170 q19 0 36 -7.5 q17 -7.5 29.5 -20 q12.5 -12.5 20 -29.5 q7.5 -17 7.5 -36 q0 -20 -7.5 -36.5 q-7.5 -16.5 -20 -29 q-12.5 -12.5 -29.5 -19.5 q-17 -7 -36 -7 q-39 0 -65.5 26.5 q-26.5 26.5 -26.5 65.5 q0 19 7 36 q7 17 19.5 29.5 q12.5 12.5 29 20 q16.5 7.5 36.5 7.5 ZM350 1380 q60 20 133 20 q73 0 135 -20 q62 -20 107 -57 q45 -37 70 -91 q25 -54 25 -121 q0 -57 -17 -100.5 q-17 -43.5 -45 -77.5 q-28 -34 -64 -60 q-36 -26 -73.5 -48 q-37.5 -22 -74 -41.5 q-36.5 -19.5 -65.5 -40 q-29 -20.5 -48 -43.5 q-19 -23 -21 -52 l22 -192 l-60 0 q-23 78 -46 157.5 q-23 79.5 -46 160.5 l-171 629 l89 22 l147 -572 q5 -17 12.5 -51 q7.5 -34 15.5 -75 q20 33 54.5 59.5 q34.5 26.5 74 51.5 q39.5 25 80 50.5 q40.5 25.5 73.5 57 q33 31.5 53.5 70.5 q20.5 39 20.5 91 q0 47 -18 86 q-18 39 -51 67.5 q-33 28.5 -80 44.5 q-47 16 -105 16 q-38 0 -59.5 -4.5 q-21.5 -4.5 -28.5 -4.5 q-22 0 -26 17 l-13 51 Z" /><glyph glyph-name="" unicode="," d="M144 -238 q-5 4 -6.5 8 q-1.5 4 -1.5 9 q0 6 8 16 q9 10 24.5 29.5 q15.5 19.5 32 46 q16.5 26.5 30 59.5 q13.5 33 17.5 71 q-15 -5 -31 -5 q-37 0 -60.5 25 q-23.5 25 -23.5 64 q0 35 24 60 q24 25 63 25 q43 0 66.5 -29.5 q23.5 -29.5 23.5 -77.5 q0 -41 -10.5 -83.5 q-10.5 -42.5 -30.5 -83.5 q-20 -41 -48 -79 q-28 -38 -62 -70 l-15 15 Z" /><glyph glyph-name="" unicode="." d="M141 77 q0 19 7 36 q7 17 19.5 29.5 q12.5 12.5 29 20 q16.5 7.5 36.5 7.5 q19 0 36 -7.5 q17 -7.5 29.5 -20 q12.5 -12.5 20 -29.5 q7.5 -17 7.5 -36 q0 -20 -7.5 -36.5 q-7.5 -16.5 -20 -29 q-12.5 -12.5 -29.5 -19.5 q-17 -7 -36 -7 q-39 0 -65.5 26.5 q-26.5 26.5 -26.5 65.5 Z" /><glyph glyph-name="" unicode="&#x2018;" d="M186 976 q-35 61 -47.5 130.5 q-12.5 69.5 -4 138.5 q8.5 69 38 132.5 q29.5 63.5 79.5 111.5 l28 -18 q8 -6 7 -14 q-1 -8 -6 -13 q-32 -42 -49 -94 q-17 -52 -20.5 -106 q-3.5 -54 7.5 -107 q11 -53 37 -97 q16 -28 -9 -39 l-61 -25 Z" /><glyph glyph-name="" unicode="&#x201a;" d="M229 210 q34 -61 46.5 -130.5 q12.5 -69.5 4 -138.5 q-8.5 -69 -38.5 -132.5 q-30 -63.5 -79 -111.5 l-27 18 q-8 6 -7.5 14 q0.5 8 5.5 13 q32 42 49.5 94 q17.5 52 20.5 106 q3 54 -8.5 107 q-11.5 53 -36.5 97 q-16 28 9 39 l62 25 Z" /><glyph glyph-name="" unicode="&#x2039;" d="M393 197 q19 -33 -10 -48 l-30 -15 l-241 379 l0 13 l241 378 l30 -15 q29 -15 10 -48 l-183 -293 q-13 -21 -23 -29 q9 -7 23 -28 l183 -294 Z" /><glyph glyph-name="" unicode="&#x203a;" d="M428 526 l0 -13 l-241 -379 l-30 15 q-29 15 -10 48 l183 294 q14 21 23 28 q-10 8 -23 29 l-183 293 q-19 33 10 48 l30 15 l241 -378 Z" /><glyph glyph-name="" unicode="/" d="M172 -45 q-8 -20 -24 -29.5 q-16 -9.5 -33 -9.5 l-39 0 l622 1502 q15 37 54 37 l41 0 l-621 -1500 Z" /><glyph glyph-name="" unicode="|" d="M201 1517 l75 0 l0 -1872 l-75 0 l0 1872 Z" /><glyph glyph-name="" unicode="¦" d="M204 1517 l75 0 l0 -778 l-75 0 l0 778 ZM204 425 l75 0 l0 -777 l-75 0 l0 777 Z" /><glyph glyph-name="" unicode="\" d="M76 1455 l41 0 q39 0 54 -37 l622 -1502 l-39 0 q-17 0 -33 9.5 q-16 9.5 -24 29.5 l-621 1500 Z" /><glyph glyph-name="" unicode="-­&#x2010;" d="M138 634 l465 0 l0 -81 l-465 0 l0 81 Z" /><glyph glyph-name="" unicode="&#x2013;" d="M186 614 l787 0 l0 -71 l-787 0 l0 71 Z" /><glyph glyph-name="" unicode="&#x2014;" d="M139 614 l1297 0 l0 -71 l-1297 0 l0 71 Z" /><glyph glyph-name="" unicode="_" d="M844 -205 l0 -68 l-788 0 l0 68 l788 0 Z" /><glyph glyph-name="" unicode="&#x2022;" d="M287 596 q0 61 23 115 q23 54 63 94.5 q40 40.5 92.5 63.5 q52.5 23 112.5 23 q61 0 115 -23 q54 -23 94 -63.5 q40 -40.5 63 -94.5 q23 -54 23 -115 q0 -60 -23 -112.5 q-23 -52.5 -63 -92.5 q-40 -40 -94 -63 q-54 -23 -115 -23 q-60 0 -112.5 23 q-52.5 23 -92.5 63 q-40 40 -63 92.5 q-23 52.5 -23 112.5 Z" /><glyph glyph-name="" unicode="·&#x2219;" d="M141 592 q0 21 8 40 q8 19 21.5 33 q13.5 14 31.5 22 q18 8 38 8 q21 0 40 -8 q19 -8 33 -22 q14 -14 22 -33 q8 -19 8 -40 q0 -20 -8 -38.5 q-8 -18.5 -22 -32 q-14 -13.5 -33 -21.5 q-19 -8 -40 -8 q-20 0 -38 8 q-18 8 -31.5 21.5 q-13.5 13.5 -21.5 32 q-8 18.5 -8 38.5 Z" /><glyph glyph-name="" unicode="(" d="M194 630 q0 -224 60.5 -429.5 q60.5 -205.5 180.5 -396.5 q10 -17 5.5 -27.5 q-4.5 -10.5 -12.5 -15.5 l-42 -26 q-77 118 -129.5 228.5 q-52.5 110.5 -85 220 q-32.5 109.5 -47 219.5 q-14.5 110 -14.5 227 q0 117 14.5 227.5 q14.5 110.5 47 220 q32.5 109.5 85 220 q52.5 110.5 129.5 228.5 l42 -26 q8 -5 12.5 -15.5 q4.5 -10.5 -5.5 -27.5 q-120 -191 -180.5 -396.5 q-60.5 -205.5 -60.5 -430.5 Z" /><glyph glyph-name="" unicode=")" d="M322 630 q0 225 -60.5 430.5 q-60.5 205.5 -180.5 396.5 q-10 17 -5.5 27.5 q4.5 10.5 12.5 15.5 l42 26 q77 -118 129.5 -228.5 q52.5 -110.5 85 -220 q32.5 -109.5 47 -220 q14.5 -110.5 14.5 -227.5 q0 -117 -14.5 -227 q-14.5 -110 -47 -219.5 q-32.5 -109.5 -85 -220 q-52.5 -110.5 -129.5 -228.5 l-42 26 q-8 5 -12.5 15.5 q-4.5 10.5 5.5 27.5 q120 191 180.5 396.5 q60.5 205.5 60.5 429.5 Z" /><glyph glyph-name="" unicode="[" d="M283 1452 l0 -1651 l206 0 q14 0 22.5 -8 q8.5 -8 8.5 -21 l0 -36 l-318 0 l0 1781 l318 0 l0 -36 q0 -13 -8.5 -21 q-8.5 -8 -22.5 -8 l-206 0 Z" /><glyph glyph-name="" unicode="]" d="M391 -264 l-317 0 l0 36 q0 13 8 21 q8 8 22 8 l206 0 l0 1651 l-206 0 q-14 0 -22 8 q-8 8 -8 21 l0 36 l317 0 l0 -1781 Z" /><glyph glyph-name="" unicode="{" d="M455 1452 q-43 0 -78.5 -15 q-35.5 -15 -61 -43 q-25.5 -28 -40 -68 q-14.5 -40 -14.5 -89 q0 -57 9 -111 q9 -54 20 -106.5 q11 -52.5 20 -105 q9 -52.5 9 -105.5 q0 -37 -12.5 -68 q-12.5 -31 -33 -54 q-20.5 -23 -47 -38.5 q-26.5 -15.5 -55.5 -21.5 q29 -7 55.5 -22.5 q26.5 -15.5 47 -38.5 q20.5 -23 33 -54 q12.5 -31 12.5 -68 q0 -53 -9 -105.5 q-9 -52.5 -20 -105.5 q-11 -53 -20 -107 q-9 -54 -9 -110 q0 -49 14.5 -89 q14.5 -40 40 -68 q25.5 -28 61 -43 q35.5 -15 78.5 -15 l33 0 q9 0 17 -6 q8 -6 8 -17 l0 -42 l-55 0 q-66 0 -118.5 21.5 q-52.5 21.5 -88.5 60 q-36 38.5 -55 90.5 q-19 52 -19 113 q0 56 9.5 108.5 q9.5 52.5 20.5 104.5 q11 52 20.5 104 q9.5 52 9.5 107 q0 33 -11 60.5 q-11 27.5 -31.5 48 q-20.5 20.5 -49 31.5 q-28.5 11 -63.5 11 l0 61 q35 0 63.5 11 q28.5 11 49 31.5 q20.5 20.5 31.5 48 q11 27.5 11 60.5 q0 55 -9.5 107 q-9.5 52 -20.5 104 q-11 52 -20.5 104.5 q-9.5 52.5 -9.5 108.5 q0 61 19 113 q19 52 55 90.5 q36 38.5 88.5 60 q52.5 21.5 118.5 21.5 l55 0 l0 -42 q0 -11 -8 -17 q-8 -6 -17 -6 l-33 0 Z" /><glyph glyph-name="" unicode="}" d="M508 596 q-35 0 -63.5 -11 q-28.5 -11 -49 -31.5 q-20.5 -20.5 -31.5 -48 q-11 -27.5 -11 -60.5 q0 -55 9.5 -107 q9.5 -52 20.5 -104 q11 -52 20.5 -104.5 q9.5 -52.5 9.5 -108.5 q0 -61 -19 -113 q-19 -52 -55 -90.5 q-36 -38.5 -88.5 -60 q-52.5 -21.5 -118.5 -21.5 l-55 0 l0 42 q0 11 8 17 q8 6 17 6 l33 0 q43 0 78.5 15 q35.5 15 61 43 q25.5 28 40 68 q14.5 40 14.5 89 q0 56 -9 110 q-9 54 -20 107 q-11 53 -20 105.5 q-9 52.5 -9 105.5 q0 37 12.5 68 q12.5 31 33 54 q20.5 23 47 38.5 q26.5 15.5 55.5 22.5 q-29 6 -55.5 21.5 q-26.5 15.5 -47 38.5 q-20.5 23 -33 54 q-12.5 31 -12.5 68 q0 53 9 105.5 q9 52.5 20 105 q11 52.5 20 106.5 q9 54 9 111 q0 49 -14.5 89 q-14.5 40 -40 68 q-25.5 28 -61 43 q-35.5 15 -78.5 15 l-33 0 q-9 0 -17 6 q-8 6 -8 17 l0 42 l55 0 q66 0 118.5 -21.5 q52.5 -21.5 88.5 -60 q36 -38.5 55 -90.5 q19 -52 19 -113 q0 -56 -9.5 -108.5 q-9.5 -52.5 -20.5 -104.5 q-11 -52 -20.5 -104 q-9.5 -52 -9.5 -107 q0 -33 11 -60.5 q11 -27.5 31.5 -48 q20.5 -20.5 49 -31.5 q28.5 -11 63.5 -11 l0 -61 Z" /><glyph glyph-name="" unicode="*" d="M700 1065 l-25 -45 l-190 110 q-15 9 -25 17.5 q-10 8.5 -22 25.5 l-1 -1 q7 -18 10 -31 q3 -13 3 -30 l0 -214 l-52 0 l0 213 q0 17 2.5 30 q2.5 13 10.5 30 l0 1 q-11 -15 -21.5 -23.5 q-10.5 -8.5 -25.5 -17.5 l-188 -109 l-25 44 l188 110 q14 8 27.5 12 q13.5 4 32.5 7 q-20 4 -33 8 q-13 4 -27 13 l-190 110 l26 45 l189 -110 q17 -10 26.5 -20 q9.5 -10 23.5 -27 q-8 20 -12 34.5 q-4 14.5 -4 31.5 l0 214 l52 0 l0 -213 q0 -18 -2.5 -32 q-2.5 -14 -10.5 -33 q12 17 22.5 26.5 q10.5 9.5 25.5 18.5 l188 109 l26 -45 l-188 -109 q-15 -9 -28 -14 q-13 -5 -30 -7 q18 -3 30.5 -6.5 q12.5 -3.5 27.5 -12.5 l189 -110 Z" /><glyph glyph-name="" unicode="&#x2020;" d="M617 892 l0 -495 l13 -746 q-23 -13 -50 -13 q-28 0 -51 13 l13 746 l0 495 l-380 0 l0 32 q0 17 11.5 31 q11.5 14 34.5 14 q78 -2 165 -9.5 q87 -7.5 169 -10.5 l-13 483 q23 13 51 13 q27 0 50 -13 l-13 -483 q82 3 169 10.5 q87 7.5 165 9.5 q23 0 35 -14 q12 -14 12 -31 l0 -32 l-381 0 Z" /><glyph glyph-name="" unicode="&#x2021;" d="M617 190 l381 0 l0 -32 q0 -17 -12 -30.5 q-12 -13.5 -35 -13.5 q-78 2 -165 9.5 q-87 7.5 -169 10.5 l13 -483 q-23 -13 -50 -13 q-28 0 -51 13 l13 483 q-82 -3 -169 -10.5 q-87 -7.5 -165 -9.5 q-23 0 -34.5 13.5 q-11.5 13.5 -11.5 30.5 l0 32 l380 0 l0 702 l-380 0 l0 32 q0 17 11.5 31 q11.5 14 34.5 14 q78 -2 165 -9.5 q87 -7.5 169 -10.5 l-13 483 q23 13 51 13 q27 0 50 -13 l-13 -483 q82 3 169 10.5 q87 7.5 165 9.5 q23 0 35 -14 q12 -14 12 -31 l0 -32 l-381 0 l0 -702 Z" /><glyph glyph-name="" unicode="§" d="M201 727 q0 -41 19.5 -73.5 q19.5 -32.5 53 -59 q33.5 -26.5 77.5 -48.5 q44 -22 92 -43 q48 -21 97.5 -42.5 q49.5 -21.5 94.5 -46.5 q71 32 102 79.5 q31 47.5 31 108.5 q0 45 -18 80 q-18 35 -48.5 62.5 q-30.5 27.5 -71 50 q-40.5 22.5 -85 43 q-44.5 20.5 -91 40 q-46.5 19.5 -89.5 42.5 q-90 -38 -127 -85.5 q-37 -47.5 -37 -107.5 ZM785 1291 q-7 -13 -22 -13 q-11 0 -28.5 12.5 q-17.5 12.5 -46 27.5 q-28.5 15 -70 27.5 q-41.5 12.5 -101.5 12.5 q-56 0 -101.5 -15.5 q-45.5 -15.5 -77.5 -42 q-32 -26.5 -49.5 -61.5 q-17.5 -35 -17.5 -74 q0 -46 25 -80 q25 -34 66 -61.5 q41 -27.5 93 -50.5 q52 -23 106.5 -47 q54.5 -24 106.5 -51.5 q52 -27.5 93 -62.5 q41 -35 66 -81.5 q25 -46.5 25 -108.5 q0 -82 -41.5 -143.5 q-41.5 -61.5 -124.5 -96.5 q54 -38 87.5 -87.5 q33.5 -49.5 33.5 -118.5 q0 -65 -23.5 -121 q-23.5 -56 -68 -97 q-44.5 -41 -109.5 -65 q-65 -24 -148 -24 q-105 0 -181 33.5 q-76 33.5 -136 87.5 l23 34 q5 8 11 12 q6 4 17 4 q13 0 32 -16 q19 -16 50 -34.5 q31 -18.5 77 -34.5 q46 -16 114 -16 q62 0 110 17 q48 17 81 47 q33 30 50 70.5 q17 40.5 17 87.5 q0 51 -26 89 q-26 38 -69 67.5 q-43 29.5 -97.5 53.5 q-54.5 24 -111 48 q-56.5 24 -111 50 q-54.5 26 -97.5 60.5 q-43 34.5 -69 79 q-26 44.5 -26 105.5 q0 77 45.5 138.5 q45.5 61.5 149.5 98.5 q-27 18 -50 39.5 q-23 21.5 -39.5 47 q-16.5 25.5 -26 56 q-9.5 30.5 -9.5 67.5 q0 54 23 102.5 q23 48.5 65.5 86 q42.5 37.5 103.5 59.5 q61 22 137 22 q91 0 161.5 -26.5 q70.5 -26.5 129.5 -79.5 l-21 -34 Z" /><glyph glyph-name="" unicode="¶" d="M1243 1333 l-225 0 l0 -1523 l-86 0 l0 1523 l-328 0 l0 -1523 l-85 0 l0 889 q-103 0 -185 28 q-82 28 -139.5 77 q-57.5 49 -88 115.5 q-30.5 66.5 -30.5 143.5 q0 80 30.5 145 q30.5 65 88 111 q57.5 46 139.5 71 q82 25 185 25 l724 0 l0 -82 Z" /><glyph glyph-name="" unicode="^" d="M987 715 l-68 0 q-11 0 -19.5 6.5 q-8.5 6.5 -13.5 16.5 l-279 521 q-9 18 -16 34 q-7 16 -12 33 q-5 -17 -11.5 -33 q-6.5 -16 -14.5 -34 l-275 -521 q-4 -8 -12.5 -15.5 q-8.5 -7.5 -22.5 -7.5 l-70 0 l376 700 l59 0 l379 -700 Z" /><glyph glyph-name="" unicode="~" d="M782 567 q37 0 67.5 13.5 q30.5 13.5 51.5 37.5 q21 24 32.5 57 q11.5 33 11.5 72 l78 0 q0 -55 -16 -102 q-16 -47 -46 -82 q-30 -35 -74 -55 q-44 -20 -100 -20 q-51 0 -104.5 19.5 q-53.5 19.5 -106 43.5 q-52.5 24 -101.5 43.5 q-49 19.5 -92 19.5 q-38 0 -67.5 -13.5 q-29.5 -13.5 -50.5 -37.5 q-21 -24 -32.5 -57 q-11.5 -33 -12.5 -72 l-77 0 q0 55 16 102 q16 47 46 82 q30 35 73.5 55 q43.5 20 99.5 20 q52 0 105.5 -19.5 q53.5 -19.5 105.5 -43.5 q52 -24 101 -43.5 q49 -19.5 92 -19.5 Z" /><glyph glyph-name="" unicode="&#39;" d="M237 1415 l0 -292 l-9 -153 q-2 -17 -9 -26.5 q-7 -9.5 -24 -9.5 q-14 0 -22 9.5 q-8 9.5 -10 26.5 l-9 153 l0 292 l83 0 Z" /><glyph glyph-name="" unicode="&amp;" d="M491 738 q-66 -27 -119.5 -66 q-53.5 -39 -90.5 -87 q-37 -48 -57 -103 q-20 -55 -20 -114 q0 -77 29.5 -134 q29.5 -57 76.5 -95.5 q47 -38.5 104.5 -57.5 q57.5 -19 113.5 -19 q71 0 133.5 16 q62.5 16 116.5 44.5 q54 28.5 100 68 q46 39.5 83 85.5 l-459 451 l-11 11 ZM1365 0 l-89 0 q-18 0 -29.5 4 q-11.5 4 -26.5 18 l-205 201 q-44 -52 -98 -95.5 q-54 -43.5 -117 -75.5 q-63 -32 -135 -50 q-72 -18 -151 -18 q-75 0 -148 25 q-73 25 -130.5 73.5 q-57.5 48.5 -93 119 q-35.5 70.5 -35.5 160.5 q0 72 26 137.5 q26 65.5 71 120 q45 54.5 107 97.5 q62 43 134 70 q-72 81 -107 156 q-35 75 -35 161 q0 70 25.5 129.5 q25.5 59.5 72.5 103.5 q47 44 112.5 69 q65.5 25 146.5 25 q67 0 127 -23 q60 -23 104.5 -62 q44.5 -39 71 -90.5 q26.5 -51.5 28.5 -107.5 l-54 -11 q-10 -2 -18.5 3.5 q-8.5 5.5 -13.5 19.5 q-5 27 -21.5 61 q-16.5 34 -46.5 64 q-30 30 -74 50.5 q-44 20.5 -103 20.5 q-60 0 -109 -18.5 q-49 -18.5 -84 -52 q-35 -33.5 -54.5 -79.5 q-19.5 -46 -19.5 -101 q0 -82 42 -157 q42 -75 130 -161 l447 -439 q45 72 71 149.5 q26 77.5 34 150.5 q2 13 8 20.5 q6 7.5 18 7.5 l55 0 q-2 -94 -35 -193.5 q-33 -99.5 -95 -190.5 l297 -292 Z" /><glyph glyph-name="" unicode="@" d="M1086 845 q-24 7 -49.5 10.5 q-25.5 3.5 -59.5 3.5 q-90 0 -163.5 -36.5 q-73.5 -36.5 -125 -95.5 q-51.5 -59 -80 -132.5 q-28.5 -73.5 -28.5 -148.5 q0 -40 10 -74.5 q10 -34.5 30 -59.5 q20 -25 49.5 -39.5 q29.5 -14.5 69.5 -14.5 q36 0 74.5 12 q38.5 12 74 43.5 q35.5 31.5 66.5 85 q31 53.5 52 136.5 l80 310 ZM1082 541 q-24 -92 -23 -149 q1 -57 19 -88.5 q18 -31.5 48.5 -42 q30.5 -10.5 65.5 -10.5 q57 0 109 30 q52 30 92 85.5 q40 55.5 63.5 134.5 q23.5 79 23.5 177 q0 148 -48.5 258.5 q-48.5 110.5 -132 183.5 q-83.5 73 -194.5 109 q-111 36 -236 36 q-137 0 -259.5 -53 q-122.5 -53 -215 -148 q-92.5 -95 -147 -226.5 q-54.5 -131.5 -54.5 -288.5 q0 -177 56.5 -311.5 q56.5 -134.5 153.5 -225 q97 -90.5 226.5 -137 q129.5 -46.5 275.5 -46.5 q148 0 270.5 34 q122.5 34 222.5 99 q12 8 22 5 q10 -3 15 -14 l15 -37 q-112 -74 -246.5 -114 q-134.5 -40 -298.5 -40 q-165 0 -308 52.5 q-143 52.5 -249 153 q-106 100.5 -167 247 q-61 146.5 -61 334.5 q0 167 59 310 q59 143 161 248 q102 105 238 164.5 q136 59.5 291 59.5 q134 0 257 -41.5 q123 -41.5 217.5 -124 q94.5 -82.5 151 -204.5 q56.5 -122 56.5 -283 q0 -109 -29 -199 q-29 -90 -79.5 -154.5 q-50.5 -64.5 -118.5 -100.5 q-68 -36 -145 -36 q-88 0 -132.5 46.5 q-44.5 46.5 -46.5 134.5 q-56 -94 -126.5 -135.5 q-70.5 -41.5 -152.5 -41.5 q-56 0 -97 19.5 q-41 19.5 -68 53.5 q-27 34 -40.5 80 q-13.5 46 -13.5 99 q0 85 32.5 170.5 q32.5 85.5 95 154 q62.5 68.5 153.5 111.5 q91 43 207 43 q53 0 99.5 -9 q46.5 -9 83.5 -26 l-91 -347 Z" /><glyph glyph-name="" unicode="©" d="M1132 426 q10 1 17 -4 l34 -35 q-59 -59 -139 -94 q-80 -35 -196 -35 q-96 0 -176 32.5 q-80 32.5 -137.5 91.5 q-57.5 59 -89.5 142 q-32 83 -32 185 q0 100 33.5 183 q33.5 83 93 142.5 q59.5 59.5 142.5 92.5 q83 33 182 33 q52 0 95.5 -7.5 q43.5 -7.5 80.5 -22 q37 -14.5 69.5 -35 q32.5 -20.5 62.5 -47.5 l-23 -33 q-7 -11 -21 -11 q-9 0 -25.5 13 q-16.5 13 -46 28.5 q-29.5 15.5 -75 28.5 q-45.5 13 -113.5 13 q-83 0 -151 -26.5 q-68 -26.5 -116.5 -75.5 q-48.5 -49 -75 -119 q-26.5 -70 -26.5 -157 q0 -90 26.5 -160 q26.5 -70 74 -118.5 q47.5 -48.5 112 -74 q64.5 -25.5 140.5 -25.5 q55 0 95 7.5 q40 7.5 72 20 q32 12.5 58.5 30 q26.5 17.5 54.5 37.5 ZM119 708 q0 99 26 191.5 q26 92.5 73 172.5 q47 80 113 146 q66 66 146 113 q80 47 172 73 q92 26 192 26 q99 0 191.5 -26 q92.5 -26 172.5 -73 q80 -47 146 -113 q66 -66 113 -146 q47 -80 73 -172.5 q26 -92.5 26 -191.5 q0 -100 -26 -192 q-26 -92 -73 -172 q-47 -80 -113 -146 q-66 -66 -146 -113 q-80 -47 -172.5 -73 q-92.5 -26 -191.5 -26 q-100 0 -192 26 q-92 26 -172 73 q-80 47 -146 113 q-66 66 -113 146 q-47 80 -73 172 q-26 92 -26 192 ZM179 708 q0 -139 51.5 -260.5 q51.5 -121.5 141.5 -212 q90 -90.5 210.5 -142.5 q120.5 -52 258.5 -52 q92 0 177 23.5 q85 23.5 159 67 q74 43.5 134.5 104 q60.5 60.5 104 134.5 q43.5 74 67 159.5 q23.5 85.5 23.5 178.5 q0 139 -52 260.5 q-52 121.5 -142.5 212.5 q-90.5 91 -211.5 143.5 q-121 52.5 -259 52.5 q-138 0 -258.5 -52.5 q-120.5 -52.5 -210.5 -143.5 q-90 -91 -141.5 -212.5 q-51.5 -121.5 -51.5 -260.5 Z" /><glyph glyph-name="" unicode="&#x2117;" d="M836 683 q70 0 118.5 15.5 q48.5 15.5 79 43 q30.5 27.5 44 66 q13.5 38.5 13.5 83.5 q0 45 -13.5 81 q-13.5 36 -42.5 61 q-29 25 -74.5 38.5 q-45.5 13.5 -110.5 13.5 l-162 0 l0 -402 l148 0 ZM850 1151 q82 0 143 -19 q61 -19 101.5 -53 q40.5 -34 60.5 -82 q20 -48 20 -106 q0 -56 -20 -105.5 q-20 -49.5 -61.5 -86.5 q-41.5 -37 -104.5 -58 q-63 -21 -148 -21 l-153 0 l0 -354 l-85 0 l0 885 l247 0 ZM841 41 q92 0 177 23.5 q85 23.5 159 67 q74 43.5 134.5 104 q60.5 60.5 104 134.5 q43.5 74 67 159.5 q23.5 85.5 23.5 178.5 q0 139 -52 260.5 q-52 121.5 -142.5 212.5 q-90.5 91 -211.5 143.5 q-121 52.5 -259 52.5 q-138 0 -258.5 -52.5 q-120.5 -52.5 -210.5 -143.5 q-90 -91 -141.5 -212.5 q-51.5 -121.5 -51.5 -260.5 q0 -139 51.5 -260.5 q51.5 -121.5 141.5 -212 q90 -90.5 210.5 -142.5 q120.5 -52 258.5 -52 ZM841 1430 q99 0 191.5 -26 q92.5 -26 172.5 -73 q80 -47 146 -113 q66 -66 113 -146 q47 -80 73 -172.5 q26 -92.5 26 -191.5 q0 -100 -26 -192 q-26 -92 -73 -172 q-47 -80 -113 -146 q-66 -66 -146 -113 q-80 -47 -172.5 -73 q-92.5 -26 -191.5 -26 q-100 0 -192 26 q-92 26 -172 73 q-80 47 -146 113 q-66 66 -113 146 q-47 80 -73 172 q-26 92 -26 192 q0 99 26 191.5 q26 92.5 73 172.5 q47 80 113 146 q66 66 146 113 q80 47 172 73 q92 26 192 26 Z" /><glyph glyph-name="" unicode="®" d="M806 721 q121 0 180.5 48.5 q59.5 48.5 59.5 139.5 q0 92 -53.5 134 q-53.5 42 -172.5 42 l-162 0 l0 -364 l148 0 ZM820 1151 q154 0 232 -57.5 q78 -57.5 78 -175.5 q0 -100 -64 -164 q-64 -64 -181 -80 q21 -12 39 -40 l285 -368 l-79 0 q-11 0 -18 3 q-7 3 -13 13 l-271 351 q-8 11 -20 17.5 q-12 6.5 -40 6.5 l-110 0 l0 -391 l-85 0 l0 885 l247 0 ZM841 41 q92 0 177 23.5 q85 23.5 159 67 q74 43.5 134.5 104 q60.5 60.5 104 134.5 q43.5 74 67 159.5 q23.5 85.5 23.5 178.5 q0 139 -52 260.5 q-52 121.5 -142.5 212.5 q-90.5 91 -211.5 143.5 q-121 52.5 -259 52.5 q-138 0 -258.5 -52.5 q-120.5 -52.5 -210.5 -143.5 q-90 -91 -141.5 -212.5 q-51.5 -121.5 -51.5 -260.5 q0 -139 51.5 -260.5 q51.5 -121.5 141.5 -212 q90 -90.5 210.5 -142.5 q120.5 -52 258.5 -52 ZM841 1430 q99 0 191.5 -26 q92.5 -26 172.5 -73 q80 -47 146 -113 q66 -66 113 -146 q47 -80 73 -172.5 q26 -92.5 26 -191.5 q0 -100 -26 -192 q-26 -92 -73 -172 q-47 -80 -113 -146 q-66 -66 -146 -113 q-80 -47 -172.5 -73 q-92.5 -26 -191.5 -26 q-100 0 -192 26 q-92 26 -172 73 q-80 47 -146 113 q-66 66 -113 146 q-47 80 -73 172 q-26 92 -26 192 q0 99 26 191.5 q26 92.5 73 172.5 q47 80 113 146 q66 66 146 113 q80 47 172 73 q92 26 192 26 Z" /><glyph glyph-name="" unicode="&#x2122;" d="M96 1415 l471 0 l0 -59 l-199 0 l0 -516 l-71 0 l0 516 l-201 0 l0 59 ZM1310 1415 l0 -575 l-62 0 l0 443 l5 44 l-219 -380 q-8 -16 -25 -16 l-11 0 q-17 0 -25 16 l-223 379 l5 -43 l0 -443 l-63 0 l0 575 l57 0 q10 0 14.5 -2 q4.5 -2 11.5 -10 l217 -364 q4 -8 6.5 -15 q2.5 -7 4.5 -14 q3 7 6 14 q3 7 7 15 l213 364 q5 8 9.5 10 q4.5 2 14.5 2 l57 0 Z" /><glyph glyph-name="" unicode="&#x2120;" d="M492 1337 q-6 -10 -16 -10 q-6 0 -15 7 q-9 7 -23 15.5 q-14 8.5 -35 15.5 q-21 7 -51 7 q-54 0 -83 -28 q-29 -28 -29 -68 q0 -34 20.5 -52.5 q20.5 -18.5 51.5 -31.5 q31 -13 67.5 -24 q36.5 -11 67.5 -28.5 q31 -17.5 51.5 -46 q20.5 -28.5 20.5 -75.5 q0 -37 -12.5 -69.5 q-12.5 -32.5 -37 -57 q-24.5 -24.5 -60 -38.5 q-35.5 -14 -80.5 -14 q-56 0 -100 20.5 q-44 20.5 -76 55.5 l17 30 q5 10 16 10 q7 0 17.5 -9.5 q10.5 -9.5 27 -21 q16.5 -11.5 41 -21 q24.5 -9.5 59.5 -9.5 q62 0 94 34 q32 34 32 82 q0 36 -20.5 55.5 q-20.5 19.5 -51.5 32 q-31 12.5 -67.5 22.5 q-36.5 10 -67.5 27.5 q-31 17.5 -51.5 46.5 q-20.5 29 -20.5 79 q0 30 11.5 58 q11.5 28 34 49 q22.5 21 54.5 34 q32 13 74 13 q94 0 153 -59 l-13 -31 ZM1281 1415 l0 -575 l-61 0 l0 443 l4 45 l-218 -381 q-8 -16 -26 -16 l-10 0 q-18 0 -26 16 l-223 380 l6 -44 l0 -443 l-63 0 l0 575 l56 0 q11 0 15.5 -2 q4.5 -2 10.5 -10 l217 -364 q8 -16 12 -31 q5 17 13 31 l212 364 q5 8 10 10 q5 2 15 2 l56 0 Z" /><glyph glyph-name="" unicode="°" d="M112 1134 q0 62 23.5 116.5 q23.5 54.5 64 95 q40.5 40.5 95.5 63.5 q55 23 118 23 q63 0 118.5 -23 q55.5 -23 96 -63.5 q40.5 -40.5 64 -95 q23.5 -54.5 23.5 -116.5 q0 -62 -23.5 -116 q-23.5 -54 -64 -94.5 q-40.5 -40.5 -96 -64 q-55.5 -23.5 -118.5 -23.5 q-63 0 -118 23.5 q-55 23.5 -95.5 64 q-40.5 40.5 -64 94.5 q-23.5 54 -23.5 116 ZM184 1134 q0 -48 18 -90 q18 -42 48.5 -73 q30.5 -31 72.5 -49 q42 -18 90 -18 q48 0 90 18 q42 18 73 49 q31 31 49 73 q18 42 18 90 q0 48 -18 90 q-18 42 -49 73.5 q-31 31.5 -73 49.5 q-42 18 -90 18 q-48 0 -90 -18 q-42 -18 -72.5 -49.5 q-30.5 -31.5 -48.5 -73.5 q-18 -42 -18 -90 Z" /><glyph glyph-name="" unicode="¤" d="M309 671 q0 -56 21.5 -105 q21.5 -49 58 -85.5 q36.5 -36.5 86 -58 q49.5 -21.5 105.5 -21.5 q56 0 105.5 21.5 q49.5 21.5 86.5 58 q37 36.5 58.5 85.5 q21.5 49 21.5 105 q0 56 -21.5 105.5 q-21.5 49.5 -58.5 86.5 q-37 37 -86.5 58.5 q-49.5 21.5 -105.5 21.5 q-56 0 -105.5 -21.5 q-49.5 -21.5 -86 -58.5 q-36.5 -37 -58 -86.5 q-21.5 -49.5 -21.5 -105.5 ZM951 251 l-153 154 q-45 -36 -100 -56.5 q-55 -20.5 -118 -20.5 q-62 0 -116.5 20 q-54.5 20 -99.5 56 l-155 -154 l-49 50 l154 154 q-36 45 -56.5 99.5 q-20.5 54.5 -20.5 117.5 q0 62 20 116.5 q20 54.5 56 99.5 l-154 154 l49 50 l154 -154 q45 37 100 57.5 q55 20.5 118 20.5 q62 0 117 -20.5 q55 -20.5 100 -55.5 l153 153 l49 -50 l-153 -153 q37 -45 57.5 -100 q20.5 -55 20.5 -118 q0 -62 -20.5 -116.5 q-20.5 -54.5 -56.5 -99.5 l154 -154 l-50 -50 Z" /><glyph glyph-name="" unicode="&#x20ac;" d="M19 863 l164 0 q16 132 61 237 q45 105 114 178 q69 73 160.5 112 q91.5 39 201.5 39 q64 0 118 -11.5 q54 -11.5 100.5 -33.5 q46.5 -22 87 -54.5 q40.5 -32.5 77.5 -75.5 l-30 -35 q-5 -5 -9.5 -8.5 q-4.5 -3.5 -12.5 -3.5 q-8 0 -19 10.5 q-11 10.5 -28 25.5 q-17 15 -41.5 33.5 q-24.5 18.5 -58.5 33.5 q-34 15 -78.5 25.5 q-44.5 10.5 -102.5 10.5 q-90 0 -164.5 -31.5 q-74.5 -31.5 -131.5 -92.5 q-57 -61 -94 -151 q-37 -90 -52 -208 l602 0 l0 -30 q0 -11 -7.5 -19.5 q-7.5 -8.5 -23.5 -8.5 l-577 0 q-3 -47 -3 -97 q0 -21 0.5 -40.5 q0.5 -19.5 1.5 -39.5 l518 0 l0 -30 q0 -12 -8.5 -20.5 q-8.5 -8.5 -23.5 -8.5 l-481 0 q13 -124 49 -218 q36 -94 92.5 -157 q56.5 -63 131.5 -95 q75 -32 165 -32 q62 0 109.5 12 q47.5 12 83.5 30.5 q36 18.5 61.5 40 q25.5 21.5 44 40 q18.5 18.5 31 30.5 q12.5 12 21.5 12 q10 0 18 -9 l37 -35 q-36 -46 -78 -83.5 q-42 -37.5 -92.5 -64 q-50.5 -26.5 -110.5 -41 q-60 -14.5 -131 -14.5 q-113 0 -205 39 q-92 39 -159.5 114 q-67.5 75 -109.5 183.5 q-42 108.5 -56 247.5 l-162 0 l0 59 l157 0 q-1 20 -1.5 39.5 q-0.5 19.5 -0.5 40.5 q0 49 3 97 l-158 0 l0 58 Z" /><glyph glyph-name="" unicode="$" d="M593 65 q80 5 142 32.5 q62 27.5 105 72 q43 44.5 65 103 q22 58.5 22 125.5 q0 66 -25 112 q-25 46 -67 78 q-42 32 -96.5 53.5 q-54.5 21.5 -114.5 40.5 l-31 -617 ZM593 1347 q-76 -4 -132.5 -27.5 q-56.5 -23.5 -94.5 -61 q-38 -37.5 -57 -85.5 q-19 -48 -19 -101 q0 -62 22 -106 q22 -44 60 -75.5 q38 -31.5 87.5 -54 q49.5 -22.5 105.5 -41.5 l28 552 ZM628 775 q71 -23 141 -48.5 q70 -25.5 125 -65.5 q55 -40 89 -99 q34 -59 34 -149 q0 -86 -28.5 -162 q-28.5 -76 -83.5 -133.5 q-55 -57.5 -134.5 -92.5 q-79.5 -35 -181.5 -40 l-11 -211 q-1 -13 -8.5 -22 q-7.5 -9 -21.5 -9 l-36 0 l12 242 q-128 6 -222.5 55 q-94.5 49 -166.5 129 l27 39 q12 15 28 15 q9 0 22 -11 q13 -11 32 -27.5 q19 -16.5 45 -36 q26 -19.5 60.5 -37 q34.5 -17.5 78.5 -30.5 q44 -13 100 -16 l33 637 q-68 21 -133 46.5 q-65 25.5 -115.5 66 q-50.5 40.5 -81.5 100 q-31 59.5 -31 149.5 q0 70 26.5 134.5 q26.5 64.5 77 115 q50.5 50.5 124.5 81.5 q74 31 170 34 l8 167 q0 14 8 23 q8 9 21 9 l36 0 l-10 -201 q101 -7 177 -44.5 q76 -37.5 139 -100.5 l-22 -34 q-10 -17 -27 -17 q-12 0 -31.5 16.5 q-19.5 16.5 -51 37 q-31.5 20.5 -77.5 39 q-46 18.5 -111 23.5 l-29 -572 Z" /><glyph glyph-name="" unicode="¢" d="M642 937 q-92 -3 -163.5 -35 q-71.5 -32 -120 -88.5 q-48.5 -56.5 -74 -136.5 q-25.5 -80 -25.5 -179 q0 -98 24 -175.5 q24 -77.5 68 -133 q44 -55.5 107 -87.5 q63 -32 141 -39 l43 874 ZM1001 128 q-23 -29 -57.5 -53.5 q-34.5 -24.5 -78.5 -43 q-44 -18.5 -96 -30 q-52 -11.5 -110 -13.5 l-10 -210 q-1 -13 -8.5 -22 q-7.5 -9 -21.5 -9 l-36 0 l12 241 q-96 6 -175 43.5 q-79 37.5 -136 102.5 q-57 65 -88 157 q-31 92 -31 207 q0 112 32 206 q32 94 93.5 161.5 q61.5 67.5 151 105.5 q89.5 38 204.5 40 l10 205 q1 13 8.5 22.5 q7.5 9.5 21.5 9.5 l36 0 l-12 -239 q87 -8 155 -37.5 q68 -29.5 120 -75.5 l-24 -33 q-5 -5 -9.5 -8.5 q-4.5 -3.5 -12.5 -3.5 q-9 0 -25.5 11.5 q-16.5 11.5 -44 26 q-27.5 14.5 -67.5 28 q-40 13.5 -96 18.5 l-43 -874 q75 2 126 19 q51 17 84.5 36.5 q33.5 19.5 53 35.5 q19.5 16 30.5 16 q11 0 20 -9 l24 -31 Z" /><glyph glyph-name="" unicode="£" d="M61 664 q0 15 9.5 25 q9.5 10 26.5 10 l165 0 l0 294 q0 93 26 173 q26 80 77.5 138.5 q51.5 58.5 129 92 q77.5 33.5 179.5 33.5 q76 0 134 -18.5 q58 -18.5 101.5 -50.5 q43.5 -32 74.5 -75 q31 -43 53 -91 l-38 -22 q-15 -7 -28 -5 q-13 2 -24 17 q-20 31 -42.5 60.5 q-22.5 29.5 -53.5 52.5 q-31 23 -74 36.5 q-43 13.5 -103 13.5 q-78 0 -136.5 -26 q-58.5 -26 -98.5 -72.5 q-40 -46.5 -60 -112 q-20 -65.5 -20 -144.5 l0 -294 l479 0 l0 -39 q0 -11 -8.5 -19.5 q-8.5 -8.5 -21.5 -8.5 l-449 0 l0 -304 q0 -89 -36 -149.5 q-36 -60.5 -99 -103.5 q22 4 43.5 6 q21.5 2 44.5 2 l787 0 l0 -40 q0 -15 -12 -29 q-12 -14 -32 -14 l-970 0 l0 65 q34 13 66 33 q32 20 57 49 q25 29 39.5 68 q14.5 39 14.5 91 l0 326 l-201 0 l0 32 Z" /><glyph glyph-name="" unicode="¥" d="M648 616 l346 0 l0 -58 l-366 0 l0 -118 l366 0 l0 -58 l-366 0 l0 -382 l-96 0 l0 382 l-366 0 l0 58 l366 0 l0 118 l-366 0 l0 58 l346 0 l-422 799 l80 0 q27 0 38 -25 l346 -665 q9 -20 15.5 -38 q6.5 -18 11.5 -35 q5 18 11 35.5 q6 17.5 14 37.5 l346 665 q5 11 14.5 18 q9.5 7 23.5 7 l80 0 l-422 -799 Z" /><glyph glyph-name="" unicode="&#x2105;" d="M1241 1397 q6 8 14.5 13 q8.5 5 22.5 5 l67 0 l-1016 -1397 q-13 -18 -35 -18 l-68 0 l1015 1397 ZM633 848 q7 0 12 -5 l30 -33 q-45 -49 -106.5 -77 q-61.5 -28 -150.5 -28 q-76 0 -138.5 26.5 q-62.5 26.5 -107 74.5 q-44.5 48 -69 115 q-24.5 67 -24.5 149 q0 81 25.5 148.5 q25.5 67.5 71.5 116 q46 48.5 110 75 q64 26.5 141 26.5 q75 0 133 -23.5 q58 -23.5 103 -65.5 l-25 -35 q-5 -9 -17 -9 q-8 0 -21 10.5 q-13 10.5 -35.5 23 q-22.5 12.5 -56 23 q-33.5 10.5 -81.5 10.5 q-59 0 -108.5 -20.5 q-49.5 -20.5 -85.5 -59.5 q-36 -39 -56 -94.5 q-20 -55.5 -20 -125.5 q0 -71 20.5 -126.5 q20.5 -55.5 56 -94 q35.5 -38.5 84 -59 q48.5 -20.5 104.5 -20.5 q35 0 62.5 4.5 q27.5 4.5 51 13.5 q23.5 9 43.5 22.5 q20 13.5 40 31.5 q8 6 14 6 ZM1532 348 q0 -81 -25 -148 q-25 -67 -71 -115 q-46 -48 -109.5 -74.5 q-63.5 -26.5 -141.5 -26.5 q-77 0 -141 26.5 q-64 26.5 -110 74.5 q-46 48 -71 115 q-25 67 -25 148 q0 81 25 148.5 q25 67.5 71 116 q46 48.5 110 75 q64 26.5 141 26.5 q78 0 141.5 -26.5 q63.5 -26.5 109.5 -75 q46 -48.5 71 -116 q25 -67.5 25 -148.5 ZM1453 348 q0 70 -19 125.5 q-19 55.5 -54 94.5 q-35 39 -84.5 59.5 q-49.5 20.5 -110.5 20.5 q-60 0 -110 -20.5 q-50 -20.5 -85 -59.5 q-35 -39 -54.5 -94.5 q-19.5 -55.5 -19.5 -125.5 q0 -70 19.5 -125.5 q19.5 -55.5 54.5 -94 q35 -38.5 85 -59 q50 -20.5 110 -20.5 q61 0 110.5 20.5 q49.5 20.5 84.5 59 q35 38.5 54 94 q19 55.5 19 125.5 Z" /><glyph glyph-name="" unicode="&#x2116;" d="M1841 1367 q-51 0 -93 -17.5 q-42 -17.5 -72 -50.5 q-30 -33 -46.5 -80 q-16.5 -47 -16.5 -106 q0 -59 16.5 -106 q16.5 -47 46.5 -79.5 q30 -32.5 72 -50 q42 -17.5 93 -17.5 q51 0 93 17.5 q42 17.5 72 50 q30 32.5 46 79.5 q16 47 16 106 q0 59 -16 106 q-16 47 -46 80 q-30 33 -72 50.5 q-42 17.5 -93 17.5 ZM1841 795 q-68 0 -123.5 23 q-55.5 23 -95 65 q-39.5 42 -61.5 100 q-22 58 -22 129 q0 71 22 129.5 q22 58.5 61.5 100.5 q39.5 42 95 65.5 q55.5 23.5 123.5 23.5 q68 0 124 -23.5 q56 -23.5 96 -65.5 q40 -42 62 -100.5 q22 -58.5 22 -129.5 q0 -71 -22 -129 q-22 -58 -62 -100 q-40 -42 -96 -65 q-56 -23 -124 -23 ZM1229 1415 l89 0 l0 -1415 l-48 0 q-13 0 -21.5 4.5 q-8.5 4.5 -16.5 15.5 l-919 1228 q3 -30 3 -57 l0 -1191 l-90 0 l0 1415 l51 0 q14 0 21.5 -3.5 q7.5 -3.5 16.5 -15.5 l917 -1225 q-3 30 -3 57 l0 1187 ZM1538 631 l606 0 l0 -69 l-606 0 l0 69 Z" /><glyph glyph-name="" unicode="#" d="M765 902 l-298 0 l-82 -389 l298 0 l82 389 ZM1079 973 l-6 -38 q-2 -17 -12.5 -25 q-10.5 -8 -31.5 -8 l-184 0 l-82 -389 l225 0 q16 0 24 -9 q8 -9 5 -31 l-4 -30 l-261 0 l-94 -443 l-40 0 q-17 0 -26.5 12 q-9.5 12 -4.5 32 l85 399 l-298 0 l-85 -403 q-4 -22 -17 -31 q-13 -9 -30 -9 l-42 0 l94 443 l-182 0 q-17 0 -24.5 9 q-7.5 9 -5.5 32 l4 29 l219 0 l82 389 l-254 0 l6 38 q4 33 45 33 l214 0 l86 404 q3 19 15.5 28.5 q12.5 9.5 30.5 9.5 l41 0 l-93 -442 l298 0 l93 442 l42 0 q17 0 26 -11 q9 -11 5 -31 l-86 -400 l223 0 Z" /><glyph glyph-name="" unicode="0" d="M1087 708 q0 -186 -40 -322 q-40 -136 -109 -225 q-69 -89 -161.5 -132.5 q-92.5 -43.5 -197.5 -43.5 q-105 0 -197 43.5 q-92 43.5 -161 132.5 q-69 89 -108.5 225 q-39.5 136 -39.5 322 q0 186 39.5 322 q39.5 136 108.5 225 q69 89 161 132.5 q92 43.5 197 43.5 q105 0 197.5 -43.5 q92.5 -43.5 161.5 -132.5 q69 -89 109 -225 q40 -136 40 -322 ZM987 708 q0 172 -33 294 q-33 122 -88.5 199.5 q-55.5 77.5 -130 113.5 q-74.5 36 -156.5 36 q-82 0 -156 -36 q-74 -36 -130 -113.5 q-56 -77.5 -89 -199.5 q-33 -122 -33 -294 q0 -173 33 -294.5 q33 -121.5 89 -199 q56 -77.5 130 -113 q74 -35.5 156 -35.5 q82 0 156.5 35.5 q74.5 35.5 130 113 q55.5 77.5 88.5 199 q33 121.5 33 294.5 Z" /><glyph glyph-name="" unicode="1" d="M997 74 l0 -74 l-730 0 l0 74 l325 0 l0 1148 q0 34 3 72 l-312 -277 q-14 -12 -28 -9 q-14 3 -22 12 l-29 40 l409 361 l75 0 l0 -1347 l309 0 Z" /><glyph glyph-name="" unicode="2" d="M994 90 q16 0 25 -9.5 q9 -9.5 9 -24.5 l0 -56 l-913 0 l0 34 q0 11 5.5 22.5 q5.5 11.5 14.5 19.5 l483 489 q60 61 111 118 q51 57 88.5 115 q37.5 58 58.5 119 q21 61 21 130 q0 78 -26 135.5 q-26 57.5 -69 94.5 q-43 37 -100 55 q-57 18 -118 18 q-67 0 -123.5 -20.5 q-56.5 -20.5 -100 -57 q-43.5 -36.5 -72 -87 q-28.5 -50.5 -39.5 -110.5 q-7 -22 -18.5 -29 q-11.5 -7 -31.5 -5 l-49 8 q13 91 50 162 q37 71 94 120 q57 49 132 74.5 q75 25.5 162 25.5 q81 0 154.5 -23.5 q73.5 -23.5 130 -71 q56.5 -47.5 89.5 -119 q33 -71.5 33 -167.5 q0 -80 -24.5 -148.5 q-24.5 -68.5 -66.5 -131.5 q-42 -63 -97.5 -122.5 q-55.5 -59.5 -116.5 -121.5 l-443 -452 q32 8 66.5 12 q34.5 4 69.5 4 l611 0 Z" /><glyph glyph-name="" unicode="3" d="M156 1049 q13 91 50 162 q37 71 94 120 q57 49 132 74.5 q75 25.5 162 25.5 q81 0 153 -22.5 q72 -22.5 126.5 -67.5 q54.5 -45 86 -112 q31.5 -67 31.5 -155 q0 -69 -21 -124.5 q-21 -55.5 -58.5 -97.5 q-37.5 -42 -88.5 -70.5 q-51 -28.5 -111 -43.5 q156 -29 235.5 -120.5 q79.5 -91.5 79.5 -228.5 q0 -87 -35 -161.5 q-35 -74.5 -96 -128.5 q-61 -54 -144 -84.5 q-83 -30.5 -180 -30.5 q-121 0 -201.5 32.5 q-80.5 32.5 -132.5 84.5 q-52 52 -81 116.5 q-29 64.5 -47 128.5 l38 16 q16 7 33.5 4 q17.5 -3 25.5 -23 q5 -12 13.5 -37.5 q8.5 -25.5 24.5 -56.5 q16 -31 41.5 -63.5 q25.5 -32.5 64 -59.5 q38.5 -27 92.5 -44 q54 -17 128 -17 q90 0 157.5 30 q67.5 30 113 76.5 q45.5 46.5 68 104 q22.5 57.5 22.5 111.5 q0 65 -20.5 121 q-20.5 56 -68.5 96.5 q-48 40.5 -126.5 64 q-78.5 23.5 -193.5 23.5 l0 69 q92 2 162 24.5 q70 22.5 117 61.5 q47 39 71 93 q24 54 24 119 q0 75 -25 130 q-25 55 -67 91 q-42 36 -98 53 q-56 17 -117 17 q-67 0 -124 -20.5 q-57 -20.5 -100.5 -57 q-43.5 -36.5 -72.5 -87 q-29 -50.5 -40 -110.5 q-6 -22 -17 -29 q-11 -7 -31 -5 l-49 8 Z" /><glyph glyph-name="" unicode="4" d="M753 482 l0 741 q0 17 1.5 37 q1.5 20 3.5 41 l-612 -819 l607 0 ZM1096 482 l0 -52 q0 -11 -6.5 -17.5 q-6.5 -6.5 -20.5 -6.5 l-232 0 l0 -406 l-84 0 l0 406 l-669 0 q-15 0 -23 6.5 q-8 6.5 -11 17.5 l-9 47 l711 940 l85 0 l0 -935 l259 0 Z" /><glyph glyph-name="" unicode="5" d="M310 855 q67 17 126.5 24.5 q59.5 7.5 113.5 7.5 q111 0 195 -31.5 q84 -31.5 140.5 -88 q56.5 -56.5 85 -134.5 q28.5 -78 28.5 -170 q0 -112 -38.5 -200.5 q-38.5 -88.5 -105.5 -150.5 q-67 -62 -156 -95 q-89 -33 -189 -33 q-58 0 -111.5 10.5 q-53.5 10.5 -100 28 q-46.5 17.5 -86 40.5 q-39.5 23 -69.5 47 l29 39 q9 15 28 15 q13 0 37.5 -15 q24.5 -15 63 -33 q38.5 -18 91.5 -33 q53 -15 123 -15 q82 0 153 26.5 q71 26.5 123 76.5 q52 50 81.5 123.5 q29.5 73.5 29.5 166.5 q0 76 -22.5 140 q-22.5 64 -68 109.5 q-45.5 45.5 -115 71 q-69.5 25.5 -163.5 25.5 q-57 0 -121 -9 q-64 -9 -136 -29 l-61 19 l110 627 l637 0 l0 -41 q0 -20 -13.5 -33.5 q-13.5 -13.5 -42.5 -13.5 l-512 0 l-84 -472 Z" /><glyph glyph-name="" unicode="7" d="M1067 1415 l0 -43 q0 -17 -4 -29.5 q-4 -12.5 -9 -21.5 l-648 -1285 q-8 -16 -21.5 -26 q-13.5 -10 -35.5 -10 l-66 0 l654 1280 q13 26 31 47 l-816 0 q-11 0 -19 8 q-8 8 -8 19 l0 61 l942 0 Z" /><glyph glyph-name="" unicode="9" d="M559 676 q85 0 152 29 q67 29 112.5 76 q45.5 47 69.5 105.5 q24 58.5 24 118.5 q0 77 -25 141 q-25 64 -70 109.5 q-45 45.5 -106.5 71 q-61.5 25.5 -134.5 25.5 q-79 0 -144 -25 q-65 -25 -111.5 -70 q-46.5 -45 -72.5 -107.5 q-26 -62.5 -26 -137.5 q0 -78 23.5 -140.5 q23.5 -62.5 67 -106 q43.5 -43.5 105 -66.5 q61.5 -23 136.5 -23 ZM748 584 q30 43 56 80.5 q26 37.5 47 73.5 q-58 -65 -141 -100.5 q-83 -35.5 -177 -35.5 q-87 0 -160.5 28.5 q-73.5 28.5 -127.5 81.5 q-54 53 -84 127.5 q-30 74.5 -30 166.5 q0 91 34 168.5 q34 77.5 94 134.5 q60 57 142.5 89.5 q82.5 32.5 180.5 32.5 q94 0 172.5 -32 q78.5 -32 135 -90.5 q56.5 -58.5 88 -140 q31.5 -81.5 31.5 -181.5 q0 -55 -11.5 -105 q-11.5 -50 -34 -100 q-22.5 -50 -54.5 -102.5 q-32 -52.5 -73 -112.5 l-371 -544 q-15 -23 -49 -23 l-87 0 l419 584 Z" /><glyph glyph-name="" unicode="&#x2044;" d="M-212 31 q-11 -18 -24.5 -24.5 q-13.5 -6.5 -30.5 -6.5 l-40 0 l800 1380 q10 17 22.5 26 q12.5 9 32.5 9 l42 0 l-802 -1384 Z" /><glyph glyph-name="" unicode="+" d="M1050 634 l-431 0 l0 -453 l-78 0 l0 453 l-430 0 l0 73 l430 0 l0 451 l78 0 l0 -451 l431 0 l0 -73 Z" /><glyph glyph-name="" unicode="&#x2212;" d="M165 707 l829 0 l0 -73 l-829 0 l0 73 Z" /><glyph glyph-name="" unicode="×" d="M954 246 l-373 372 l-374 -374 l-52 52 l373 374 l-368 368 l53 54 l368 -369 l366 367 l53 -54 l-366 -366 l371 -372 l-51 -52 Z" /><glyph glyph-name="" unicode="÷" d="M110 707 l939 0 l0 -73 l-939 0 l0 73 ZM486 1025 q0 39 26.5 66.5 q26.5 27.5 65.5 27.5 q19 0 36.5 -7.5 q17.5 -7.5 30 -20 q12.5 -12.5 20 -30 q7.5 -17.5 7.5 -36.5 q0 -39 -27.5 -65.5 q-27.5 -26.5 -66.5 -26.5 q-39 0 -65.5 26.5 q-26.5 26.5 -26.5 65.5 ZM486 313 q0 39 26.5 66.5 q26.5 27.5 65.5 27.5 q19 0 36.5 -7.5 q17.5 -7.5 30 -20 q12.5 -12.5 20 -30 q7.5 -17.5 7.5 -36.5 q0 -39 -27.5 -65.5 q-27.5 -26.5 -66.5 -26.5 q-39 0 -65.5 26.5 q-26.5 26.5 -26.5 65.5 Z" /><glyph glyph-name="" unicode="=" d="M166 556 l828 0 l0 -74 l-828 0 l0 74 ZM166 869 l828 0 l0 -74 l-828 0 l0 74 Z" /><glyph glyph-name="" unicode="&#x2260;" d="M683 795 l-104 -239 l416 0 l0 -74 l-448 0 l-118 -271 l-72 0 l118 271 l-308 0 l0 74 l341 0 l104 239 l-445 0 l0 74 l477 0 l117 267 l71 0 l-116 -267 l279 0 l0 -74 l-312 0 Z" /><glyph glyph-name="" unicode="&#x2248;" d="M781 810 q26 0 50.5 6 q24.5 6 46 16.5 q21.5 10.5 38 23.5 q16.5 13 27.5 27 l19 -58 q-30 -43 -80 -66.5 q-50 -23.5 -106 -23.5 q-51 0 -101.5 18 q-50.5 18 -100 40 q-49.5 22 -98 40 q-48.5 18 -94.5 18 q-54 0 -97.5 -22.5 q-43.5 -22.5 -64.5 -51.5 l-21 56 q29 45 78.5 69 q49.5 24 109.5 24 q53 0 104 -18 q51 -18 100 -40 q49 -22 96.5 -40 q47.5 -18 93.5 -18 ZM781 494 q26 0 50.5 6 q24.5 6 46 16.5 q21.5 10.5 38 23.5 q16.5 13 27.5 27 l19 -58 q-30 -43 -80 -66 q-50 -23 -106 -23 q-51 0 -101.5 18 q-50.5 18 -100 40 q-49.5 22 -98 40 q-48.5 18 -94.5 18 q-54 0 -97.5 -22.5 q-43.5 -22.5 -64.5 -51.5 l-21 56 q29 45 78.5 68.5 q49.5 23.5 109.5 23.5 q53 0 104 -18 q51 -18 100 -40 q49 -22 96.5 -40 q47.5 -18 93.5 -18 Z" /><glyph glyph-name="" unicode="&lt;" d="M344 697 q-16 -8 -33.5 -14 q-17.5 -6 -37.5 -11 q38 -9 71 -26 l553 -281 q15 -7 21 -15.5 q6 -8.5 6 -19.5 l0 -65 l-750 386 l0 41 l750 385 l0 -65 q0 -11 -6 -19 q-6 -8 -21 -16 l-553 -280 Z" /><glyph glyph-name="" unicode="&gt;" d="M986 692 l0 -41 l-750 -386 l0 65 q0 11 6 19.5 q6 8.5 20 15.5 l554 281 q16 8 33.5 14 q17.5 6 37.5 11 q-38 9 -71 26 l-554 280 q-26 14 -26 35 l0 65 l750 -385 Z" /><glyph glyph-name="" unicode="±" d="M110 153 l939 0 l0 -73 l-939 0 l0 73 ZM1049 747 l0 -73 l-431 0 l0 -402 l-78 0 l0 402 l-430 0 l0 73 l430 0 l0 406 l78 0 l0 -406 l431 0 Z" /><glyph glyph-name="" unicode="&#x2264;" d="M200 153 l750 0 l0 -73 l-750 0 l0 73 ZM370 733 q-17 -7 -36 -13 q-19 -6 -40 -11 q43 -9 76 -25 l550 -272 q17 -8 23.5 -16.5 q6.5 -8.5 6.5 -19.5 l0 -63 l-750 376 l0 40 l750 374 l0 -62 q0 -11 -6.5 -20 q-6.5 -9 -23.5 -17 l-550 -271 Z" /><glyph glyph-name="" unicode="&#x2265;" d="M210 153 l750 0 l0 -73 l-750 0 l0 73 ZM960 729 l0 -40 l-750 -376 l0 63 q0 11 6.5 19.5 q6.5 8.5 23.5 16.5 l550 272 q33 16 76 25 q-21 5 -40 11 q-19 6 -36 13 l-550 271 q-18 8 -24 17 q-6 9 -6 20 l0 62 l750 -374 Z" /><glyph glyph-name="" unicode="¬" d="M996 339 l-82 0 l0 295 l-747 0 l0 73 l829 0 l0 -368 Z" /><glyph glyph-name="" unicode="&#x212e;" d="M1440 816 q0 114 -42 214.5 q-42 100.5 -119 175.5 q-77 75 -185 118.5 q-108 43.5 -240 43.5 q-130 0 -239 -44.5 q-109 -44.5 -188.5 -121.5 q-79.5 -77 -124.5 -181 q-45 -104 -46 -224 l1184 0 l0 19 ZM256 638 q0 -71 19.5 -142 q19.5 -71 57 -136.5 q37.5 -65.5 92.5 -121.5 q55 -56 125.5 -97.5 q70.5 -41.5 156 -65 q85.5 -23.5 185.5 -23.5 q175 0 308 67 q133 67 229 191 l53 -39 q-98 -133 -249.5 -209 q-151.5 -76 -359.5 -76 q-115 0 -215.5 26.5 q-100.5 26.5 -184 74.5 q-83.5 48 -149 114.5 q-65.5 66.5 -110.5 146.5 q-45 80 -68.5 171 q-23.5 91 -23.5 187 q0 154 53.5 286 q53.5 132 150 229.5 q96.5 97.5 230 153 q133.5 55.5 294.5 55.5 q162 0 293 -53.5 q131 -53.5 224 -147.5 q93 -94 143.5 -220.5 q50.5 -126.5 52.5 -272.5 l-1307 0 l0 -98 Z" /><glyph glyph-name="" unicode="&#x2113;" d="M739 1356 q-70 0 -137 -53.5 q-67 -53.5 -123 -147 q-56 -93.5 -96.5 -220 q-40.5 -126.5 -56.5 -271.5 q120 42 219 98.5 q99 56.5 170 123.5 q71 67 110 143.5 q39 76.5 39 159.5 q0 84 -34 125.5 q-34 41.5 -91 41.5 ZM71 594 q42 8 82.5 18 q40.5 10 79.5 22 q11 110 36 212 q25 102 61 191 q36 89 82.5 161.5 q46.5 72.5 100.5 124.5 q54 52 114 80.5 q60 28.5 124 28.5 q52 0 89 -19.5 q37 -19.5 60.5 -52.5 q23.5 -33 34.5 -75.5 q11 -42.5 11 -88.5 q0 -100 -44 -189.5 q-44 -89.5 -126 -166.5 q-82 -77 -197.5 -140 q-115.5 -63 -259.5 -110 q-3 -50 -3 -100 q0 -120 10.5 -201.5 q10.5 -81.5 31.5 -132 q21 -50.5 52 -72.5 q31 -22 73 -22 q77 0 151.5 68 q74.5 68 131.5 211 l77 -20 q-21 -65 -56.5 -126 q-35.5 -61 -84 -108 q-48.5 -47 -108 -76 q-59.5 -29 -127.5 -29 q-59 0 -104 25.5 q-45 25.5 -75.5 84 q-30.5 58.5 -46.5 153 q-16 94.5 -16 232.5 q0 22 0.5 43 q0.5 21 1.5 42 q-35 -10 -70.5 -18.5 q-35.5 -8.5 -72.5 -16.5 l-13 67 Z" /><glyph glyph-name="" unicode="&#x221e;" d="M1063 360 q43 0 81.5 15.5 q38.5 15.5 67 44.5 q28.5 29 45 72 q16.5 43 16.5 99 q0 55 -16.5 98 q-16.5 43 -45 72 q-28.5 29 -67 44.5 q-38.5 15.5 -81.5 15.5 q-44 0 -81.5 -19 q-37.5 -19 -70.5 -51 q-33 -32 -63 -73.5 q-30 -41.5 -60 -86.5 q30 -45 60 -87 q30 -42 63 -74 q33 -32 70.5 -51 q37.5 -19 81.5 -19 ZM424 360 q44 0 81.5 19 q37.5 19 70.5 51 q33 32 63 74 q30 42 60 87 q-30 45 -60 86.5 q-30 41.5 -63 73.5 q-33 32 -70.5 51 q-37.5 19 -81.5 19 q-44 0 -82 -15.5 q-38 -15.5 -67 -44.5 q-29 -29 -45.5 -72 q-16.5 -43 -16.5 -98 q0 -56 16.5 -99 q16.5 -43 45.5 -72 q29 -29 67 -44.5 q38 -15.5 82 -15.5 ZM1066 899 q57 0 109 -21.5 q52 -21.5 91.5 -61.5 q39.5 -40 63 -97 q23.5 -57 23.5 -128 q0 -71 -23.5 -128.5 q-23.5 -57.5 -63 -97.5 q-39.5 -40 -91.5 -61.5 q-52 -21.5 -109 -21.5 q-55 0 -100.5 20 q-45.5 20 -84.5 53.5 q-39 33.5 -72.5 77 q-33.5 43.5 -64.5 90.5 q-31 -47 -65 -90.5 q-34 -43.5 -73 -77 q-39 -33.5 -84.5 -53.5 q-45.5 -20 -100.5 -20 q-57 0 -109 21.5 q-52 21.5 -91.5 61.5 q-39.5 40 -63 97.5 q-23.5 57.5 -23.5 128.5 q0 71 23.5 128 q23.5 57 63 97 q39.5 40 91.5 61.5 q52 21.5 109 21.5 q55 0 100.5 -20 q45.5 -20 84.5 -53.5 q39 -33.5 73 -77 q34 -43.5 65 -90.5 q31 47 64.5 90.5 q33.5 43.5 72.5 77 q39 33.5 84.5 53.5 q45.5 20 100.5 20 Z" /><glyph glyph-name="" unicode="&#x2202;" d="M480 64 q82 0 152.5 35.5 q70.5 35.5 126.5 102 q56 66.5 95.5 162 q39.5 95.5 59.5 215.5 q-10 51 -31.5 100.5 q-21.5 49.5 -57.5 88.5 q-36 39 -86.5 63 q-50.5 24 -119.5 24 q-98 0 -175 -36.5 q-77 -36.5 -130.5 -100 q-53.5 -63.5 -82 -150 q-28.5 -86.5 -28.5 -186.5 q0 -75 20 -134 q20 -59 56.5 -100 q36.5 -41 87.5 -62.5 q51 -21.5 113 -21.5 ZM383 1341 q36 24 69.5 41.5 q33.5 17.5 67 28.5 q33.5 11 69 16.5 q35.5 5.5 75.5 5.5 q87 0 155.5 -36 q68.5 -36 116 -104 q47.5 -68 72.5 -166.5 q25 -98.5 25 -224.5 q0 -195 -35.5 -362 q-35.5 -167 -106.5 -290 q-71 -123 -177 -192.5 q-106 -69.5 -246 -69.5 q-81 0 -147.5 27 q-66.5 27 -114.5 78 q-48 51 -74.5 123.5 q-26.5 72.5 -26.5 163.5 q0 114 36.5 214.5 q36.5 100.5 102.5 175.5 q66 75 158.5 118 q92.5 43 205.5 43 q53 0 102.5 -13.5 q49.5 -13.5 92.5 -42 q43 -28.5 77 -71.5 q34 -43 56 -102 q3 29 5 58 q2 29 2.5 55.5 q0.5 26.5 1 49 q0.5 22.5 0.5 38.5 q0 218 -75 335 q-75 117 -217 117 q-49 0 -86.5 -10.5 q-37.5 -10.5 -65.5 -22.5 q-28 -12 -46.5 -22.5 q-18.5 -10.5 -28.5 -10.5 q-7 0 -12.5 3.5 q-5.5 3.5 -10.5 13.5 l-20 35 Z" /><glyph glyph-name="" unicode="&#x222b;" d="M531 1253 q12 99 43 169.5 q31 70.5 77.5 115.5 q46.5 45 106.5 66 q60 21 130 21 q33 0 65.5 -4.5 q32.5 -4.5 55.5 -18.5 l-7 -39 q-3 -9 -8.5 -12 q-5.5 -3 -16 -3 q-10.5 0 -28 2 q-17.5 2 -43.5 2 q-60 0 -108 -16 q-48 -16 -83.5 -51.5 q-35.5 -35.5 -58.5 -92 q-23 -56.5 -33 -137.5 l-133 -1242 q-12 -99 -43 -169.5 q-31 -70.5 -77.5 -115.5 q-46.5 -45 -106.5 -66 q-60 -21 -129 -21 q-33 0 -65.5 4.5 q-32.5 4.5 -56.5 18.5 l7 39 q3 9 9 12 q6 3 16.5 3 q10.5 0 27.5 -2 q17 -2 43 -2 q60 0 108 16 q48 16 83.5 51.5 q35.5 35.5 59 92 q23.5 56.5 33.5 137.5 l132 1242 Z" /><glyph glyph-name="" unicode="&#x221a;" d="M1233 1719 l-558 -1719 l-79 0 l-267 690 l-230 0 q-16 0 -27.5 9.5 q-11.5 9.5 -11.5 31.5 l0 30 l314 0 q15 0 24 -7.5 q9 -7.5 12 -17.5 l207 -539 q8 -22 12.5 -43.5 q4.5 -21.5 7.5 -43.5 q6 37 16 76 l488 1509 q5 11 13.5 17.5 q8.5 6.5 20.5 6.5 l58 0 Z" /><glyph glyph-name="" unicode="&#x220f;" d="M1279 1333 l-210 0 l0 -1685 l-98 0 l0 1685 l-593 0 l0 -1685 l-98 0 l0 1685 l-210 0 l0 82 l1209 0 l0 -82 Z" /><glyph glyph-name="" unicode="&#x2211;" d="M1265 1333 l-1040 0 l645 -788 l0 -26 l-645 -789 l1040 0 l0 -82 l-1189 0 l0 36 q0 18 11 32 l673 817 l-672 814 q-12 13 -12 32 l0 36 l1189 0 l0 -82 Z" /><glyph glyph-name="" unicode="&#x25ca;" d="M931 678 l-325 664 q-19 41 -26 79 q-5 -20 -11 -39.5 q-6 -19.5 -15 -38.5 l-324 -665 l322 -660 q10 -21 16.5 -42 q6.5 -21 11.5 -41 q9 42 28 82 l323 661 ZM1025 678 l-412 -832 l-66 0 l-412 832 l412 832 l66 0 l412 -832 Z" /><glyph glyph-name="" unicode="&#x2190;" d="M122 636 l552 552 l31 -32 q11 -13 8 -24.5 q-3 -11.5 -14 -22.5 l-381 -381 q-36 -36 -66 -58 q30 4 66 6.5 q36 2.5 78 2.5 l1474 0 l0 -87 l-1474 0 q-42 0 -77.5 2.5 q-35.5 2.5 -66.5 6.5 q15 -11 31 -25 q16 -14 35 -32 l385 -385 q11 -11 14 -22.5 q3 -11.5 -9 -24.5 l-31 -33 l-555 557 Z" /><glyph glyph-name="" unicode="&#x2192;" d="M1878 635 l-552 -552 l-31 32 q-12 13 -9 25 q3 12 14 23 l382 380 q18 19 34.5 33 q16.5 14 30.5 25 q-30 -4 -65.5 -6.5 q-35.5 -2.5 -77.5 -2.5 l-1474 0 l0 87 l1474 0 q42 0 78 -2.5 q36 -2.5 66 -6.5 q-30 22 -66 58 l-385 384 q-11 11 -14 22.5 q-3 11.5 8 24.5 l31 33 l556 -557 Z" /><glyph glyph-name="" unicode="&#x2191;" d="M1303 970 l-32 -31 q-13 -12 -25 -9 q-12 3 -23 14 l-381 381 q-35 35 -57 65 q9 -60 9 -142 l0 -1474 l-87 0 l0 1474 q0 42 2.5 77.5 q2.5 35.5 6.5 66.5 q-21 -30 -58 -67 l-384 -384 q-11 -11 -22 -14 q-11 -3 -25 9 l-32 31 l556 555 l552 -552 Z" /><glyph glyph-name="" unicode="&#x2193;" d="M749 -333 l-551 552 l31 31 q14 12 25.5 9 q11.5 -3 22.5 -14 l381 -381 q35 -35 56 -65 q-4 30 -6 65 q-2 35 -2 77 l0 1474 l88 0 l0 -1474 q0 -42 -2.5 -76.5 q-2.5 -34.5 -6.5 -65.5 q11 15 25 31 q14 16 32 34 l385 384 q11 11 22 14 q11 3 25 -8 l32 -31 l-557 -556 Z" /><glyph glyph-name="" unicode="&#x2197;" d="M1327 1257 l0 -781 l-44 1 q-18 1 -24 11 q-6 10 -6 26 l0 538 q0 52 6 87 q-19 -24 -42.5 -51 q-23.5 -27 -52.5 -56 l-1043 -1042 l-60 61 l1042 1043 q29 29 56 52.5 q27 23.5 51 42.5 q-36 -6 -87 -6 l-544 0 q-17 0 -26.5 6 q-9.5 6 -10.5 23 l-1 45 l786 0 Z" /><glyph glyph-name="" unicode="&#x2196;" d="M1439 51 l-61 -61 l-1042 1042 q-29 29 -52.5 55.5 q-23.5 26.5 -42.5 50.5 q6 -36 6 -86 l0 -538 q0 -16 -6 -26 q-6 -10 -24 -11 l-45 -1 l0 781 l787 0 l-1 -45 q-1 -17 -11 -23 q-10 -6 -26 -6 l-544 0 q-51 0 -87 6 q24 -19 51 -42.5 q27 -23.5 56 -52.5 l1042 -1043 Z" /><glyph glyph-name="" unicode="&#x2198;" d="M1327 782 l0 -782 l-786 0 l1 45 q1 17 10.5 23 q9.5 6 26.5 6 l544 0 q51 0 87 -6 q-24 19 -51 42.5 q-27 23.5 -56 53.5 l-1042 1042 l60 61 l1043 -1042 q29 -29 52.5 -56 q23.5 -27 42.5 -51 q-6 36 -6 87 l0 539 q0 15 6 25.5 q6 10.5 24 10.5 l44 2 Z" /><glyph glyph-name="" unicode="&#x2199;" d="M172 0 l0 781 l45 -1 q18 -1 24 -11 q6 -10 6 -26 l0 -539 q0 -51 -6 -85 q19 24 42.5 50.5 q23.5 26.5 52.5 55.5 l1042 1042 l61 -61 l-1042 -1043 q-59 -59 -108 -96 q18 3 40 4.5 q22 1.5 48 2.5 l544 0 q16 0 26 -6 q10 -6 11 -24 l1 -44 l-787 0 Z" /><glyph glyph-name="" unicode="&#x2194;" d="M1878 635 l-552 -552 l-31 32 q-12 13 -9 25 q3 12 14 23 l382 380 q18 19 34.5 33 q16.5 14 30.5 25 q-30 -4 -65.5 -6.5 q-35.5 -2.5 -77.5 -2.5 l-1340 0 q25 -20 54 -48 l385 -385 q11 -11 14 -22.5 q3 -11.5 -9 -24.5 l-31 -33 l-555 557 l552 552 l31 -32 q11 -13 8 -24.5 q-3 -11.5 -14 -22.5 l-381 -381 q-30 -30 -55 -49 l1341 0 q42 0 78 -2.5 q36 -2.5 66 -6.5 q-30 22 -66 58 l-385 384 q-11 11 -14 22.5 q-3 11.5 8 24.5 l31 33 l556 -557 Z" /><glyph glyph-name="" unicode="&#x2195;" d="M750 -333 l-551 552 l31 31 q14 12 25.5 9 q11.5 -3 22.5 -14 l381 -381 q14 -15 26 -28 q12 -13 22 -25 l0 1437 q0 42 2 77.5 q2 35.5 6 65.5 q-21 -29 -57 -66 l-385 -384 q-11 -11 -22 -14 q-11 -3 -24 8 l-33 32 l557 555 l552 -552 l-32 -31 q-13 -12 -25 -9 q-12 3 -23 14 l-381 381 q-37 37 -57 64 q4 -30 6.5 -64.5 q2.5 -34.5 2.5 -76.5 l0 -1438 q10 12 22 25.5 q12 13.5 27 28.5 l385 384 q11 11 22 14 q11 3 25 -8 l32 -31 l-557 -556 Z" /><glyph glyph-name="" unicode="&#x1a0;" d="M791 74 q127 0 232 43 q105 43 180 125 q75 82 116 199.5 q41 117.5 41 266.5 q0 148 -41 266 q-41 118 -116 200 q-75 82 -180 125.5 q-105 43.5 -232 43.5 q-126 0 -231 -43.5 q-105 -43.5 -180.5 -125.5 q-75.5 -82 -117 -200 q-41.5 -118 -41.5 -266 q0 -149 41.5 -266.5 q41.5 -117.5 117 -199.5 q75.5 -82 180.5 -125 q105 -43 231 -43 ZM1594 1550 q8 -23 11.5 -49.5 q3.5 -26.5 3.5 -53.5 q0 -63 -20.5 -112 q-20.5 -49 -57 -84 q-36.5 -35 -87 -56.5 q-50.5 -21.5 -109.5 -29.5 q63 -91 97 -205.5 q34 -114.5 34 -251.5 q0 -164 -49 -297.5 q-49 -133.5 -138 -228 q-89 -94.5 -213.5 -146 q-124.5 -51.5 -274.5 -51.5 q-150 0 -274 51.5 q-124 51.5 -213 146 q-89 94.5 -138 228 q-49 133.5 -49 297.5 q0 163 49 296.5 q49 133.5 138 228 q89 94.5 213 146.5 q124 52 274 52 q159 0 287 -56.5 q128 -56.5 219 -161.5 q47 3 86 15.5 q39 12.5 67 32.5 q28 20 43.5 46.5 q15.5 26.5 15.5 58.5 q0 24 -8 38 q-8 14 -17.5 25.5 q-9.5 11.5 -17.5 24 q-8 12.5 -8 33.5 q0 63 73 63 l63 0 Z" /><glyph glyph-name="" unicode="&#x1af;" d="M1590 1550 q8 -23 12 -49.5 q4 -26.5 4 -53.5 q0 -72 -26.5 -125.5 q-26.5 -53.5 -73 -89.5 q-46.5 -36 -109 -54 q-62.5 -18 -134.5 -18 l0 -620 q0 -117 -37 -218.5 q-37 -101.5 -106.5 -177 q-69.5 -75.5 -169 -118.5 q-99.5 -43 -223.5 -43 q-124 0 -223.5 43 q-99.5 43 -169 118.5 q-69.5 75.5 -106.5 177 q-37 101.5 -37 218.5 l0 875 l103 0 l0 -874 q0 -99 29.5 -184.5 q29.5 -85.5 85 -148.5 q55.5 -63 136 -99 q80.5 -36 182.5 -36 q102 0 182.5 35.5 q80.5 35.5 136.5 98.5 q56 63 85.5 148.5 q29.5 85.5 29.5 184.5 l0 875 l102 0 l0 -203 q53 0 97.5 11.5 q44.5 11.5 77 32 q32.5 20.5 50.5 48.5 q18 28 18 62 q0 24 -8 38 q-8 14 -18 25.5 q-10 11.5 -18 24 q-8 12.5 -8 33.5 q0 63 74 63 l62 0 Z" /><glyph glyph-name="" unicode="&#x1a1;" d="M558 62 q89 0 155.5 30.5 q66.5 30.5 111 87.5 q44.5 57 66.5 137.5 q22 80.5 22 180.5 q0 99 -22 180 q-22 81 -66.5 138.5 q-44.5 57.5 -111 88.5 q-66.5 31 -155.5 31 q-89 0 -155.5 -31 q-66.5 -31 -111 -88.5 q-44.5 -57.5 -67 -138.5 q-22.5 -81 -22.5 -180 q0 -100 22.5 -180.5 q22.5 -80.5 67 -137.5 q44.5 -57 111 -87.5 q66.5 -30.5 155.5 -30.5 ZM1177 1145 q8 -20 11 -44 q3 -24 3 -48 q0 -57 -18.5 -102 q-18.5 -45 -51 -77 q-32.5 -32 -78 -51.5 q-45.5 -19.5 -99.5 -26.5 q67 -123 67 -298 q0 -117 -30.5 -211 q-30.5 -94 -88.5 -161 q-58 -67 -142.5 -103 q-84.5 -36 -191.5 -36 q-107 0 -191.5 36 q-84.5 36 -143 103 q-58.5 67 -89 161 q-30.5 94 -30.5 211 q0 117 30.5 211.5 q30.5 94.5 89 161.5 q58.5 67 143 103.5 q84.5 36.5 191.5 36.5 q120 0 210 -44.5 q90 -44.5 148 -126.5 q83 7 134 46.5 q51 39.5 51 102.5 q0 18 -7.5 28.5 q-7.5 10.5 -16 20 q-8.5 9.5 -16 20.5 q-7.5 11 -7.5 30 q0 57 66 57 l57 0 Z" /><glyph glyph-name="" unicode="&#x1b0;" d="M1207 1145 q7 -20 10 -44 q3 -24 3 -48 q0 -62 -21.5 -109.5 q-21.5 -47.5 -59.5 -80 q-38 -32.5 -90 -50 q-52 -17.5 -113 -20.5 l0 -793 l-53 0 q-25 0 -29 26 l-9 148 q-69 -86 -159.5 -138 q-90.5 -52 -201.5 -52 q-83 0 -145 26 q-62 26 -103 75 q-41 49 -62 118 q-21 69 -21 156 l0 636 l96 0 l0 -636 q0 -140 64 -219.5 q64 -79.5 195 -79.5 q97 0 181.5 49.5 q84.5 49.5 150.5 137.5 l0 748 l96 0 l0 -156 q43 3 79 14.5 q36 11.5 62 31 q26 19.5 40 46 q14 26.5 14 58.5 q0 18 -7.5 28.5 q-7.5 10.5 -16.5 20 q-9 9.5 -16.5 20.5 q-7.5 11 -7.5 30 q0 57 66 57 l58 0 Z" /><glyph glyph-name="" unicode="&#x20ab;" d="M110 -171 l930 0 l0 -63 l-930 0 l0 63 ZM836 771 q-58 85 -127 120 q-69 35 -155 35 q-89 0 -156 -31 q-67 -31 -111.5 -89.5 q-44.5 -58.5 -67 -142 q-22.5 -83.5 -22.5 -187.5 q0 -101 21.5 -178 q21.5 -77 61.5 -129 q40 -52 98 -78.5 q58 -26.5 131 -26.5 q105 0 184.5 51 q79.5 51 142.5 142 l0 514 ZM1086 1221 l0 -64 l-154 0 l0 -1157 l-53 0 q-25 0 -29 26 l-10 159 q-72 -95 -157.5 -146.5 q-85.5 -51.5 -198.5 -51.5 q-90 0 -161.5 33 q-71.5 33 -121 96 q-49.5 63 -76 153.5 q-26.5 90.5 -26.5 204.5 q0 118 29 215 q29 97 85 166.5 q56 69.5 136.5 107.5 q80.5 38 184.5 38 q103 0 175 -38 q72 -38 127 -110 l0 304 l-247 0 l0 64 l247 0 l0 234 l96 0 l0 -234 l154 0 Z" /><glyph glyph-name="" unicode="&#x25cb;" d="M115 652 q0 113 43 213 q43 100 117.5 174.5 q74.5 74.5 174.5 117.5 q100 43 213 43 q113 0 213 -43 q100 -43 174.5 -117.5 q74.5 -74.5 117.5 -174.5 q43 -100 43 -213 q0 -113 -43 -213 q-43 -100 -117.5 -174.5 q-74.5 -74.5 -174.5 -117.5 q-100 -43 -213 -43 q-113 0 -213 43 q-100 43 -174.5 117.5 q-74.5 74.5 -117.5 174.5 q-43 100 -43 213 ZM200 652 q0 -96 36 -180.5 q36 -84.5 98.5 -147.5 q62.5 -63 147 -99 q84.5 -36 181.5 -36 q96 0 180.5 36 q84.5 36 147.5 98.5 q63 62.5 99 147 q36 84.5 36 181.5 q0 96 -36 180.5 q-36 84.5 -99 147.5 q-63 63 -147.5 99.5 q-84.5 36.5 -180.5 36.5 q-97 0 -181.5 -36 q-84.5 -36 -147 -99 q-62.5 -63 -98.5 -147.5 q-36 -84.5 -36 -181.5 Z" /><glyph glyph-name="" unicode="&#x25cc;" d="M621 1135 q0 18 12.5 30.5 q12.5 12.5 30.5 12.5 q17 0 30 -12.5 q13 -12.5 13 -30.5 q0 -17 -13 -30 q-13 -13 -30 -13 q-18 0 -30.5 13 q-12.5 13 -12.5 30 ZM805 1098 q0 18 12.5 30.5 q12.5 12.5 29.5 12.5 q17 0 30 -12.5 q13 -12.5 13 -30.5 q0 -17 -13 -30 q-13 -13 -30 -13 q-17 0 -29.5 13 q-12.5 13 -12.5 30 ZM962 995 q0 17 12.5 29.5 q12.5 12.5 29.5 12.5 q17 0 30 -12.5 q13 -12.5 13 -29.5 q0 -17 -13 -30 q-13 -13 -30 -13 q-17 0 -29.5 13 q-12.5 13 -12.5 30 ZM1063 840 q0 17 12.5 29.5 q12.5 12.5 30.5 12.5 q17 0 30 -12.5 q13 -12.5 13 -29.5 q0 -18 -13 -30.5 q-13 -12.5 -30 -12.5 q-18 0 -30.5 12.5 q-12.5 12.5 -12.5 30.5 ZM1105 653 q0 17 12.5 29.5 q12.5 12.5 30.5 12.5 q17 0 30 -12.5 q13 -12.5 13 -29.5 q0 -17 -13 -30 q-13 -13 -30 -13 q-18 0 -30.5 13 q-12.5 13 -12.5 30 ZM435 1098 q0 18 12.5 30.5 q12.5 12.5 29.5 12.5 q17 0 30 -12.5 q13 -12.5 13 -30.5 q0 -17 -13 -30 q-13 -13 -30 -13 q-17 0 -29.5 13 q-12.5 13 -12.5 30 ZM279 995 q0 17 12.5 29.5 q12.5 12.5 30.5 12.5 q17 0 30 -12.5 q13 -12.5 13 -29.5 q0 -17 -13 -30 q-13 -13 -30 -13 q-18 0 -30.5 13 q-12.5 13 -12.5 30 ZM176 840 q0 17 12.5 29.5 q12.5 12.5 29.5 12.5 q17 0 30 -12.5 q13 -12.5 13 -29.5 q0 -18 -13 -30.5 q-13 -12.5 -30 -12.5 q-17 0 -29.5 12.5 q-12.5 12.5 -12.5 30.5 ZM139 653 q0 17 12.5 29.5 q12.5 12.5 29.5 12.5 q18 0 30.5 -12.5 q12.5 -12.5 12.5 -29.5 q0 -17 -12.5 -30 q-12.5 -13 -30.5 -13 q-17 0 -29.5 13 q-12.5 13 -12.5 30 ZM1063 469 q0 18 12.5 30.5 q12.5 12.5 30.5 12.5 q17 0 30 -12.5 q13 -12.5 13 -30.5 q0 -17 -13 -30 q-13 -13 -30 -13 q-18 0 -30.5 13 q-12.5 13 -12.5 30 ZM176 469 q0 18 12.5 30.5 q12.5 12.5 29.5 12.5 q17 0 30 -12.5 q13 -12.5 13 -30.5 q0 -17 -13 -30 q-13 -13 -30 -13 q-17 0 -29.5 13 q-12.5 13 -12.5 30 ZM962 313 q0 17 12.5 29.5 q12.5 12.5 29.5 12.5 q17 0 30 -12.5 q13 -12.5 13 -29.5 q0 -18 -13 -30.5 q-13 -12.5 -30 -12.5 q-17 0 -29.5 12.5 q-12.5 12.5 -12.5 30.5 ZM279 313 q0 17 12.5 29.5 q12.5 12.5 30.5 12.5 q17 0 30 -12.5 q13 -12.5 13 -29.5 q0 -18 -13 -30.5 q-13 -12.5 -30 -12.5 q-18 0 -30.5 12.5 q-12.5 12.5 -12.5 30.5 ZM805 211 q0 17 12.5 29.5 q12.5 12.5 29.5 12.5 q17 0 30 -12.5 q13 -12.5 13 -29.5 q0 -17 -13 -30 q-13 -13 -30 -13 q-17 0 -29.5 13 q-12.5 13 -12.5 30 ZM435 211 q0 17 12.5 29.5 q12.5 12.5 29.5 12.5 q17 0 30 -12.5 q13 -12.5 13 -29.5 q0 -17 -13 -30 q-13 -13 -30 -13 q-17 0 -29.5 13 q-12.5 13 -12.5 30 ZM621 169 q0 17 12.5 29.5 q12.5 12.5 30.5 12.5 q17 0 30 -12.5 q13 -12.5 13 -29.5 q0 -17 -13 -30 q-13 -13 -30 -13 q-18 0 -30.5 13 q-12.5 13 -12.5 30 Z" /><glyph glyph-name="" unicode="&#x34f;" d="" /><glyph glyph-name="" unicode="&#x1dc2;" d="M-109 -86 q0 4 9.5 10 q9.5 6 22.5 10.5 q13 4.5 26.5 8 q13.5 3.5 22.5 3.5 q9 0 14 -3 q5 -3 11.5 -8 q6.5 -5 16.5 -11 q10 -6 29 -12 q63 -20 63 -59 q0 -23 -17 -37.5 q-17 -14.5 -37.5 -25 q-20.5 -10.5 -37.5 -18.5 q-17 -8 -17 -18 q0 -9 14 -16.5 q14 -7.5 31 -17.5 q17 -10 31 -23.5 q14 -13.5 14 -33.5 q0 -19 -12 -31 q-12 -12 -27 -22 q-15 -10 -27 -19 q-12 -9 -12 -22 q0 -15 14 -25.5 q14 -10.5 29 -17.5 q1 -1 1 -3 q0 -5 -4 -5 q-28 5 -49.5 21 q-21.5 16 -21.5 39 q0 17 11 29 q11 12 24.5 21.5 q13.5 9.5 25 17 q11.5 7.5 11.5 15.5 q0 9 -16 17.5 q-16 8.5 -34.5 18.5 q-18.5 10 -34.5 23.5 q-16 13.5 -16 33.5 q0 21 16.5 35 q16.5 14 37 25 q20.5 11 37 20 q16.5 9 16.5 20 q0 10 -11.5 17 q-11.5 7 -31.5 7 q-10 0 -15 -2 q-5 -2 -8 -4 q-3 -2 -7 -3.5 q-4 -1.5 -13 -1.5 q-13 0 -27 5 q-14 5 -25.5 12 q-11.5 7 -19 15 q-7.5 8 -7.5 15 Z" /><glyph glyph-name="" unicode="&#x181;" d="M934 82 q186 0 281.5 80.5 q95.5 80.5 95.5 226.5 q0 67 -25.5 120.5 q-25.5 53.5 -73.5 91 q-48 37.5 -118 57.5 q-70 20 -159 20 l-356 0 l0 -596 l355 0 ZM579 1334 l0 -581 l306 0 q98 0 167.5 25 q69.5 25 114 66 q44.5 41 65.5 93 q21 52 21 107 q0 143 -90.5 216.5 q-90.5 73.5 -279.5 73.5 l-304 0 ZM883 1415 q121 0 210 -24 q89 -24 147 -70.5 q58 -46.5 86 -113.5 q28 -67 28 -152 q0 -56 -19.5 -108 q-19.5 -52 -56 -96 q-36.5 -44 -90 -76.5 q-53.5 -32.5 -122.5 -49.5 q167 -24 256.5 -110.5 q89.5 -86.5 89.5 -227.5 q0 -90 -32 -162 q-32 -72 -93 -122 q-61 -50 -150 -76.5 q-89 -26.5 -202 -26.5 l-459 0 l0 1338 l-43 0 q-145 0 -214.5 -58.5 q-69.5 -58.5 -69.5 -161.5 q0 -26 4.5 -52.5 q4.5 -26.5 12.5 -49.5 q3 -13 1 -24.5 q-2 -11.5 -19 -15.5 l-56 -13 q-15 42 -23 78.5 q-8 36.5 -8 77.5 q0 68 24.5 122.5 q24.5 54.5 71.5 93 q47 38.5 116.5 59.5 q69.5 21 159.5 21 l450 0 Z" /><glyph glyph-name="" unicode="&#x184;" d="M705 860 q124 0 218.5 -34 q94.5 -34 158 -91.5 q63.5 -57.5 95.5 -134.5 q32 -77 32 -163 q0 -93 -31.5 -173 q-31.5 -80 -94 -138.5 q-62.5 -58.5 -156.5 -92 q-94 -33.5 -218 -33.5 l-449 0 l0 1027 l-171 99 l198 289 l75 0 l0 -555 l343 0 ZM708 82 q104 0 179.5 28.5 q75.5 28.5 124 77 q48.5 48.5 72 113.5 q23.5 65 23.5 138 q0 67 -24.5 128 q-24.5 61 -74 108 q-49.5 47 -124.5 75 q-75 28 -175 28 l-346 0 l0 -696 l345 0 Z" /><glyph glyph-name="" unicode="&#x186;" d="M137 238 q8 0 19 -9 q42 -39 85 -68 q43 -29 93 -49 q50 -20 109.5 -30 q59.5 -10 135.5 -10 q121 0 224.5 43.5 q103.5 43.5 179.5 125 q76 81.5 119 199.5 q43 118 43 268 q0 147 -42.5 265 q-42.5 118 -119.5 200 q-77 82 -183.5 126 q-106.5 44 -233.5 44 q-100 0 -171.5 -22 q-71.5 -22 -119.5 -48.5 q-48 -26.5 -75 -48.5 q-27 -22 -39 -22 q-18 0 -25 12 l-31 45 q92 82 203.5 127 q111.5 45 257.5 45 q152 0 278 -52.5 q126 -52.5 216 -148 q90 -95.5 140 -228.5 q50 -133 50 -294 q0 -164 -49 -298 q-49 -134 -136.5 -228.5 q-87.5 -94.5 -210 -146 q-122.5 -51.5 -269.5 -51.5 q-88 0 -161.5 14.5 q-73.5 14.5 -135 41 q-61.5 26.5 -113.5 64 q-52 37.5 -96 84.5 l41 43 q7 7 17 7 Z" /><glyph glyph-name="" unicode="&#x187;" d="M1289 188 q-44 -47 -96 -84.5 q-52 -37.5 -113.5 -64 q-61.5 -26.5 -135 -41 q-73.5 -14.5 -161.5 -14.5 q-147 0 -269.5 51.5 q-122.5 51.5 -210 146 q-87.5 94.5 -136.5 228.5 q-49 134 -49 298 q0 161 50 294 q50 133 140 228.5 q90 95.5 216 148 q126 52.5 278 52.5 q115 0 208 -28 q93 -28 171 -81 q-1 18 -1.5 35 q-0.5 17 -0.5 37 q0 68 14.5 125.5 q14.5 57.5 45 99 q30.5 41.5 77.5 65 q47 23.5 112 23.5 q45 0 82 -8 q37 -8 79 -23 l-13 -50 q-4 -17 -15.5 -19 q-11.5 -2 -24.5 1 q-24 8 -50 12 q-26 4 -50 4 q-88 0 -130.5 -66 q-42.5 -66 -42.5 -183 l0 -116 l-31 -45 q-8 -12 -25 -12 q-12 0 -39 22 q-27 22 -75 48.5 q-48 26.5 -119.5 48.5 q-71.5 22 -171.5 22 q-128 0 -234 -44 q-106 -44 -183 -126 q-77 -82 -119.5 -200 q-42.5 -118 -42.5 -265 q0 -150 43 -268 q43 -118 119 -199.5 q76 -81.5 179.5 -125 q103.5 -43.5 224.5 -43.5 q76 0 135.5 10 q59.5 10 109.5 30 q50 20 93 49 q43 29 85 68 q11 9 19 9 q10 0 17 -7 l41 -43 Z" /><glyph glyph-name="" unicode="&#x18a;" d="M993 83 q127 0 232 42 q105 42 180 122 q75 80 116 196 q41 116 41 265 q0 148 -41 264 q-41 116 -116 196 q-75 80 -180 122 q-105 42 -232 42 l-414 0 l0 -1249 l414 0 ZM993 1415 q150 0 274.5 -49 q124.5 -49 213.5 -141 q89 -92 138 -223 q49 -131 49 -294 q0 -164 -49 -295 q-49 -131 -138 -223 q-89 -92 -213.5 -141 q-124.5 -49 -274.5 -49 l-517 0 l0 1338 l-43 0 q-145 0 -214.5 -58.5 q-69.5 -58.5 -69.5 -161.5 q0 -26 4.5 -52.5 q4.5 -26.5 12.5 -49.5 q3 -13 1 -24.5 q-2 -11.5 -19 -15.5 l-56 -13 q-15 42 -23 78.5 q-8 36.5 -8 77.5 q0 68 24.5 122.5 q24.5 54.5 71.5 93 q47 38.5 116.5 59.5 q69.5 21 159.5 21 l560 0 Z" /><glyph glyph-name="" unicode="&#x18b;" d="M905 82 l0 611 l-331 0 q-186 0 -277 -75.5 q-91 -75.5 -91 -224.5 q0 -146 92 -228.5 q92 -82.5 278 -82.5 l329 0 ZM1008 1415 l0 -1415 l-432 0 q-113 0 -201 28 q-88 28 -148 80 q-60 52 -91.5 126.5 q-31.5 74.5 -31.5 167.5 q0 87 29 156 q29 69 87.5 117.5 q58.5 48.5 147 74 q88.5 25.5 206.5 25.5 l331 0 l0 559 l-757 0 l0 81 l860 0 Z" /><glyph glyph-name="" unicode="&#x18e;" d="M949 0 l-848 0 l-2 85 l747 0 l0 590 l-620 0 l0 83 l620 0 l0 572 l-745 0 l0 85 l848 0 l0 -1415 Z" /><glyph glyph-name="" unicode="&#x18f;" d="M140 1235 q90 94 219.5 146.5 q129.5 52.5 297.5 52.5 q145 0 263.5 -50 q118.5 -50 203 -146 q84.5 -96 130.5 -235.5 q46 -139.5 46 -317.5 q0 -152 -43 -279.5 q-43 -127.5 -124.5 -220.5 q-81.5 -93 -199.5 -145 q-118 -52 -267 -52 q-118 0 -220 40.5 q-102 40.5 -177 119 q-75 78.5 -118 193.5 q-43 115 -43 263 q0 29 9 40.5 q9 11.5 28 11.5 l1050 0 l0 29 q0 160 -39 283 q-39 123 -110.5 206.5 q-71.5 83.5 -173 126.5 q-101.5 43 -225.5 43 q-112 0 -190 -24.5 q-78 -24.5 -130 -54.5 q-52 -30 -82.5 -54.5 q-30.5 -24.5 -47.5 -24.5 q-9 0 -15.5 4 q-6.5 4 -11.5 9 l-30 36 ZM207 582 q0 -118 35 -212 q35 -94 96.5 -160 q61.5 -66 145.5 -101 q84 -35 183 -35 q114 0 205 36 q91 36 157.5 102.5 q66.5 66.5 107 160 q40.5 93.5 53.5 209.5 l-983 0 Z" /><glyph glyph-name="" unicode="&#x190;" d="M1101 182 q-32 -43 -79.5 -79 q-47.5 -36 -108 -62.5 q-60.5 -26.5 -132 -41 q-71.5 -14.5 -150.5 -14.5 q-110 0 -203.5 29 q-93.5 29 -161.5 83 q-68 54 -106.5 130.5 q-38.5 76.5 -38.5 172.5 q0 63 22 122 q22 59 64.5 109 q42.5 50 105.5 88 q63 38 145 58 q-81 16 -138 46 q-57 30 -93 69 q-36 39 -52 84.5 q-16 45.5 -16 93.5 q0 75 33 140.5 q33 65.5 96 114 q63 48.5 153 77 q90 28.5 204 28.5 q74 0 136.5 -11 q62.5 -11 116 -30.5 q53.5 -19.5 97.5 -47 q44 -27.5 80 -61.5 l-22 -37 q-7 -11 -14 -14 q-7 -3 -14 -3 q-12 0 -37 18.5 q-25 18.5 -69 41 q-44 22.5 -111.5 41 q-67.5 18.5 -164.5 18.5 q-94 0 -164.5 -22.5 q-70.5 -22.5 -118 -60.5 q-47.5 -38 -71 -88.5 q-23.5 -50.5 -23.5 -107.5 q0 -64 30.5 -112 q30.5 -48 83.5 -79.5 q53 -31.5 124.5 -47.5 q71.5 -16 154.5 -16 l228 0 l0 -76 l-235 0 q-105 0 -184.5 -27 q-79.5 -27 -133 -72.5 q-53.5 -45.5 -81 -104.5 q-27.5 -59 -27.5 -123 q0 -73 30 -135 q30 -62 85.5 -107 q55.5 -45 135 -70 q79.5 -25 177.5 -25 q92 0 159.5 22 q67.5 22 113 49 q45.5 27 70 51 q24.5 24 30.5 29 q10 10 19 10 q10 0 17 -7 l38 -43 Z" /><glyph glyph-name="" unicode="&#x191;" d="M312 1330 l0 -595 l645 0 l0 -85 l-645 0 l0 -689 q0 -75 -17 -136.5 q-17 -61.5 -50 -105 q-33 -43.5 -82.5 -67 q-49.5 -23.5 -114.5 -23.5 q-48 0 -85.5 8 q-37.5 8 -78.5 23 l12 50 q5 17 16 19 q11 2 24 -1 q25 -8 51 -12 q26 -4 49 -4 q88 0 130.5 65.5 q42.5 65.5 42.5 183.5 l0 1454 l848 0 l0 -85 l-745 0 Z" /><glyph glyph-name="" unicode="&#x193;" d="M1312 1262 l-28 -44 q-14 -24 -42 -11 q-15 6 -43 28 q-28 22 -77 46 q-49 24 -121.5 43 q-72.5 19 -176.5 19 q-138 0 -249.5 -44 q-111.5 -44 -190 -126 q-78.5 -82 -121 -200 q-42.5 -118 -42.5 -265 q0 -150 43 -269 q43 -119 120.5 -201.5 q77.5 -82.5 186 -126.5 q108.5 -44 239.5 -44 q73 0 133 7.5 q60 7.5 111.5 22.5 q51.5 15 98 36.5 q46.5 21.5 93.5 48.5 l0 381 l-271 0 q-11 0 -18.5 7 q-7.5 7 -7.5 16 l0 56 l390 0 l0 -503 q-53 -37 -109.5 -66 q-56.5 -29 -121.5 -48.5 q-65 -19.5 -140 -30 q-75 -10.5 -164 -10.5 q-153 0 -279.5 51.5 q-126.5 51.5 -217 146 q-90.5 94.5 -140.5 228.5 q-50 134 -50 298 q0 164 49.5 297.5 q49.5 133.5 142 228 q92.5 94.5 223.5 146 q131 51.5 295 51.5 q128 0 225 -27 q97 -27 177 -79 q-2 17 -2 33.5 q0 16.5 0 35.5 q0 68 14.5 125.5 q14.5 57.5 45.5 99 q31 41.5 77.5 65 q46.5 23.5 111.5 23.5 q45 0 82.5 -8 q37.5 -8 78.5 -23 l-12 -50 q-5 -17 -16 -19 q-11 -2 -24 1 q-25 8 -51 12 q-26 4 -49 4 q-88 0 -130.5 -66 q-42.5 -66 -42.5 -183 l0 -113 Z" /><glyph glyph-name="" unicode="&#x194;" d="M932 79 q-13 8 -24 23 l-267 384 q-5 -11 -10 -21.5 q-5 -10.5 -13 -20.5 l-240 -347 q-4 -5 -9.5 -9.5 q-5.5 -4.5 -11.5 -8.5 l575 0 ZM706 540 l381 -540 l-887 0 l383 546 l-599 870 l98 0 q14 0 21.5 -6.5 q7.5 -6.5 13.5 -15.5 l531 -785 l2 2 l524 783 q6 9 13 15.5 q7 6.5 18 6.5 l97 0 l-596 -876 Z" /><glyph glyph-name="" unicode="&#x196;" d="M201 1415 l103 0 l0 -1144 q0 -204 187 -204 l72 0 l0 -36 q0 -23 -26 -33 q-26 -10 -81 -10 q-62 0 -109.5 19.5 q-47.5 19.5 -79.5 55.5 q-32 36 -49 87.5 q-17 51.5 -17 115.5 l0 1149 Z" /><glyph glyph-name="" unicode="&#x198;" d="M312 762 l84 0 q19 0 33.5 1.5 q14.5 1.5 27.5 6 q13 4.5 24.5 13.5 q11.5 9 23.5 25 l346 474 q52 76 120 111.5 q68 35.5 162 35.5 q47 0 83 -8 q36 -8 65 -20 l-9 -50 q-5 -17 -16.5 -19 q-11.5 -2 -27.5 2 q-18 6 -41.5 10 q-23.5 4 -49.5 4 q-118 0 -196 -101 l-335 -454 q-17 -23 -34.5 -37.5 q-17.5 -14.5 -39.5 -22.5 q26 -6 47 -20 q21 -14 42 -38 l631 -675 l-83 0 q-26 0 -37.5 6.5 q-11.5 6.5 -22.5 20.5 l-579 604 q-12 13 -22 22.5 q-10 9.5 -23 16 q-13 6.5 -29.5 9.5 q-16.5 3 -40.5 3 l-103 0 l0 -682 l-103 0 l0 1417 l103 0 l0 -655 Z" /><glyph glyph-name="" unicode="&#x19c;" d="M1917 1415 l0 -1414 l-49 0 q-18 0 -26.5 8.5 q-8.5 8.5 -11.5 27.5 l-12 239 q-32 -65 -75 -119 q-43 -54 -94.5 -92 q-51.5 -38 -111 -59 q-59.5 -21 -123.5 -21 q-147 0 -241.5 85.5 q-94.5 85.5 -131.5 236.5 q-25 -83 -68.5 -144 q-43.5 -61 -100 -100.5 q-56.5 -39.5 -121 -58.5 q-64.5 -19 -131.5 -19 q-101 0 -180.5 34.5 q-79.5 34.5 -134.5 101.5 q-55 67 -83.5 165.5 q-28.5 98.5 -28.5 225.5 l0 903 l103 0 l0 -903 q0 -107 24 -190 q24 -83 68.5 -140 q44.5 -57 108 -86.5 q63.5 -29.5 141.5 -29.5 q73 0 139 28.5 q66 28.5 116.5 84.5 q50.5 56 80.5 139.5 q30 83.5 30 193.5 l0 903 l103 0 l0 -903 q0 -103 22 -185.5 q22 -82.5 64 -140.5 q42 -58 102.5 -89 q60.5 -31 137.5 -31 q61 0 117.5 23.5 q56.5 23.5 105.5 66.5 q49 43 89 104 q40 61 69 137 l0 1018 l103 0 Z" /><glyph glyph-name="" unicode="&#x19d;" d="M1301 1415 l0 -1415 l-48 0 q-13 0 -21.5 4.5 q-8.5 4.5 -16.5 15.5 l-919 1228 q3 -30 3 -57 l0 -1255 q0 -75 -15.5 -136.5 q-15.5 -61.5 -47 -105 q-31.5 -43.5 -79.5 -67 q-48 -23.5 -112 -23.5 q-45 0 -82.5 8 q-37.5 8 -78.5 23 l12 50 q5 17 16 19 q11 2 24 -1 q25 -8 51 -12 q26 -4 49 -4 q88 0 130.5 65.5 q42.5 65.5 42.5 183.5 l0 1479 l51 0 q14 0 21.5 -3.5 q7.5 -3.5 16.5 -15.5 l917 -1225 q-3 30 -3 57 l0 1187 l89 0 Z" /><glyph glyph-name="" unicode="&#x19f;" d="M221 685 q3 -144 46.5 -257 q43.5 -113 118.5 -192 q75 -79 178 -120.5 q103 -41.5 227 -41.5 q125 0 228 41.5 q103 41.5 178 120.5 q75 79 117.5 192 q42.5 113 45.5 257 l-1139 0 ZM1358 764 q-8 136 -51.5 243.5 q-43.5 107.5 -118 182 q-74.5 74.5 -175.5 114 q-101 39.5 -222 39.5 q-120 0 -221 -39.5 q-101 -39.5 -175.5 -114 q-74.5 -74.5 -119 -182 q-44.5 -107.5 -52.5 -243.5 l1135 0 ZM791 1431 q150 0 274.5 -51.5 q124.5 -51.5 213.5 -146.5 q89 -95 138 -228.5 q49 -133.5 49 -296.5 q0 -164 -49 -297.5 q-49 -133.5 -138 -228 q-89 -94.5 -213.5 -146 q-124.5 -51.5 -274.5 -51.5 q-150 0 -274 51.5 q-124 51.5 -213 146 q-89 94.5 -138 228 q-49 133.5 -49 297.5 q0 163 49 296.5 q49 133.5 138 228 q89 94.5 213 146.5 q124 52 274 52 Z" /><glyph glyph-name="" unicode="&#x1a2;" d="M737 73 q112 0 206 43.5 q94 43.5 162.5 125 q68.5 81.5 107 199.5 q38.5 118 38.5 267 q0 148 -38.5 266 q-38.5 118 -107 200.5 q-68.5 82.5 -162.5 126.5 q-94 44 -206 44 q-111 0 -205.5 -44 q-94.5 -44 -162.5 -126.5 q-68 -82.5 -106.5 -200.5 q-38.5 -118 -38.5 -266 q0 -149 38.5 -267 q38.5 -118 106.5 -199.5 q68 -81.5 162.5 -125 q94.5 -43.5 205.5 -43.5 ZM1623 1117 q0 48 -10.5 89.5 q-10.5 41.5 -33 72 q-22.5 30.5 -57 48 q-34.5 17.5 -82.5 17.5 q-66 0 -128 -36.5 q-62 -36.5 -113 -91.5 q75 -94 116 -222.5 q41 -128.5 41 -285.5 q0 -164 -45 -297 q-45 -133 -126.5 -227.5 q-81.5 -94.5 -195.5 -145.5 q-114 -51 -252 -51 q-138 0 -252 51 q-114 51 -195.5 145.5 q-81.5 94.5 -126 227.5 q-44.5 133 -44.5 297 q0 163 44.5 296.5 q44.5 133.5 126 228 q81.5 94.5 195.5 146.5 q114 52 252 52 q126 0 230.5 -42.5 q104.5 -42.5 184.5 -120.5 q32 34 67 63.5 q35 29.5 73.5 51 q38.5 21.5 80 34 q41.5 12.5 86.5 12.5 q67 0 117.5 -22.5 q50.5 -22.5 83.5 -63.5 q33 -41 49.5 -98.5 q16.5 -57.5 16.5 -127.5 l0 -1472 l-103 0 l0 1472 Z" /><glyph glyph-name="" unicode="&#x1a4;" d="M842 652 q93 0 167 26 q74 26 125.5 72 q51.5 46 79 108.5 q27.5 62.5 27.5 136.5 q0 163 -100 251 q-100 88 -299 88 l-263 0 l0 -682 l263 0 ZM842 1415 q249 0 375.5 -109 q126.5 -109 126.5 -311 q0 -93 -35 -171 q-35 -78 -100 -134.5 q-65 -56.5 -158 -88 q-93 -31.5 -209 -31.5 l-263 0 l0 -570 l-103 0 l0 1338 l-43 0 q-145 0 -214.5 -58.5 q-69.5 -58.5 -69.5 -161.5 q0 -26 4.5 -52.5 q4.5 -26.5 12.5 -49.5 q3 -13 1 -24.5 q-2 -11.5 -19 -15.5 l-56 -13 q-15 42 -23 78.5 q-8 36.5 -8 77.5 q0 68 24.5 122.5 q24.5 54.5 71.5 93 q47 38.5 116.5 59.5 q69.5 21 159.5 21 l409 0 Z" /><glyph glyph-name="" unicode="&#x1a6;" d="M557 486 q94 0 168.5 22.5 q74.5 22.5 126 64.5 q51.5 42 78.5 101 q27 59 27 133 q0 151 -98.5 224 q-98.5 73 -287.5 73 l-259 0 l0 -618 l245 0 ZM1185 -230 l-88 0 q-17 0 -28.5 5.5 q-11.5 5.5 -21.5 20.5 l-454 574 q-8 11 -16.5 19 q-8.5 8 -19 12.5 q-10.5 4.5 -25 6.5 q-14.5 2 -35.5 2 l-185 0 l0 -410 l-103 0 l0 1430 l103 0 l0 -245 l259 0 q244 0 365.5 -94 q121.5 -94 121.5 -277 q0 -81 -28 -148.5 q-28 -67.5 -80.5 -118 q-52.5 -50.5 -127 -82.5 q-74.5 -32 -167.5 -43 q24 -15 43 -40 l487 -612 Z" /><glyph glyph-name="" unicode="&#x1a7;" d="M152 1289 q72 72 159.5 107 q87.5 35 198.5 35 q98 0 174 -30 q76 -30 128 -80 q52 -50 79 -115.5 q27 -65.5 27 -136.5 q0 -90 -31 -151.5 q-31 -61.5 -81 -104 q-50 -42.5 -114.5 -70.5 q-64.5 -28 -132 -52.5 q-67.5 -24.5 -132 -49 q-64.5 -24.5 -114.5 -59.5 q-50 -35 -81 -85.5 q-31 -50.5 -31 -125.5 q0 -69 23.5 -124.5 q23.5 -55.5 68.5 -95 q45 -39.5 110 -61 q65 -21.5 148 -21.5 q61 0 109 12 q48 12 85 29.5 q37 17.5 65 38 q28 20.5 48 38 q20 17.5 33.5 29.5 q13.5 12 23.5 12 q16 0 28 -15 l28 -44 q-76 -86 -177 -135.5 q-101 -49.5 -241 -49.5 q-108 0 -192 29 q-84 29 -142 81 q-58 52 -88.5 125 q-30.5 73 -30.5 161 q0 86 31 146 q31 60 81.5 102.5 q50.5 42.5 115 71.5 q64.5 29 131.5 54 q67 25 131.5 50.5 q64.5 25.5 115 61 q50.5 35.5 81.5 84.5 q31 49 31 121 q0 55 -20 105 q-20 50 -59.5 87.5 q-39.5 37.5 -97 60 q-57.5 22.5 -132.5 22.5 q-77 0 -129.5 -19 q-52.5 -19 -87.5 -41.5 q-35 -22.5 -56 -41 q-21 -18.5 -34 -18.5 q-16 0 -26 17 l-24 46 Z" /><glyph glyph-name="" unicode="&#x1ac;" d="M1270 1328 l-497 0 l0 -1328 l-103 0 l0 1328 l-238 0 q-147 0 -215.5 -55 q-68.5 -55 -68.5 -156 q0 -25 4.5 -51.5 q4.5 -26.5 12.5 -49.5 q3 -13 1 -24.5 q-2 -11.5 -19 -15.5 l-56 -13 q-15 42 -23 78.5 q-8 36.5 -8 77.5 q0 68 24.5 122.5 q24.5 54.5 72 93 q47.5 38.5 116.5 59.5 q69 21 159 21 l838 0 l0 -87 Z" /><glyph glyph-name="" unicode="&#x1ae;" d="M632 -80 q0 -116 43 -179.5 q43 -63.5 139 -63.5 q43 0 70 9 q27 9 36 9 q6 0 13.5 -3.5 q7.5 -3.5 10.5 -17.5 l10 -39 q-38 -16 -72.5 -23.5 q-34.5 -7.5 -76.5 -7.5 q-73 0 -125.5 22.5 q-52.5 22.5 -86 64.5 q-33.5 42 -49 102.5 q-15.5 60.5 -15.5 135.5 l0 1399 l-500 0 l0 87 l1100 0 l0 -87 l-497 0 l0 -1408 Z" /><glyph glyph-name="" unicode="&#x1b1;" d="M799 -16 q-135 0 -256 46 q-121 46 -212.5 132.5 q-91.5 86.5 -145.5 211.5 q-54 125 -54 284 q0 129 36 241 q36 112 98 200 q62 88 146 149 q84 61 180 88 q-27 -4 -54.5 -6.5 q-27.5 -2.5 -53.5 -2.5 l-355 0 l0 52 q0 16 10 26 q10 10 27 10 l509 0 l0 -121 q-96 -20 -177 -76.5 q-81 -56.5 -139.5 -140.5 q-58.5 -84 -91.5 -191 q-33 -107 -33 -227 q0 -145 47 -255 q47 -110 125 -183.5 q78 -73.5 180.5 -111 q102.5 -37.5 213.5 -37.5 q111 0 213.5 37.5 q102.5 37.5 180.5 111 q78 73.5 125 183.5 q47 110 47 255 q0 120 -33 227 q-33 107 -91.5 191 q-58.5 84 -139.5 140.5 q-81 56.5 -177 76.5 l0 121 l508 0 q17 0 27 -10 q10 -10 10 -26 l0 -52 l-354 0 q-26 0 -54 2.5 q-28 2.5 -55 6.5 q96 -27 180 -88 q84 -61 146.5 -149 q62.5 -88 98.5 -200 q36 -112 36 -241 q0 -159 -54 -284 q-54 -125 -145.5 -211.5 q-91.5 -86.5 -212.5 -132.5 q-121 -46 -256 -46 Z" /><glyph glyph-name="" unicode="&#x1b2;" d="M888 1400 q41 15 78 23 q37 8 79 8 q75 0 126.5 -25.5 q51.5 -25.5 83.5 -75 q32 -49.5 46.5 -121.5 q14.5 -72 14.5 -164 q0 -161 -33.5 -302.5 q-33.5 -141.5 -92 -259.5 q-58.5 -118 -137 -210.5 q-78.5 -92.5 -167.5 -157 q-89 -64.5 -184.5 -98.5 q-95.5 -34 -188.5 -34 q-77 0 -136.5 25 q-59.5 25 -99.5 78.5 q-40 53.5 -60.5 136.5 q-20.5 83 -20.5 200 l0 992 l103 0 l0 -992 q0 -98 14 -165 q14 -67 42.5 -108.5 q28.5 -41.5 71 -60 q42.5 -18.5 100.5 -18.5 q79 0 160.5 31 q81.5 31 158 90 q76.5 59 143 144.5 q66.5 85.5 116.5 194 q50 108.5 79 239 q29 130.5 29 280.5 q0 66 -7 121 q-7 55 -26.5 94 q-19.5 39 -53 61 q-33.5 22 -86.5 22 q-23 0 -49 -4 q-26 -4 -50 -12 q-14 -3 -25 -1 q-11 2 -15 19 l-13 50 l0 0 Z" /><glyph glyph-name="" unicode="&#x1b3;" d="M956 1256 q51 87 111.5 130.5 q60.5 43.5 143.5 43.5 q42 0 75 -8 q33 -8 74 -23 l-13 -48 q-4 -17 -15.5 -19 q-11.5 -2 -24.5 1 q-23 8 -46 12.5 q-23 4.5 -47 4.5 q-55 0 -96.5 -32.5 q-41.5 -32.5 -76.5 -89.5 l-395 -643 l0 -585 l-103 0 l0 585 l-523 830 l89 0 q14 0 23 -6.5 q9 -6.5 16 -18.5 l404 -650 q14 -23 24.5 -44.5 q10.5 -21.5 18.5 -42.5 q16 40 43 87 l318 516 Z" /><glyph glyph-name="" unicode="&#x1b5;" d="M1123 1380 q0 -19 -14 -41 l-409 -571 l391 0 l0 -80 l-448 0 l-432 -603 l905 0 l0 -85 l-1042 0 l0 37 q0 11 3.5 19.5 q3.5 8.5 8.5 16.5 l440 615 l-395 0 l0 80 l453 0 l402 562 l-886 0 l0 85 l1023 0 l0 -35 Z" /><glyph glyph-name="" unicode="&#x1b7;" d="M533 857 q141 0 240.5 -31 q99.5 -31 162 -84 q62.5 -53 91 -125.5 q28.5 -72.5 28.5 -154.5 q0 -103 -39.5 -190.5 q-39.5 -87.5 -109.5 -151 q-70 -63.5 -167 -99.5 q-97 -36 -212 -36 q-77 0 -146 16 q-69 16 -127.5 43 q-58.5 27 -104 62.5 q-45.5 35.5 -74.5 75.5 l40 43 q5 6 10 7.5 q5 1.5 8 1.5 q7 0 12 -2 q5 -2 13 -10 q16 -21 48.5 -47.5 q32.5 -26.5 79.5 -49.5 q47 -23 107 -38.5 q60 -15.5 132 -15.5 q99 0 177.5 30.5 q78.5 30.5 133.5 83 q55 52.5 84.5 123 q29.5 70.5 29.5 149.5 q0 67 -23 126 q-23 59 -75.5 103 q-52.5 44 -137 69 q-84.5 25 -207.5 25 l-122 0 l0 41 q0 11 3 20.5 q3 9.5 13 19.5 l470 469 l-769 0 l0 85 l915 0 l0 -35 q0 -11 -3 -22 q-3 -11 -15 -23 l-483 -478 l17 0 Z" /><glyph glyph-name="" unicode="&#x1b8;" d="M1088 182 q-29 -40 -74.5 -75.5 q-45.5 -35.5 -103.5 -62.5 q-58 -27 -127 -43 q-69 -16 -146 -16 q-116 0 -213 36 q-97 36 -167 99.5 q-70 63.5 -109.5 151 q-39.5 87.5 -39.5 190.5 q0 82 28.5 154.5 q28.5 72.5 91 125.5 q62.5 53 162 84 q99.5 31 240.5 31 l17 0 l-482 478 q-12 12 -15.5 23 q-3.5 11 -3.5 22 l0 35 l915 0 l0 -85 l-769 0 l470 -469 q10 -10 13.5 -19.5 q3.5 -9.5 3.5 -20.5 l0 -41 l-123 0 q-123 0 -207.5 -25 q-84.5 -25 -137 -69 q-52.5 -44 -75.5 -103 q-23 -59 -23 -126 q0 -79 29.5 -149.5 q29.5 -70.5 84.5 -123 q55 -52.5 133.5 -83 q78.5 -30.5 177.5 -30.5 q72 0 132.5 15.5 q60.5 15.5 107 38.5 q46.5 23 79 49.5 q32.5 26.5 48.5 47.5 q8 8 13 10 q5 2 12 2 q4 0 8.5 -1.5 q4.5 -1.5 9.5 -7.5 l40 -43 Z" /><glyph glyph-name="" unicode="&#x1bc;" d="M989 1374 q0 -20 -13.5 -33.5 q-13.5 -13.5 -42.5 -13.5 l-495 0 l-134 -468 q121 28 224 28 q124 0 218 -31.5 q94 -31.5 157 -88.5 q63 -57 94.5 -135 q31.5 -78 31.5 -171 q0 -99 -36 -186 q-36 -87 -101 -152.5 q-65 -65.5 -156 -103 q-91 -37.5 -202 -37.5 q-81 0 -151.5 16 q-70.5 16 -128.5 43 q-58 27 -102.5 63 q-44.5 36 -73.5 76 l36 40 q9 10 19 10 q9 0 19 -10 q8 -6 33.5 -30.5 q25.5 -24.5 71.5 -51.5 q46 -27 112.5 -48 q66.5 -21 155.5 -21 q102 0 177.5 32.5 q75.5 32.5 125.5 87 q50 54.5 75 125 q25 70.5 25 147.5 q0 76 -26 139 q-26 63 -77.5 108 q-51.5 45 -128.5 69.5 q-77 24.5 -178 24.5 q-60 0 -127 -9.5 q-67 -9.5 -139 -29.5 l-62 20 l157 552 q-25 -2 -49.5 -2 q-24.5 0 -49.5 0 l-85 0 q-20 0 -29 9.5 q-9 9.5 -9 21.5 l0 51 l864 0 l0 -41 Z" /><glyph glyph-name="" unicode="&#x1e4;" d="M1538 338 l-198 0 l0 -199 q-53 -37 -110 -66 q-57 -29 -122 -48.5 q-65 -19.5 -140 -30 q-75 -10.5 -164 -10.5 q-153 0 -279.5 51.5 q-126.5 51.5 -217 146 q-90.5 94.5 -140.5 228.5 q-50 134 -50 298 q0 164 50 297.5 q50 133.5 142 228 q92 94.5 223.5 146 q131.5 51.5 294.5 51.5 q81 0 149.5 -11 q68.5 -11 127.5 -32.5 q59 -21.5 110 -53 q51 -31.5 98 -72.5 l-27 -44 q-7 -11 -17.5 -14.5 q-10.5 -3.5 -24.5 3.5 q-15 6 -43.5 28 q-28.5 22 -77 46 q-48.5 24 -121.5 43 q-73 19 -177 19 q-138 0 -249 -44 q-111 -44 -189.5 -126 q-78.5 -82 -121 -200 q-42.5 -118 -42.5 -265 q0 -150 43 -269 q43 -119 120.5 -201.5 q77.5 -82.5 186 -126.5 q108.5 -44 239.5 -44 q73 0 133 8 q60 8 112 23 q52 15 98.5 36.5 q46.5 21.5 92.5 48.5 l0 156 l-279 0 q-11 0 -18.5 6 q-7.5 6 -7.5 17 l0 50 l305 0 l0 178 l-279 0 q-26 0 -26 23 l0 51 l398 0 l0 -252 l198 0 l0 -74 Z" /><glyph glyph-name="" unicode="&#x1f6;" d="M1647 985 q74 26 152 26 q68 0 113 -24 q45 -24 71.5 -66 q26.5 -42 37.5 -99 q11 -57 11 -122 q0 -177 -42.5 -311 q-42.5 -134 -112 -224 q-69.5 -90 -159.5 -135.5 q-90 -45.5 -186 -45.5 q-71 0 -132 22 q-61 22 -106 69 q-45 47 -70.5 122 q-25.5 75 -25.5 180 l0 301 l-886 0 l0 -678 l-103 0 l0 1415 l103 0 l0 -660 l886 0 l0 660 l103 0 l0 -1038 q0 -161 62.5 -237.5 q62.5 -76.5 170.5 -76.5 q78 0 150.5 39.5 q72.5 39.5 128 118.5 q55.5 79 89 198 q33.5 119 33.5 278 q0 119 -38 177 q-38 58 -119 58 q-18 0 -34.5 -2.5 q-16.5 -2.5 -30 -6 q-13.5 -3.5 -23 -6 q-9.5 -2.5 -13.5 -2.5 q-19 0 -22 20 l-8 50 Z" /><glyph glyph-name="" unicode="&#x1f7;" d="M312 60 q212 92 371 190.5 q159 98.5 265 207.5 q106 109 159 231 q53 122 53 260 q0 88 -26 160 q-26 72 -74 123.5 q-48 51.5 -115.5 80 q-67.5 28.5 -150.5 28.5 q-73 0 -138 -19.5 q-65 -19.5 -124.5 -55.5 q-59.5 -36 -114 -86.5 q-54.5 -50.5 -105.5 -112.5 l0 -1007 ZM311 1171 q58 63 115.5 111 q57.5 48 117.5 80.5 q60 32.5 126 49.5 q66 17 142 17 q103 0 186 -37 q83 -37 142 -100.5 q59 -63.5 91 -149.5 q32 -86 32 -184 q0 -155 -62 -293 q-62 -138 -183 -261.5 q-121 -123.5 -298 -233 q-177 -109.5 -408 -207.5 l0 -316 l-103 0 l0 1772 l70 0 q11 0 19 -9 q8 -9 9 -26 l4 -213 Z" /><glyph glyph-name="" unicode="&#x220;" d="M311 1169 q58 67 113.5 116 q55.5 49 114.5 81 q59 32 123.5 47.5 q64.5 15.5 141.5 15.5 q99 0 180 -33 q81 -33 138 -93 q57 -60 88 -144 q31 -84 31 -186 l0 -1325 l-103 0 l0 1322 q0 85 -23.5 153.5 q-23.5 68.5 -69 117 q-45.5 48.5 -111.5 74.5 q-66 26 -151 26 q-76 0 -141 -19.5 q-65 -19.5 -122.5 -55.5 q-57.5 -36 -108.5 -86.5 q-51 -50.5 -99 -112.5 l0 -1067 l-103 0 l0 1419 l70 0 q11 0 19 -9 q8 -9 9 -26 l4 -215 Z" /><glyph glyph-name="" unicode="&#x222;" d="M625 66 q91 0 165 21 q74 21 126.5 61.5 q52.5 40.5 80.5 101 q28 60.5 28 140.5 q0 76 -34.5 131 q-34.5 55 -91.5 96.5 q-57 41.5 -130.5 73 q-73.5 31.5 -151.5 61.5 q-76 -30 -146.5 -61.5 q-70.5 -31.5 -125 -73 q-54.5 -41.5 -87.5 -96.5 q-33 -55 -33 -131 q0 -80 28 -140.5 q28 -60.5 80 -101 q52 -40.5 126 -61.5 q74 -21 166 -21 ZM1008 1415 q41 -48 60.5 -107 q19.5 -59 19.5 -119 q0 -82 -30 -143 q-30 -61 -80.5 -107 q-50.5 -46 -116 -80.5 q-65.5 -34.5 -136.5 -63.5 q76 -31 148.5 -66.5 q72.5 -35.5 128 -83.5 q55.5 -48 89.5 -112 q34 -64 34 -152 q0 -93 -34 -166.5 q-34 -73.5 -98.5 -125 q-64.5 -51.5 -157 -78.5 q-92.5 -27 -210.5 -27 q-118 0 -211 27 q-93 27 -157.5 78.5 q-64.5 51.5 -98.5 125 q-34 73.5 -34 166.5 q0 87 34 150 q34 63 90.5 109.5 q56.5 46.5 129.5 81.5 q73 35 150 66 q-72 30 -138 64.5 q-66 34.5 -117 81.5 q-51 47 -81 109 q-30 62 -30 146 q0 63 19.5 118.5 q19.5 55.5 61.5 107.5 l69 0 q14 0 19 -10 q5 -10 -4 -26 q-28 -36 -45.5 -84 q-17.5 -48 -17.5 -106 q0 -74 31 -128 q31 -54 82.5 -95.5 q51.5 -41.5 118.5 -73.5 q67 -32 140 -61 q70 28 134 60 q64 32 113 74 q49 42 78 97 q29 55 29 129 q0 55 -17.5 103 q-17.5 48 -46.5 84 q-10 17 -4.5 27 q5.5 10 24.5 10 l62 0 Z" /><glyph glyph-name="" unicode="&#x224;" d="M1141 85 l0 -137 q0 -73 -15.5 -132 q-15.5 -59 -48.5 -100.5 q-33 -41.5 -83.5 -64 q-50.5 -22.5 -120.5 -22.5 q-40 0 -75 7.5 q-35 7.5 -73 23.5 l10 39 q4 14 11 17.5 q7 3.5 14 3.5 q9 0 36 -9 q27 -9 69 -9 q96 0 139.5 62.5 q43.5 62.5 43.5 171.5 l0 64 l-979 0 l0 37 q0 11 3.5 19.5 q3.5 8.5 8.5 16.5 l900 1257 l-886 0 l0 85 l1023 0 l0 -35 q0 -19 -14 -41 l-898 -1254 l935 0 Z" /><glyph glyph-name="" unicode="&#x244;" d="M1177 688 l-867 0 l0 -147 q0 -99 29.5 -184.5 q29.5 -85.5 85.5 -148.5 q56 -63 136.5 -99 q80.5 -36 182.5 -36 q102 0 182.5 35.5 q80.5 35.5 136 98.5 q55.5 63 85 148.5 q29.5 85.5 29.5 184.5 l0 148 ZM1485 688 l-205 0 l0 -148 q0 -117 -37 -218.5 q-37 -101.5 -106.5 -177 q-69.5 -75.5 -169 -118.5 q-99.5 -43 -223.5 -43 q-124 0 -223.5 43 q-99.5 43 -169 118.5 q-69.5 75.5 -106.5 177 q-37 101.5 -37 218.5 l0 148 l-205 0 l0 80 l205 0 l0 647 l102 0 l0 -647 l867 0 l0 647 l103 0 l0 -647 l205 0 l0 -80 Z" /><glyph glyph-name="" unicode="&#x24a;" d="M1213 1132 q-84 108 -185 159.5 q-101 51.5 -230 51.5 q-116 0 -220.5 -41.5 q-104.5 -41.5 -183 -123 q-78.5 -81.5 -125 -202.5 q-46.5 -121 -46.5 -279 q0 -148 41 -263.5 q41 -115.5 110.5 -195 q69.5 -79.5 163 -121.5 q93.5 -42 198.5 -42 q65 0 131 17 q66 17 128.5 53 q62.5 36 118 92.5 q55.5 56.5 99.5 134.5 l0 760 ZM1638 -340 q-38 -16 -73 -23.5 q-35 -7.5 -77 -7.5 q-73 0 -125 22.5 q-52 22.5 -85.5 64.5 q-33.5 42 -49 102.5 q-15.5 60.5 -15.5 135.5 l0 306 q-47 -69 -104.5 -120 q-57.5 -51 -122 -85 q-64.5 -34 -134 -51 q-69.5 -17 -140.5 -17 q-122 0 -230 48 q-108 48 -188.5 139 q-80.5 91 -127.5 222 q-47 131 -47 297 q0 178 53.5 315 q53.5 137 144 231 q90.5 94 211.5 142.5 q121 48.5 256 48.5 q127 0 233.5 -48 q106.5 -48 196.5 -157 l3 156 q2 34 28 34 l70 0 l0 -1471 q0 -115 43.5 -178.5 q43.5 -63.5 139.5 -63.5 q43 0 69.5 9 q26.5 9 36.5 9 q6 0 13 -3.5 q7 -3.5 11 -17.5 l10 -39 Z" /><glyph glyph-name="" unicode="&#x24c;" d="M568 716 q94 0 168.5 22.5 q74.5 22.5 126 64.5 q51.5 42 78.5 101 q27 59 27 133 q0 151 -98.5 224 q-98.5 73 -287.5 73 l-259 0 l0 -618 l245 0 ZM1196 0 l-88 0 q-17 0 -28.5 5.5 q-11.5 5.5 -21.5 20.5 l-454 574 q-8 11 -16.5 19 q-8.5 8 -19 12.5 q-10.5 4.5 -25 6.5 q-14.5 2 -35.5 2 l-185 0 l0 -640 l-103 0 l0 640 l-205 0 l0 76 l205 0 l0 699 l362 0 q244 0 365.5 -94.5 q121.5 -94.5 121.5 -277.5 q0 -81 -28 -148 q-28 -67 -80.5 -117.5 q-52.5 -50.5 -127 -82.5 q-74.5 -32 -167.5 -43 q24 -15 43 -40 l487 -612 Z" /><glyph glyph-name="" unicode="&#x24e;" d="M913 996 l-414 0 l167 -275 q12 -24 22.5 -45 q10.5 -21 18.5 -43 q8 22 17.5 43 q9.5 21 21.5 45 l167 275 ZM1022 996 l-265 -431 l0 -565 l-103 0 l0 565 l-265 431 l-318 0 l0 76 l271 0 l-211 343 l89 0 q14 0 23 -6.5 q9 -6.5 16 -18.5 l193 -318 l507 0 l193 318 q6 11 15 18 q9 7 23 7 l90 0 l-211 -343 l271 0 l0 -76 l-318 0 Z" /><glyph glyph-name="" unicode="&#x2c64;" d="M557 716 q94 0 168.5 22.5 q74.5 22.5 126 64.5 q51.5 42 78.5 101 q27 59 27 133 q0 151 -98.5 224 q-98.5 73 -287.5 73 l-259 0 l0 -618 l245 0 ZM1185 0 l-88 0 q-17 0 -28.5 5.5 q-11.5 5.5 -21.5 20.5 l-454 574 q-8 11 -16.5 19 q-8.5 8 -19 12.5 q-10.5 4.5 -25 6.5 q-14.5 2 -35.5 2 l-185 0 l0 -683 q0 -116 43 -179.5 q43 -63.5 139 -63.5 q43 0 70 9 q27 9 36 9 q6 0 13.5 -3 q7.5 -3 10.5 -17 l10 -40 q-38 -15 -72.5 -22.5 q-34.5 -7.5 -76.5 -7.5 q-73 0 -125.5 22.5 q-52.5 22.5 -86 64.5 q-33.5 42 -49 102 q-15.5 60 -15.5 135 l0 1449 l362 0 q244 0 365.5 -94.5 q121.5 -94.5 121.5 -277.5 q0 -81 -28 -148 q-28 -67 -80.5 -117.5 q-52.5 -50.5 -127 -82.5 q-74.5 -32 -167.5 -43 q24 -15 43 -40 l487 -612 Z" /><glyph glyph-name="" unicode="&#x2c69;" d="M1387 82 l0 -402 q0 -14 -9.5 -23 q-9.5 -9 -25.5 -9 l-59 0 l0 352 l-124 0 q-26 0 -37.5 6.5 q-11.5 6.5 -22.5 20.5 l-598 612 q-11 11 -20.5 19 q-9.5 8 -21 13.5 q-11.5 5.5 -27 8 q-15.5 2.5 -39.5 2.5 l-91 0 l0 -682 l-103 0 l0 1417 l103 0 l0 -655 l84 0 q19 0 33 1.5 q14 1.5 25.5 5.5 q11.5 4 21 11.5 q9.5 7.5 20.5 18.5 l571 587 q15 17 29.5 23 q14.5 6 34.5 6 l82 0 l-618 -635 q-18 -19 -33 -30.5 q-15 -11.5 -32 -17.5 q21 -7 37.5 -19 q16.5 -12 33.5 -33 l572 -598 l214 0 Z" /><glyph glyph-name="" unicode="&#x2c6b;" d="M1141 85 l0 -405 q0 -14 -9.5 -23 q-9.5 -9 -25.5 -9 l-59 0 l0 352 l-978 0 l0 37 q0 11 3.5 19.5 q3.5 8.5 8.5 16.5 l900 1257 l-886 0 l0 85 l1023 0 l0 -35 q0 -19 -14 -41 l-898 -1254 l935 0 Z" /><glyph glyph-name="" unicode="&#x2183;" d="M138 238 q9 0 20 -9 q42 -39 85 -68 q43 -29 93 -49 q50 -20 109.5 -30 q59.5 -10 135.5 -10 q120 0 223.5 43.5 q103.5 43.5 179.5 125 q76 81.5 119.5 199.5 q43.5 118 43.5 268 q0 147 -43 265 q-43 118 -119.5 200 q-76.5 82 -183 126 q-106.5 44 -233.5 44 q-101 0 -172.5 -22 q-71.5 -22 -119.5 -48.5 q-48 -26.5 -75 -48.5 q-27 -22 -39 -22 q-17 0 -24 12 l-32 45 q92 82 204 127 q112 45 257 45 q152 0 278 -52.5 q126 -52.5 216 -148 q90 -95.5 140 -228.5 q50 -133 50 -294 q0 -164 -48.5 -298 q-48.5 -134 -136.5 -228.5 q-88 -94.5 -210.5 -146 q-122.5 -51.5 -269.5 -51.5 q-88 0 -161.5 14.5 q-73.5 14.5 -135 41 q-61.5 26.5 -113 64 q-51.5 37.5 -95.5 84.5 l40 43 q7 7 17 7 Z" /><glyph glyph-name="" unicode="&#x2132;" d="M924 1415 l0 -1415 l-848 0 l0 85 l745 0 l0 595 l-645 0 l0 85 l645 0 l0 650 l103 0 Z" /><glyph glyph-name="" unicode="&#x2c75;" d="M1198 678 l-886 0 l0 -678 l-103 0 l0 1415 l103 0 l0 -655 l886 0 l0 -82 Z" /><glyph glyph-name="" unicode="&#x180;" d="M259 218 q57 -86 126.5 -121 q69.5 -35 158.5 -35 q88 0 154 31.5 q66 31.5 110.5 89 q44.5 57.5 67 138 q22.5 80.5 22.5 178.5 q0 222 -81.5 324 q-81.5 102 -235.5 102 q-98 0 -179 -51 q-81 -51 -143 -143 l0 -513 ZM259 810 q66 88 153 139.5 q87 51.5 196 51.5 q184 0 286 -124 q102 -124 102 -378 q0 -109 -28.5 -202.5 q-28.5 -93.5 -83.5 -162.5 q-55 -69 -135.5 -108 q-80.5 -39 -185.5 -39 q-103 0 -178 40.5 q-75 40.5 -129 118.5 l-7 -121 q-2 -11 -8 -18 q-6 -7 -20 -7 l-57 0 l0 1157 l-154 0 l0 64 l154 0 l0 234 l95 0 l0 -234 l248 0 l0 -64 l-248 0 l0 -347 Z" /><glyph glyph-name="" unicode="&#x183;" d="M260 217 q29 -43 60.5 -72.5 q31.5 -29.5 66.5 -48 q35 -18.5 74.5 -26.5 q39.5 -8 83.5 -8 q88 0 154 32 q66 32 110.5 90.5 q44.5 58.5 67 140 q22.5 81.5 22.5 179.5 q0 222 -82 326.5 q-82 104.5 -235 104.5 q-99 0 -179 -51 q-80 -51 -143 -142 l0 -525 ZM260 822 q66 88 153 138.5 q87 50.5 196 50.5 q183 0 285.5 -126.5 q102.5 -126.5 102.5 -380.5 q0 -109 -28.5 -203.5 q-28.5 -94.5 -84 -164 q-55.5 -69.5 -136 -109.5 q-80.5 -40 -185.5 -40 q-104 0 -178.5 40.5 q-74.5 40.5 -128.5 120.5 l-7 -123 q-3 -25 -27 -25 l-58 0 l0 1455 l758 0 l0 -71 l-662 0 l0 -562 Z" /><glyph glyph-name="" unicode="&#x185;" d="M273 218 q57 -86 126.5 -121 q69.5 -35 158.5 -35 q88 0 154 32 q66 32 110.5 90.5 q44.5 58.5 67 140 q22.5 81.5 22.5 179.5 q0 222 -81.5 326.5 q-81.5 104.5 -235.5 104.5 q-98 0 -179 -51 q-81 -51 -143 -143 l0 -523 ZM273 820 q66 88 153 139.5 q87 51.5 196 51.5 q184 0 286 -126.5 q102 -126.5 102 -380.5 q0 -109 -28.5 -203.5 q-28.5 -94.5 -83.5 -164 q-55 -69.5 -135.5 -109.5 q-80.5 -40 -185.5 -40 q-103 0 -178 40.5 q-75 40.5 -129 118.5 l-7 -121 q-2 -11 -8 -18 q-6 -7 -20 -7 l-57 0 l0 1086 l-163 93 l187 276 l71 0 l0 -635 Z" /><glyph glyph-name="" unicode="&#x188;" d="M859 896 l-25 -34 q-5 -5 -9.5 -8.5 q-4.5 -3.5 -12.5 -3.5 q-10 0 -27 13.5 q-17 13.5 -46 29.5 q-29 16 -72.5 29.5 q-43.5 13.5 -105.5 13.5 q-86 0 -152.5 -30.5 q-66.5 -30.5 -112.5 -87.5 q-46 -57 -69.5 -138 q-23.5 -81 -23.5 -182 q0 -105 24.5 -186 q24.5 -81 69.5 -136.5 q45 -55.5 109 -84.5 q64 -29 142 -29 q72 0 120.5 17 q48.5 17 80 37 q31.5 20 49.5 37 q18 17 30 17 q12 0 20 -10 l25 -32 q-23 -30 -58 -56 q-35 -26 -79 -45 q-44 -19 -95.5 -29.5 q-51.5 -10.5 -107.5 -10.5 q-95 0 -173.5 34.5 q-78.5 34.5 -135 100 q-56.5 65.5 -88 160.5 q-31.5 95 -31.5 216 q0 114 30 208 q30 94 88 162 q58 68 141.5 105.5 q83.5 37.5 191.5 37.5 q65 0 119.5 -14.5 q54.5 -14.5 101.5 -40.5 l0 98 q0 60 11.5 112 q11.5 52 38 90 q26.5 38 69 60 q42.5 22 104.5 22 q67 0 142 -30 l-10 -40 q-3 -14 -10.5 -17.5 q-7.5 -3.5 -13.5 -3.5 q-9 0 -36.5 10 q-27.5 10 -66.5 10 q-41 0 -69 -15 q-28 -15 -45 -42.5 q-17 -27.5 -24.5 -66 q-7.5 -38.5 -7.5 -85.5 l0 -162 Z" /><glyph glyph-name="" unicode="&#x18c;" d="M843 781 q-57 86 -126.5 121 q-69.5 35 -158.5 35 q-88 0 -154 -32 q-66 -32 -110.5 -90.5 q-44.5 -58.5 -67 -140 q-22.5 -81.5 -22.5 -179.5 q0 -222 81.5 -326.5 q81.5 -104.5 235.5 -104.5 q98 0 179 51 q81 51 143 143 l0 523 ZM938 0 l-52 0 q-26 0 -30 26 l-10 157 q-66 -90 -154 -143 q-88 -53 -198 -53 q-184 0 -286 127 q-102 127 -102 381 q0 109 28.5 203.5 q28.5 94.5 83.5 164 q55 69.5 135.5 109.5 q80.5 40 185.5 40 q101 0 175 -37 q74 -37 129 -110 l0 519 l-663 0 l0 71 l758 0 l0 -1455 Z" /><glyph glyph-name="" unicode="&#x18d;" d="M479 516 q75 23 142 60.5 q67 37.5 116.5 91.5 q49.5 54 78.5 127 q29 73 29 166 q0 78 -21.5 148.5 q-21.5 70.5 -64.5 124 q-43 53.5 -108 85.5 q-65 32 -152 32 q-76 0 -139 -25.5 q-63 -25.5 -108.5 -73 q-45.5 -47.5 -70.5 -116 q-25 -68.5 -25 -154.5 q0 -93 28 -163.5 q28 -70.5 73.5 -125.5 q45.5 -55 103.5 -97.5 q58 -42.5 118 -79.5 ZM192 73 q2 16 9.5 20.5 q7.5 4.5 22.5 4.5 q7 0 34 -5.5 q27 -5.5 64.5 -11.5 q37.5 -6 82 -11.5 q44.5 -5.5 86.5 -5.5 q60 0 101.5 10 q41.5 10 67 27 q25.5 17 37 40 q11.5 23 11.5 49 q0 43 -28 79 q-28 36 -73.5 69 q-45.5 33 -103.5 66.5 q-58 33.5 -119 72.5 q-61 39 -119 85.5 q-58 46.5 -103.5 106.5 q-45.5 60 -73.5 135.5 q-28 75.5 -28 171.5 q0 103 32.5 186 q32.5 83 90.5 141.5 q58 58.5 139 90 q81 31.5 177 31.5 q108 0 191 -36.5 q83 -36.5 139.5 -99.5 q56.5 -63 85 -147.5 q28.5 -84.5 28.5 -179.5 q0 -180 -103 -301.5 q-103 -121.5 -300 -181.5 q51 -30 98 -60.5 q47 -30.5 82.5 -64 q35.5 -33.5 56.5 -73.5 q21 -40 21 -89 q0 -41 -16 -77.5 q-16 -36.5 -52.5 -65 q-36.5 -28.5 -95.5 -45 q-59 -16.5 -145 -16.5 q-30 0 -67.5 2 q-37.5 2 -78 6.5 q-40.5 4.5 -81 10 q-40.5 5.5 -76.5 13.5 l6 53 Z" /><glyph glyph-name="" unicode="&#x192;" d="M200 1090 q0 85 22 149.5 q22 64.5 62 107.5 q40 43 96 64.5 q56 21.5 124 21.5 q31 0 62.5 -5.5 q31.5 -5.5 55.5 -15.5 l-3 -46 q-1 -9 -7.5 -11.5 q-6.5 -2.5 -19 -2 q-12.5 0.5 -31 3 q-18.5 2.5 -44.5 2.5 q-49 0 -90 -14.5 q-41 -14.5 -71 -46.5 q-30 -32 -46.5 -83.5 q-16.5 -51.5 -16.5 -126.5 l0 -123 l322 0 l0 -71 l-320 0 l0 -964 q0 -75 -18 -135.5 q-18 -60.5 -53.5 -102.5 q-35.5 -42 -89 -64.5 q-53.5 -22.5 -124.5 -22.5 q-41 0 -75.5 7.5 q-34.5 7.5 -72.5 23.5 l10 39 q4 14 10.5 17.5 q6.5 3.5 13.5 3.5 q10 0 35.5 -9 q25.5 -9 70.5 -9 q95 0 146.5 60.5 q51.5 60.5 51.5 182.5 l0 971 l-140 9 q-29 3 -29 25 l0 39 l169 0 l0 126 Z" /><glyph glyph-name="" unicode="&#x195;" d="M1562 995 l0 -636 q0 -87 -21.5 -156 q-21.5 -69 -66 -118 q-44.5 -49 -111 -75 q-66.5 -26 -156.5 -26 q-90 0 -157 26 q-67 26 -111 75 q-44 49 -66 118 q-22 69 -22 156 l0 277 q0 140 -64 219.5 q-64 79.5 -195 79.5 q-97 0 -181.5 -49.5 q-84.5 -49.5 -150.5 -137.5 l0 -748 l-96 0 l0 1455 l96 0 l0 -628 q69 84 157.5 134 q88.5 50 198.5 50 q82 0 144.5 -26 q62.5 -26 103.5 -75 q41 -49 62 -118 q21 -69 21 -156 l0 -277 q0 -145 64.5 -223 q64.5 -78 195.5 -78 q131 0 195.5 78 q64.5 78 64.5 223 l0 636 l95 0 Z" /><glyph glyph-name="" unicode="&#x1bf;" d="M260 25 q122 44 237 106.5 q115 62.5 204.5 142.5 q89.5 80 143.5 176 q54 96 54 207 q0 66 -19.5 117.5 q-19.5 51.5 -56 87 q-36.5 35.5 -88 54.5 q-51.5 19 -114.5 19 q-110 0 -203 -51 q-93 -51 -158 -142 l0 -717 ZM256 816 q68 90 168 143 q100 53 224 53 q74 0 137.5 -22 q63.5 -22 110.5 -65.5 q47 -43.5 74 -107.5 q27 -64 27 -148 q0 -89 -30 -169 q-30 -80 -83 -150 q-53 -70 -124 -130.5 q-71 -60.5 -153 -111.5 q-82 -51 -170.5 -91.5 q-88.5 -40.5 -176.5 -70.5 l0 -298 l-96 0 l0 1347 l53 0 q25 0 29 -25 l10 -154 Z" /><glyph glyph-name="" unicode="&#x199;" d="M260 568 l46 0 q14 0 26.5 4 q12.5 4 27.5 19 l399 379 q10 12 22 18.5 q12 6.5 30 6.5 l84 0 l-439 -417 q-18 -21 -39 -33 q16 -8 27.5 -18.5 q11.5 -10.5 22.5 -24.5 l461 -502 l-83 0 q-14 0 -25.5 4.5 q-11.5 4.5 -21.5 18.5 l-418 448 q-8 9 -15.5 15 q-7.5 6 -15.5 9.5 q-8 3.5 -18.5 5 q-10.5 1.5 -25.5 1.5 l-45 0 l0 -502 l-96 0 l0 1105 q0 75 18 135.5 q18 60.5 53.5 102.5 q35.5 42 89 64.5 q53.5 22.5 124.5 22.5 q41 0 75.5 -7.5 q34.5 -7.5 72.5 -23.5 l-10 -40 q-3 -14 -9.5 -17 q-6.5 -3 -14.5 -3 q-9 0 -35 9 q-26 9 -71 9 q-95 0 -146 -60.5 q-51 -60.5 -51 -182.5 l0 -546 Z" /><glyph glyph-name="" unicode="&#x19b;" d="M1019 64 l0 -39 q0 -19 -16.5 -26.5 q-16.5 -7.5 -63.5 -7.5 q-30 0 -59.5 6.5 q-29.5 6.5 -56.5 25 q-27 18.5 -51.5 51 q-24.5 32.5 -43.5 84.5 l-240 620 q-5 16 -9.5 30.5 q-4.5 14.5 -7.5 29.5 q-4 -14 -8 -28 q-4 -14 -10 -28 l-302 -757 q-4 -9 -13 -17 q-9 -8 -23 -8 l-79 0 l392 931 l-54 141 l-189 -74 l-22 60 l188 73 l-43 114 q-11 30 -25 51 q-14 21 -33.5 34.5 q-19.5 13.5 -46.5 20 q-27 6.5 -65 6.5 l-65 0 l0 36 q0 7 3 14 q3 7 12.5 12 q9.5 5 26.5 8 q17 3 45 3 q82 0 139 -33 q57 -33 87 -113 l47 -121 l193 75 l22 -60 l-192 -75 l352 -914 q26 -69 60.5 -97 q34.5 -28 90.5 -28 l60 0 Z" /><glyph glyph-name="" unicode="&#x1a3;" d="M816 825 q-17 21 -39.5 40.5 q-22.5 19.5 -54 35.5 q-31.5 16 -72 25.5 q-40.5 9.5 -92.5 9.5 q-89 0 -155.5 -31 q-66.5 -31 -111 -88.5 q-44.5 -57.5 -67 -138.5 q-22.5 -81 -22.5 -180 q0 -100 22.5 -180.5 q22.5 -80.5 67 -137.5 q44.5 -57 111 -87.5 q66.5 -30.5 155.5 -30.5 q59 0 101.5 13 q42.5 13 71 33.5 q28.5 20.5 45.5 46 q17 25.5 26 51.5 q9 26 11.5 49 q2.5 23 2.5 38 l0 532 ZM912 295 q0 -27 -6.5 -60.5 q-6.5 -33.5 -22 -67.5 q-15.5 -34 -41.5 -66.5 q-26 -32.5 -65 -57.5 q-39 -25 -93.5 -40.5 q-54.5 -15.5 -125.5 -15.5 q-107 0 -191.5 36 q-84.5 36 -143 103 q-58.5 67 -89 161 q-30.5 94 -30.5 211 q0 117 30.5 211.5 q30.5 94.5 89 161.5 q58.5 67 143 103.5 q84.5 36.5 191.5 36.5 q107 0 185.5 -34.5 q78.5 -34.5 129.5 -85.5 q55 58 112.5 88.5 q57.5 30.5 131.5 30.5 q63 0 109 -22.5 q46 -22.5 77 -63.5 q31 -41 46 -98 q15 -57 15 -127 l0 -1051 l-96 0 l0 1051 q0 49 -9.5 91.5 q-9.5 42.5 -29.5 74 q-20 31.5 -52.5 50 q-32.5 18.5 -78.5 18.5 q-53 0 -97 -25 q-44 -25 -89 -67 l0 -546 Z" /><glyph glyph-name="" unicode="&#x1a5;" d="M260 217 q29 -43 60.5 -72.5 q31.5 -29.5 66.5 -48 q35 -18.5 74.5 -26.5 q39.5 -8 83.5 -8 q88 0 154 32 q66 32 110.5 90.5 q44.5 58.5 67 140 q22.5 81.5 22.5 179.5 q0 222 -82 326.5 q-82 104.5 -235 104.5 q-99 0 -179 -51 q-80 -51 -143 -142 l0 -525 ZM260 822 q66 88 153 138.5 q87 50.5 196 50.5 q183 0 285.5 -126.5 q102.5 -126.5 102.5 -380.5 q0 -109 -28.5 -203.5 q-28.5 -94.5 -84 -164 q-55.5 -69.5 -136 -109.5 q-80.5 -40 -185.5 -40 q-102 0 -175.5 39 q-73.5 39 -127.5 115 l0 -493 l-96 0 l0 1457 q0 75 18 135.5 q18 60.5 53.5 102.5 q35.5 42 89 64.5 q53.5 22.5 124.5 22.5 q41 0 75.5 -7.5 q34.5 -7.5 72.5 -23.5 l-10 -40 q-3 -14 -9.5 -17 q-6.5 -3 -14.5 -3 q-9 0 -35 9 q-26 9 -71 9 q-95 0 -146 -60.5 q-51 -60.5 -51 -182.5 l0 -292 Z" /><glyph glyph-name="" unicode="&#x1a8;" d="M756 105 q-60 -54 -138.5 -87.5 q-78.5 -33.5 -184.5 -33.5 q-83 0 -147 21 q-64 21 -107.5 58 q-43.5 37 -66 87 q-22.5 50 -22.5 108 q0 62 24.5 106.5 q24.5 44.5 64 77 q39.5 32.5 90.5 56 q51 23.5 103.5 43.5 q52.5 20 103.5 39 q51 19 90.5 43 q39.5 24 64 56 q24.5 32 24.5 77 q0 38 -17.5 71.5 q-17.5 33.5 -50 58 q-32.5 24.5 -78.5 39 q-46 14.5 -103 14.5 q-57 0 -97 -12.5 q-40 -12.5 -67.5 -28 q-27.5 -15.5 -45 -28 q-17.5 -12.5 -29.5 -12.5 q-14 0 -21 14 l-21 33 q116 106 290 106 q77 0 138 -19.5 q61 -19.5 104 -53.5 q43 -34 65.5 -81 q22.5 -47 22.5 -102 q0 -59 -24.5 -100 q-24.5 -41 -64 -71 q-39.5 -30 -90.5 -52 q-51 -22 -104 -41.5 q-53 -19.5 -104 -39.5 q-51 -20 -90.5 -46.5 q-39.5 -26.5 -64 -62 q-24.5 -35.5 -24.5 -86.5 q0 -41 16.5 -77.5 q16.5 -36.5 49 -64 q32.5 -27.5 81 -44 q48.5 -16.5 112.5 -16.5 q67 0 112.5 16 q45.5 16 76.5 34.5 q31 18.5 49.5 34.5 q18.5 16 31.5 16 q15 0 26 -16 l22 -34 l0 0 Z" /><glyph glyph-name="" unicode="&#x1ab;" d="M572 32 q-30 -23 -66 -35.5 q-36 -12.5 -78 -12.5 q-95 0 -150.5 56.5 q-55.5 56.5 -55.5 172.5 l0 680 l-143 0 q-11 0 -18 6 q-7 6 -7 17 l0 37 l170 12 l24 356 q2 9 8 16 q6 7 17 7 l45 0 l0 -380 l315 0 l0 -71 l-315 0 l0 -675 q0 -41 10.5 -71 q10.5 -30 29 -49 q18.5 -19 43.5 -28 q25 -9 54 -9 q37 0 63 10.5 q26 10.5 44 23.5 q18 13 30 23.5 q12 10.5 20 10.5 l43 0 l0 -216 q0 -60 -12 -112 q-12 -52 -38.5 -90 q-26.5 -38 -69 -60 q-42.5 -22 -104.5 -22 q-35 0 -68.5 7.5 q-33.5 7.5 -71.5 23.5 l8 37 q4 14 11 17 q7 3 13 3 q10 0 37 -9.5 q27 -9.5 67 -9.5 q80 0 112.5 56 q32.5 56 32.5 153 l0 125 Z" /><glyph glyph-name="" unicode="&#x1ad;" d="M436 -16 q-101 0 -157.5 56 q-56.5 56 -56.5 173 l0 680 l-143 0 q-11 0 -18 6 q-7 6 -7 17 l0 37 l170 12 l17 234 q8 116 64.5 173.5 q56.5 57.5 156.5 57.5 q39 0 68.5 -7 q29.5 -7 64.5 -21 l-7 -38 q-4 -14 -11 -17 q-7 -3 -13 -3 q-10 0 -32.5 9 q-22.5 9 -63.5 9 q-77 0 -113.5 -50 q-36.5 -50 -36.5 -151 l0 -197 l314 0 l0 -71 l-314 0 l0 -675 q0 -41 10.5 -70.5 q10.5 -29.5 29 -48.5 q18.5 -19 43.5 -28 q25 -9 54 -9 q36 0 62 10.5 q26 10.5 45 23 q19 12.5 31 23 q12 10.5 19 10.5 q8 0 16 -10 l26 -42 q-38 -42 -96.5 -67.5 q-58.5 -25.5 -121.5 -25.5 Z" /><glyph glyph-name="" unicode="&#x1b4;" d="M816 863 q14 34 32.5 61.5 q18.5 27.5 44.5 46.5 q26 19 60 29.5 q34 10.5 79 10.5 q39 0 68.5 -7 q29.5 -7 64.5 -21 l-7 -39 q-4 -14 -11 -17 q-7 -3 -13 -3 q-10 0 -32.5 9 q-22.5 9 -63.5 9 q-40 0 -74.5 -17.5 q-34.5 -17.5 -57.5 -70.5 l-511 -1174 q-5 -14 -15 -23 q-10 -9 -27 -9 l-69 0 l176 388 l-421 959 l79 0 q14 0 23 -7.5 q9 -7.5 13 -16.5 l335 -774 q6 -15 10.5 -30.5 q4.5 -15.5 8.5 -31.5 q9 33 21 62 l287 666 Z" /><glyph glyph-name="" unicode="&#x1b6;" d="M822 995 l0 -40 q0 -21 -14 -38 l-268 -363 l262 0 l0 -68 l-313 0 l-304 -411 l612 0 l0 -75 l-727 0 l0 38 q0 17 15 37 l304 411 l-284 0 l0 68 l334 0 l271 366 l-607 0 l0 75 l719 0 Z" /><glyph glyph-name="" unicode="&#x1b9;" d="M146 995 l672 0 l0 -75 l-555 0 l394 -493 q15 -12 15 -31 l0 -30 l-168 0 q-86 0 -148.5 -22.5 q-62.5 -22.5 -103 -63.5 q-40.5 -41 -60.5 -98.5 q-20 -57.5 -20 -126.5 q0 -82 25.5 -147 q25.5 -65 72 -110.5 q46.5 -45.5 112 -69.5 q65.5 -24 145.5 -24 q69 0 115.5 15.5 q46.5 15.5 78 33.5 q31.5 18 51 33.5 q19.5 15.5 33.5 15.5 q15 0 26 -15 l22 -35 q-60 -54 -137 -87 q-77 -33 -187 -33 q-107 0 -190.5 31.5 q-83.5 31.5 -141.5 88.5 q-58 57 -88.5 135.5 q-30.5 78.5 -30.5 172.5 q0 82 25.5 151 q25.5 69 78 118 q52.5 49 132.5 76.5 q80 27.5 190 27.5 l53 0 l-392 479 q-8 10 -13.5 20 q-5.5 10 -5.5 23 l0 40 Z" /><glyph glyph-name="" unicode="&#x1ba;" d="M716 955 q0 -23 -20 -43 l-353 -337 l26 0 q100 0 172.5 -19.5 q72.5 -19.5 119.5 -55.5 q47 -36 69.5 -87 q22.5 -51 22.5 -113 q0 -64 -24 -118 q-24 -54 -73.5 -95.5 q-49.5 -41.5 -125.5 -68.5 q-76 -27 -181 -37 q-69 -6 -115 -19 q-46 -13 -73 -31.5 q-27 -18.5 -38 -41.5 q-11 -23 -11 -50 q0 -57 46.5 -95.5 q46.5 -38.5 146.5 -38.5 q28 0 48.5 3 q20.5 3 34.5 6 q14 3 22 6 q8 3 13 3 q6 0 13.5 -3 q7.5 -3 10.5 -17 l11 -42 q-38 -16 -74.5 -23.5 q-36.5 -7.5 -84.5 -7.5 q-70 0 -121.5 15.5 q-51.5 15.5 -85 43.5 q-33.5 28 -50 66.5 q-16.5 38.5 -16.5 84.5 q0 43 16 80 q16 37 52 65 q36 28 94 46.5 q58 18.5 142 26.5 q88 7 150.5 27.5 q62.5 20.5 102 52 q39.5 31.5 58 72 q18.5 40.5 18.5 88.5 q0 96 -72 153 q-72 57 -220 57 l-141 0 l0 31 q0 18 15 30 l362 351 l-559 0 l0 75 l672 0 l0 -40 Z" /></font>
</defs>
</svg>
